<svg width="29" height="28" viewBox="0 0 29 28" fill="none" xmlns="http://www.w3.org/2000/svg">
<path d="M26.7134 0L15.0469 1.40872C14.8604 1.41912 14.6784 1.45483 14.5 1.51661C14.3301 1.45483 14.1646 1.42433 14.0153 1.41912L2.37007 0.00548217L2.27843 0C1.0235 0 0 1.27005 0 2.82757V24.964C0 26.5219 1.0235 27.7917 2.30765 27.7917H2.34084L13.9781 26.378C14.1519 26.3673 14.3259 26.3318 14.4958 26.275C14.6573 26.3318 14.8233 26.3673 14.9805 26.373L26.6218 27.7867L26.7134 27.7916C27.9727 27.7916 29 26.5218 29 24.964V2.82757C29 1.27005 27.9727 0 26.7134 0ZM14.9292 7.19866V6.97466H16.2651V7.19866H14.9292ZM14.9292 11.7395V11.5158H16.2651V11.7395H14.9292ZM14.9292 16.2812V16.0566H16.2651V16.2812H14.9292ZM14.9292 20.8219V20.5979H16.2651V20.8219H14.9292ZM14.9268 23.4345H14.9292V21.3109H16.2651V21.5201C16.2651 21.6604 16.357 21.7749 16.4698 21.7749H17.2398C17.3526 21.7749 17.4445 21.6604 17.4445 21.5201V19.8937C17.4445 19.7536 17.3526 19.6397 17.2398 19.6397H16.4698C16.357 19.6397 16.2651 19.7536 16.2651 19.8937V20.1089H14.9292V16.7698H16.2651V16.9793C16.2651 17.1193 16.357 17.2332 16.4698 17.2332H17.2398C17.3526 17.2332 17.4445 17.1193 17.4445 16.9793V15.3526C17.4445 15.2126 17.3526 15.0981 17.2398 15.0981H16.4698C16.357 15.0981 16.2651 15.2126 16.2651 15.3526V15.5675H14.9292V12.2284H16.2651V12.4379C16.2651 12.5785 16.357 12.6924 16.4698 12.6924H17.2398C17.3526 12.6924 17.4445 12.5785 17.4445 12.4379V10.8117C17.4445 10.6712 17.3526 10.5572 17.2398 10.5572H16.4698C16.357 10.5572 16.2651 10.6712 16.2651 10.8117V11.0267H14.9292V7.68763H16.2651V7.8968C16.2651 8.03688 16.357 8.15165 16.4698 8.15165H17.2398C17.3526 8.15165 17.4445 8.03688 17.4445 7.8968V6.2704C17.4445 6.13033 17.3526 6.01611 17.2398 6.01611H16.4698C16.357 6.01611 16.2651 6.13033 16.2651 6.2704V6.48562H14.9292V4.35619H14.9268V4.24114C14.9268 4.12306 15.0012 4.02508 15.1007 4.02009L26.7093 2.60638C26.8085 2.60638 26.8912 2.70443 26.8912 2.82742V24.9639C26.8912 25.0875 26.8085 25.1849 26.7093 25.1799L15.1007 23.7663C15.0011 23.7663 14.9268 23.6683 14.9268 23.5502V23.4345ZM2.10057 24.964V2.82757C2.10057 2.70457 2.18355 2.60652 2.28267 2.60652L13.8951 4.02023C13.9907 4.02515 14.065 4.1232 14.065 4.24128V6.48576H12.7286V6.27055C12.7286 6.13047 12.6368 6.01625 12.5235 6.01625H11.754C11.6407 6.01625 11.5489 6.13047 11.5489 6.27055V7.89694C11.5489 8.03702 11.6407 8.15179 11.754 8.15179H12.5235C12.6368 8.15179 12.7286 8.03702 12.7286 7.89694V7.68777H14.065V11.0268H12.7286V10.8119C12.7286 10.6713 12.6368 10.5574 12.5235 10.5574H11.754C11.6407 10.5574 11.5489 10.6713 11.5489 10.8119V12.4381C11.5489 12.5786 11.6407 12.6926 11.754 12.6926H12.5235C12.6368 12.6926 12.7286 12.5786 12.7286 12.4381V12.2285H14.065V15.5676H12.7286V15.3527C12.7286 15.2127 12.6368 15.0982 12.5235 15.0982H11.754C11.6407 15.0982 11.5489 15.2127 11.5489 15.3527V16.9794C11.5489 17.1195 11.6407 17.2334 11.754 17.2334H12.5235C12.6368 17.2334 12.7286 17.1195 12.7286 16.9794V16.7699H14.065V20.109H12.7286V19.8938C12.7286 19.7537 12.6368 19.6398 12.5235 19.6398H11.754C11.6407 19.6398 11.5489 19.7537 11.5489 19.8938V21.5202C11.5489 21.6606 11.6407 21.7751 11.754 21.7751H12.5235C12.6368 21.7751 12.7286 21.6606 12.7286 21.5202V21.3109H14.065V23.5504C14.065 23.6685 13.9907 23.7664 13.8951 23.7664L2.28267 25.1801C2.1835 25.1851 2.10057 25.0876 2.10057 24.964ZM14.065 6.97466V7.19866H12.7286V6.97466H14.065ZM14.065 11.5158V11.7395H12.7286V11.5158H14.065ZM14.065 16.0565V16.2811H12.7286V16.0565H14.065ZM14.065 20.5979V20.8219H12.7286V20.5979H14.065Z" fill="#8DDAEB"/>
<path d="M25.3067 5.86791L25.2845 5.58789L18.7578 6.38302L18.7799 6.66248L25.3067 5.86791Z" fill="#8DDAEB"/>
<path d="M25.2891 8.76562L18.7862 9.24061L18.7712 9.24167L18.7623 9.24223L18.7756 9.52281L25.2804 9.04782L25.2932 9.04676L25.3023 9.0462L25.2891 8.76562Z" fill="#8DDAEB"/>
<path d="M18.7707 12.383L25.2576 12.2249L25.2883 12.2243L25.2974 12.224L25.2932 11.9547V11.9542H25.2929V11.9429L18.8065 12.1008L18.7751 12.1016L18.7662 12.1019L18.7707 12.383Z" fill="#8DDAEB"/>
<path d="M25.2935 15.4013L25.298 15.1201L18.7713 14.9613L18.7668 15.2425L25.2935 15.4013Z" fill="#8DDAEB"/>
<path d="M25.2891 18.579L25.3023 18.2984L18.7756 17.8218L18.7628 18.0908V18.0911L18.7623 18.1024L25.2891 18.579Z" fill="#8DDAEB"/>
<path d="M25.3067 21.4767L18.7906 20.6835L18.7887 20.6833L18.7799 20.6821L18.7587 20.9493V20.9504L18.7578 20.9617L25.2845 21.7567L25.3067 21.4767Z" fill="#8DDAEB"/>
<path d="M10.2204 6.66248L10.2425 6.38302L3.72686 5.58923L3.72487 5.58894L3.71581 5.58789L3.69451 5.85589L3.69429 5.85666H3.69451L3.69366 5.86791L10.2204 6.66248Z" fill="#8DDAEB"/>
<path d="M3.71143 8.76562L3.69863 9.03468V9.03496L3.69818 9.0462L10.2249 9.52281L10.2382 9.24223L3.71143 8.76562Z" fill="#8DDAEB"/>
<path d="M10.2339 12.1014L3.70721 11.9426L3.70277 12.2238L10.2295 12.3826L10.2339 12.1014Z" fill="#8DDAEB"/>
<path d="M3.70656 15.4018L10.1934 15.2439L10.224 15.2431L10.2333 15.2428L10.2288 14.9735V14.9729V14.9617L3.74236 15.1195L3.71115 15.1204L3.70209 15.1207L3.70656 15.4018Z" fill="#8DDAEB"/>
<path d="M10.2249 17.8218L3.72208 18.2968L3.7073 18.2979L3.69818 18.2984L3.71143 18.579L10.2163 18.104L10.2289 18.1029L10.2382 18.1024L10.2249 17.8218Z" fill="#8DDAEB"/>
<path d="M10.2425 20.9617L10.2204 20.6821L3.69366 21.4767L3.71581 21.7567L10.2425 20.9617Z" fill="#8DDAEB"/>
</svg>
