<svg width="148" height="148" viewBox="0 0 148 148" fill="none" xmlns="http://www.w3.org/2000/svg">
<g clip-path="url(#clip0_97_4)">
<rect width="148" height="148" fill="white"/>
<path d="M31.234 57.7746C31.1629 57.7047 31.0953 57.6347 31.0152 57.5729C30.4862 57.1578 29.8243 56.9421 29.0901 56.9312C29.0733 56.9312 29.0571 56.9254 29.0392 56.9254C29.0166 56.9254 28.9953 56.9343 28.9727 56.9343C28.2995 56.9444 27.6046 57.0765 26.9629 57.4509C25.3028 58.4207 24.6879 60.2929 25.5892 61.633C25.6849 61.7727 25.8384 61.8542 25.9581 61.9712C26.0292 62.0412 26.0977 62.11 26.1769 62.1719C26.7082 62.5869 27.3725 62.8011 28.1078 62.8124C28.1269 62.8136 28.1428 62.8182 28.1619 62.8182C28.1844 62.8182 28.207 62.8101 28.2295 62.8092C28.903 62.7991 29.5956 62.6693 30.235 62.2959C31.8951 61.3261 32.5111 59.4526 31.6009 58.114C31.506 57.9729 31.3523 57.8917 31.234 57.7746ZM29.0054 58.8976C29.0077 59.4324 28.5385 59.87 27.9676 59.8721C27.3901 59.8744 26.9175 59.4402 26.9152 58.9057C26.9131 58.364 27.3832 57.9267 27.961 57.9244C28.5307 57.9223 29.0031 58.3562 29.0054 58.8976Z" fill="#FF9F47"/>
<path d="M147.973 117.172C147.114 108.498 145.416 102.966 142.464 99.2184C140.393 96.594 137.785 94.892 134.265 93.8771C123.663 61.087 108.133 51.0707 102.433 47.6329C104.152 43.2692 107.229 38.8017 110.551 35.8637C112.312 34.314 112.984 31.8567 112.268 29.611C111.552 27.3283 109.552 25.6849 107.182 25.4268C103.408 25.0028 99.8665 24.7972 96.6611 24.8111C82.811 24.8675 75.0086 28.86 67.6413 34.8546C60.2121 33.252 54.2131 32.5143 48.7724 32.5369C37.0235 32.584 27.6046 36.2791 19.1302 44.174C11.6085 51.1687 8.95462 59.2726 8.0276 63.6394C2.38596 67.1539 0.74033 71.3834 0.255572 73.6028C-0.419967 76.7438 0.263377 79.9099 2.08736 82.0787C3.4104 83.6579 6.54124 86.3016 12.689 86.2765C18.1367 86.2539 25.0326 84.1068 33.181 79.8928C34.4395 79.2479 35.8935 78.6996 37.5074 78.2486C38.898 81.692 42.4191 87.4056 51.0551 90.7159C57.5122 93.1949 60.9645 94.0341 62.726 94.3003C62.787 94.3127 62.848 94.3127 62.909 94.3116C63.3362 94.3104 63.7187 94.0714 63.9126 93.6866C64.1054 93.2952 64.067 92.8451 63.81 92.4977C60.0453 87.4527 57.8935 82.6482 57.2338 77.8671C57.1942 77.5592 57.1413 77.2525 57.1142 76.9444C59.4035 77.1057 61.8138 77.3517 64.2985 77.6821C69.5251 81.7076 75.1858 84.536 81.1147 86.0915L83.4145 86.6925L84.4612 86.989L84.4557 86.9653L84.5063 86.9789L84.2887 85.999C84.2887 85.999 83.6625 83.2436 83.4258 82.1935C83.4009 82.0536 83.385 81.9521 83.3749 81.8732C95.5942 85.8883 106.611 92.3003 116.14 100.952C115.941 101.306 115.748 101.685 115.559 102.088C113.638 106.239 113.32 111.871 114.798 115.472C115.579 117.357 117.321 118.649 119.351 118.835C119.528 118.86 119.711 118.864 119.893 118.864C121.74 118.856 123.448 117.929 124.466 116.377L124.896 115.711C125.451 114.851 125.823 114.277 126.189 113.817C126.199 113.807 126.208 113.792 126.217 113.782C127.961 115.316 130.074 116.593 132.52 117.582C135.872 118.951 136.598 119.418 138.514 121.457C139.548 122.563 141.013 123.196 142.536 123.189C143.329 123.186 144.084 123.019 144.783 122.699C146.925 121.728 148.207 119.505 147.973 117.172ZM7.90128 79.0199C8.92282 77.2603 12.6922 71.8647 20.3336 71.8343C21.4728 71.8297 22.6672 71.9459 23.8873 72.1795C24.0272 72.209 24.1793 72.2202 24.3261 72.2202C24.8135 72.2179 25.295 72.0636 25.6954 71.7757C27.2508 70.6243 35.5426 65.8377 44.8215 65.1475C46.6542 65.0064 48.9031 64.9298 51.328 64.9197C51.6023 64.9197 51.8764 64.9174 52.157 64.9229C53.0606 66.2346 54.4195 68.0416 56.1981 70.0604C56.4115 70.313 56.6077 70.5657 56.8242 70.8183C54.5909 70.6772 52.4473 70.6073 50.4316 70.6154C42.028 70.6492 35.2879 71.9506 30.3805 74.4804C23.1013 78.2452 17.1429 80.1648 12.6642 80.1828C10.7639 80.1906 9.20177 79.85 8.01748 79.1777L7.90128 79.0199ZM100.983 80.1498C103.347 82.1336 105.688 84.4019 107.941 86.9859C99.9079 81.7437 91.1605 77.7341 81.8735 75.0398C81.3154 72.4399 80.8673 70.2668 80.5438 68.6833C86.413 70.6897 93.8052 74.1656 100.983 80.1498ZM119.862 113.354C118.706 110.507 119.437 104.208 122.513 101.713C122.529 101.7 122.548 101.685 122.564 101.671C122.753 101.523 122.951 101.393 123.155 101.274C123.424 101.13 123.695 100.995 123.981 100.916C123.977 100.911 123.972 100.907 123.968 100.902C123.983 100.898 123.997 100.889 124.014 100.883C122.203 99.0866 119.59 96.5567 116.129 93.7245L116.123 93.7178C104.718 75.9226 88.7888 68.6255 79.326 65.7325C79.0023 64.1005 78.8219 63.1633 78.8164 63.1396C78.6609 62.3106 77.8599 61.7657 77.032 61.9273C76.3316 62.058 75.8342 62.6581 75.8058 63.3405C75.7948 63.4622 75.8015 63.5839 75.826 63.7059C75.826 63.7238 75.9006 64.1141 76.0437 64.8202C76.1374 65.3255 76.2738 65.9956 76.4363 66.8107C76.8149 68.7168 77.3621 71.4135 78.0455 74.6414C78.3929 76.2905 78.7788 78.0816 79.1948 79.9741C79.283 80.3845 79.3775 80.8074 79.4711 81.2269C79.5061 81.4275 79.5535 81.6102 79.5792 81.8212C76.7337 80.8716 74.1105 79.6376 71.7162 78.2371C71.7162 78.2371 71.7104 78.2371 71.7049 78.2371C68.4737 76.3489 65.6675 74.1734 63.3001 72.026C60.1872 69.1984 57.8423 66.4173 56.2984 64.3884C55.7469 63.6585 55.2991 63.0269 54.9563 62.5286C54.865 62.3887 54.7783 62.2678 54.6924 62.1464C54.3371 61.605 54.1467 61.2891 54.1342 61.2656C53.7058 60.5413 52.7716 60.2956 52.0489 60.7251C51.4477 61.0818 51.1838 61.7865 51.3587 62.4283C51.3621 62.4485 51.3598 62.469 51.3633 62.489C48.8424 62.4924 46.546 62.576 44.6414 62.717C34.8879 63.4455 26.0781 68.4905 24.2981 69.7762C13.2417 67.6828 7.61626 74.9025 6.15678 77.1681C6.06746 77.3069 5.9978 77.4254 5.92322 77.5471L5.7969 77.7095C5.06037 75.887 5.45985 72.7099 8.89276 69.7716C10.3095 68.4587 13.3646 66.8989 18.6001 65.7927C20.8941 65.3088 22.9187 64.5179 22.8464 64.1008C22.7753 63.6946 21.3473 63.0541 18.5209 62.9503C16.5315 62.8769 15.2828 63.2379 14.1268 63.6689C13.9282 63.7342 13.7285 63.7999 13.5325 63.864C14.5587 60.0542 17.2013 53.4618 22.8698 48.1801C30.6519 40.9336 38.9157 38.0612 48.7877 38.0204C54.8624 37.9967 61.5394 39.0422 69.0845 40.8029C75.8009 35.0292 82.3265 30.3533 96.6831 30.2946C99.6269 30.2833 102.905 30.4649 106.581 30.8765C107.008 30.9239 107.242 31.4711 106.921 31.7584C101.995 36.1054 97.3213 43.4736 95.9587 50.1752C101.609 53.6694 118.653 60.9552 129.975 98.5498C133.305 99.1091 136.046 99.9425 138.149 102.612C138.161 102.624 138.17 102.641 138.18 102.654C138.419 102.96 138.649 103.291 138.871 103.648C139.017 103.882 139.153 104.144 139.292 104.402C139.378 104.561 139.467 104.707 139.55 104.874C140.904 107.638 141.901 111.674 142.472 117.662C139.898 114.926 138.419 114.063 134.584 112.503C129.707 110.525 127.232 107.384 126.984 104.789C126.574 107.204 124.759 107.632 123.381 108.843C121.931 110.117 121.204 111.326 120.016 113.155L119.862 113.354Z" fill="#FF9F47"/>
</g>
<defs>
<clipPath id="clip0_97_4">
<rect width="148" height="148" fill="white"/>
</clipPath>
</defs>
</svg>
