<!--?xml version="1.0" encoding="utf-8"?-->
<!-- Generator: Adobe Illustrator 18.0.0, SVG Export Plug-In . SVG Version: 6.00 Build 0)  -->

<svg version="1.1" id="_x31_0" xmlns="http://www.w3.org/2000/svg" xmlns:xlink="http://www.w3.org/1999/xlink" x="0px" y="0px" viewBox="0 0 512 512" style="width: 256px; height: 256px; opacity: 1;" xml:space="preserve">
<style type="text/css">
	.st0{fill:#374149;}
</style>
<g>
	<path class="st0" d="M256,0C114.617,0,0,114.617,0,256c0,141.386,114.617,256,256,256c141.386,0,256-114.614,256-256
		C512,114.617,397.386,0,256,0z M284.125,412.16c0,2.293-1.859,4.153-4.152,4.153h-47.954c-2.293,0-4.152-1.86-4.152-4.153v-47.953
		c0-2.293,1.859-4.153,4.152-4.153h47.954c2.293,0,4.152,1.86,4.152,4.153V412.16z M273.942,313.27h-35.629L220.898,99.176
		c-0.34-4.168,2.156-7.711,5.457-7.711h59.29c3.297,0,5.793,3.535,5.457,7.699L273.942,313.27z" style="fill: rgb(255, 255, 255);"></path>
</g>
</svg>
