<svg width="30" height="31" viewBox="0 0 30 31" fill="none" xmlns="http://www.w3.org/2000/svg">
<g clip-path="url(#clip0_462_17)">
<path fill-rule="evenodd" clip-rule="evenodd" d="M14.9553 0.518555C6.68541 0.518555 0 7.39355 0 15.8989C0 22.6976 4.28357 28.4526 10.226 30.4895C10.969 30.6426 11.2411 30.1586 11.2411 29.7514C11.2411 29.3948 11.2166 28.1726 11.2166 26.8992C7.05643 27.8161 6.1901 25.0657 6.1901 25.0657C5.52153 23.2832 4.53092 22.8251 4.53092 22.8251C3.16929 21.8829 4.6301 21.8829 4.6301 21.8829C6.14051 21.9848 6.93306 23.4617 6.93306 23.4617C8.2699 25.8042 10.4241 25.1423 11.2907 24.7348C11.4144 23.7417 11.8108 23.0542 12.2317 22.6723C8.91367 22.3157 5.42265 20.9917 5.42265 15.0839C5.42265 13.4032 6.01653 12.0282 6.95755 10.9589C6.80908 10.577 6.28898 8.99793 7.10633 6.88449C7.10633 6.88449 8.36908 6.47699 11.2163 8.46324C12.4353 8.12657 13.6925 7.95531 14.9553 7.95387C16.2181 7.95387 17.5053 8.1323 18.694 8.46324C21.5415 6.47699 22.8043 6.88449 22.8043 6.88449C23.6216 8.99793 23.1012 10.577 22.9528 10.9589C23.9186 12.0282 24.488 13.4032 24.488 15.0839C24.488 20.9917 20.9969 22.2901 17.6541 22.6723C18.199 23.1561 18.6692 24.0726 18.6692 25.5242C18.6692 27.5867 18.6447 29.242 18.6447 29.7511C18.6447 30.1586 18.9171 30.6426 19.6598 30.4898C25.6022 28.4523 29.8858 22.6976 29.8858 15.8989C29.9103 7.39355 23.2004 0.518555 14.9553 0.518555Z" fill="#24292F"/>
</g>
<defs>
<clipPath id="clip0_462_17">
<rect width="30" height="30" fill="white" transform="translate(0 0.518555)"/>
</clipPath>
</defs>
</svg>
