<svg width="30" height="31" viewBox="0 0 30 31" fill="none" xmlns="http://www.w3.org/2000/svg">
<path d="M28.2 15.7939C28.2 14.8189 28.1125 13.8814 27.95 12.9814H15V18.3064H22.4C22.075 20.0189 21.1 21.4689 19.6375 22.4439V25.9064H24.1C26.7 23.5064 28.2 19.9814 28.2 15.7939Z" fill="#4285F4"/>
<path d="M15 29.2314C18.7125 29.2314 21.825 28.0064 24.1 25.9064L19.6375 22.4439C18.4125 23.2689 16.85 23.7689 15 23.7689C11.425 23.7689 8.38748 21.3564 7.29998 18.1064H2.72498V21.6564C4.98748 26.1439 9.62498 29.2314 15 29.2314Z" fill="#34A853"/>
<path d="M7.3 18.0943C7.025 17.2693 6.8625 16.3943 6.8625 15.4818C6.8625 14.5693 7.025 13.6943 7.3 12.8693V9.31934H2.725C1.7875 11.1693 1.25 13.2568 1.25 15.4818C1.25 17.7068 1.7875 19.7943 2.725 21.6443L6.2875 18.8693L7.3 18.0943Z" fill="#FBBC05"/>
<path d="M15 7.20645C17.025 7.20645 18.825 7.90645 20.2625 9.25645L24.2 5.31895C21.8125 3.09395 18.7125 1.73145 15 1.73145C9.62498 1.73145 4.98748 4.81895 2.72498 9.31895L7.29998 12.8689C8.38748 9.61895 11.425 7.20645 15 7.20645Z" fill="#EA4335"/>
</svg>
