<svg width="130" height="130" viewBox="0 0 130 130" fill="none" xmlns="http://www.w3.org/2000/svg">
<path d="M59.2813 96.6286V64.9574L59.308 44.3548L59.2813 44.3777V44.3235L32.5188 67.646V96.4992L32.5178 96.5873H32.5188V96.6286H59.2813Z" fill="#FF9F47"/>
<path d="M88.9266 96.6287V67.2729L74.5324 53.6643L64.7402 44.3677V44.4059L64.6996 44.3677V96.4278L64.6986 96.5873H64.6996V96.6287H88.9266Z" fill="#FF9F47"/>
<path d="M94.344 66.8344V96.6286H121.195V62.3059L121.225 36.9861L121.195 37.0202V36.9591L94.344 66.8344Z" fill="#FF9F47"/>
<path d="M32.5258 54.8523C37.378 54.8523 41.3224 50.8626 41.3224 45.9548C41.3224 44.5253 40.9911 43.1829 40.3802 41.9831L57.1517 27.3834C58.583 28.3896 60.2938 28.9726 62.1613 28.9726C63.8533 28.9726 65.4422 28.4779 66.7862 27.6302L83.9774 43.8892C83.2792 45.1604 82.8953 46.6079 82.8953 48.1436C82.8953 53.0515 86.8397 57.0412 91.6906 57.0412C96.5427 57.0412 100.487 53.0515 100.487 48.1436C100.487 46.3259 99.9466 44.6124 99.0033 43.2009L116.806 23.4117C118.097 24.188 119.599 24.6126 121.187 24.6126C126.039 24.6126 130 20.6218 130 15.715C130 10.8075 126.038 6.7998 121.187 6.7998C116.335 6.7998 112.39 10.8077 112.39 15.715C112.39 17.4095 112.861 18.9987 113.682 20.3398L95.7754 40.2706C94.5534 39.6175 93.1749 39.2464 91.6911 39.2464C89.9287 39.2464 88.2882 39.7759 86.9095 40.6769L69.8056 24.4883C70.5387 23.1821 70.9751 21.6643 70.9751 20.0571C70.9751 15.1503 67.0127 11.1606 62.1618 11.1606C57.3099 11.1606 53.3655 15.1503 53.3655 20.0571C53.3655 21.5048 53.6968 22.8652 54.3255 24.065L37.5707 38.6467C36.1394 37.6405 34.3938 37.0406 32.5264 37.0406C27.6742 37.0406 23.713 41.0475 23.713 45.955C23.713 50.8626 27.6737 54.8523 32.5258 54.8523Z" fill="#FF9F47"/>
<path d="M18.3349 111.455V0H6.85856V9.96974V111.455V122.952L6.85754 123.023H6.85856V123.063H16.3036H20.4712H20.5129H128.525V111.455H18.3349Z" fill="#FF9F47"/>
<path d="M113.484 123.077H113.443L113.444 129.999L118.668 130L118.667 123.078L113.484 123.077Z" fill="#FF9F47"/>
<path d="M20.4712 123.063L20.4722 129.985L25.6971 129.986L25.6961 123.126V123.105V123.064L20.5128 123.063H20.4712Z" fill="#FF9F47"/>
<path d="M56.6866 123.11V123.069L51.5033 123.068H51.4617L51.4624 129.99L56.6876 129.991L56.6866 123.151V123.11Z" fill="#FF9F47"/>
<path d="M87.6772 123.115V123.073H82.4937H82.452L82.453 129.994L87.6782 129.995L87.6772 123.135V123.115Z" fill="#FF9F47"/>
<path d="M0.00101563 104.009L0 109.294L6.84353 109.293L6.84455 104.05V104.049V104.008L0.00101563 104.009Z" fill="#FF9F47"/>
<path d="M0.0136719 15.2558L6.85746 15.2548L6.85848 9.96973L0.0146875 9.97075L0.0136719 15.2558Z" fill="#FF9F47"/>
<path d="M0.0101318 46.6016L6.85265 46.6006L6.85367 41.316L0.0101318 41.3171V46.6016Z" fill="#FF9F47"/>
<path d="M0.00589844 72.663L0.00488281 77.9478L6.84867 77.9468L6.84969 72.7041V72.7031V72.662L0.00589844 72.663Z" fill="#FF9F47"/>
</svg>
