<svg width="100" height="100" viewBox="0 0 100 100" fill="none" xmlns="http://www.w3.org/2000/svg">
<rect width="100" height="100" fill="white"/>
<path d="M26.8223 38.9355V40H22.3789V33.418C22.3789 32.6107 22.265 31.9596 22.0371 31.4648C21.8158 30.9701 21.3958 30.7227 20.7773 30.7227C20.3346 30.7227 19.9863 30.8691 19.7324 31.1621C19.4785 31.4551 19.2995 31.8392 19.1953 32.3145C19.0911 32.7832 19.0391 33.2845 19.0391 33.8184V37.6367C19.0391 38.1706 19.1628 38.5221 19.4102 38.6914C19.6576 38.8542 20.0156 38.9355 20.4844 38.9355H20.543V40H14.4004V38.9355H14.4395C14.9342 38.9355 15.3184 38.8509 15.5918 38.6816C15.8652 38.5059 16.002 38.1315 16.002 37.5586V27.0801C16.002 26.5918 15.8522 26.2663 15.5527 26.1035C15.2533 25.9408 14.9277 25.8594 14.5762 25.8594H14.3418V24.8047H19.0391V28.0957C19.0391 28.3561 19.0293 28.6361 19.0098 28.9355C18.9967 29.235 18.9805 29.5117 18.9609 29.7656C18.9479 29.9154 18.9349 30.0651 18.9219 30.2148C18.9089 30.3581 18.8958 30.5013 18.8828 30.6445H19.0586C19.4427 29.9284 19.8757 29.4792 20.3574 29.2969C20.8457 29.1146 21.4316 29.0234 22.1152 29.0234C22.6296 29.0234 23.0918 29.0983 23.502 29.248C23.9186 29.3978 24.2669 29.6289 24.5469 29.9414C24.8333 30.2539 25.0482 30.6543 25.1914 31.1426C25.3411 31.6243 25.416 32.2038 25.416 32.8809V37.5195C25.416 38.099 25.5169 38.4798 25.7188 38.6621C25.9271 38.8444 26.2754 38.9355 26.7637 38.9355H26.8223ZM37.5352 38.9355V40H29.2832V38.9355H30.9238C31.2884 38.9355 31.5456 38.8346 31.6953 38.6328C31.8451 38.431 31.9199 38.099 31.9199 37.6367V27.6172C31.4837 28.1576 31.0508 28.6393 30.6211 29.0625C30.1914 29.4857 29.765 29.6973 29.3418 29.6973C29.0033 29.6973 28.7233 29.5573 28.502 29.2773C28.2871 28.9974 28.1797 28.6458 28.1797 28.2227C28.6484 28.099 29.127 27.9199 29.6152 27.6855C30.1035 27.4512 30.6504 27.1159 31.2559 26.6797L32.6621 25.6445H34.8984V37.6367C34.8984 38.0664 34.9668 38.3919 35.1035 38.6133C35.2402 38.8281 35.5137 38.9355 35.9238 38.9355H37.5352Z" fill="black"/>
<path d="M16.6514 63.5703C16.7718 63.5703 16.8825 63.5638 16.9834 63.5508C17.0843 63.5378 17.1868 63.5215 17.291 63.502V63.9414C17.1999 63.9837 17.0648 64.0195 16.8857 64.0488C16.71 64.0814 16.5488 64.0977 16.4023 64.0977C15.8913 64.0977 15.5234 63.9837 15.2988 63.7559C15.0677 63.5215 14.9521 63.1195 14.9521 62.5498V59.21H14.1904V58.8096C14.3109 58.8096 14.4427 58.7852 14.5859 58.7363C14.7324 58.6875 14.861 58.6061 14.9717 58.4922C15.0856 58.3685 15.1768 58.222 15.2451 58.0527C15.3167 57.8802 15.3786 57.6654 15.4307 57.4082H15.8896V58.6387H17.1982V59.21H15.8896V62.5791C15.8896 62.9209 15.958 63.1715 16.0947 63.3311C16.2347 63.4906 16.4202 63.5703 16.6514 63.5703ZM20.3965 64.0977C19.6641 64.0977 19.096 63.8584 18.6924 63.3799C18.4938 63.1455 18.3408 62.859 18.2334 62.5205C18.1292 62.1787 18.0771 61.7913 18.0771 61.3584C18.0771 60.4242 18.2692 59.721 18.6533 59.249C19.0374 58.777 19.5843 58.541 20.2939 58.541C20.9548 58.541 21.4626 58.7412 21.8174 59.1416C21.9964 59.3402 22.1331 59.5892 22.2275 59.8887C22.3252 60.1882 22.374 60.5348 22.374 60.9287V61.3877H19.0439C19.057 62.1104 19.1904 62.6393 19.4443 62.9746C19.6885 63.3034 20.0514 63.4678 20.5332 63.4678C20.849 63.4678 21.1338 63.401 21.3877 63.2676C21.6449 63.1341 21.8369 62.9681 21.9639 62.7695C22.0094 62.7891 22.0518 62.8298 22.0908 62.8916C22.1331 62.9535 22.1543 63.0267 22.1543 63.1113C22.1543 63.2122 22.1185 63.3213 22.0469 63.4385C21.9753 63.5524 21.8662 63.6582 21.7197 63.7559C21.5732 63.8535 21.3893 63.9349 21.168 64C20.9499 64.0651 20.6927 64.0977 20.3965 64.0977ZM20.2744 59.0781C19.9033 59.0781 19.6169 59.2295 19.415 59.5322C19.2165 59.8317 19.0993 60.2712 19.0635 60.8506H21.3633C21.3633 60.5869 21.3438 60.346 21.3047 60.1279C21.2656 59.9098 21.2038 59.7227 21.1191 59.5664C21.0345 59.4102 20.9222 59.2897 20.7822 59.2051C20.6455 59.1204 20.4762 59.0781 20.2744 59.0781ZM26.7148 59.3516C26.7148 59.2311 26.6628 59.153 26.5586 59.1172C26.4577 59.0781 26.3307 59.0586 26.1777 59.0586H26.1484V58.6387H28.3359V59.0586H28.248C28.0299 59.0586 27.8525 59.1042 27.7158 59.1953C27.5791 59.2865 27.4196 59.4541 27.2373 59.6982L26.207 61.0703L27.6768 63.0479C27.8232 63.2432 27.9616 63.3815 28.0918 63.4629C28.2253 63.541 28.3538 63.5801 28.4775 63.5801H28.6094V64H26.0264V63.5801H26.0752C26.4756 63.5801 26.6758 63.4694 26.6758 63.248C26.6758 63.1634 26.6432 63.0706 26.5781 62.9697C26.5163 62.8656 26.4219 62.7288 26.2949 62.5596L25.626 61.6611L24.9277 62.6377C24.8659 62.7191 24.8057 62.82 24.7471 62.9404C24.6885 63.0576 24.6592 63.1667 24.6592 63.2676C24.6592 63.3815 24.7064 63.4629 24.8008 63.5117C24.8952 63.5573 25.0547 63.5801 25.2793 63.5801H25.3086V64H22.9258V63.5801H23.0186C23.2692 63.5801 23.4661 63.5329 23.6094 63.4385C23.7559 63.3441 23.9219 63.1781 24.1074 62.9404L25.3672 61.3096L24.1074 59.5908C23.9609 59.4183 23.8177 59.2865 23.6777 59.1953C23.541 59.1042 23.3978 59.0586 23.248 59.0586H23.1162V58.6387H25.6553V59.0586H25.626C25.2451 59.0586 25.0547 59.1562 25.0547 59.3516C25.0547 59.4199 25.0742 59.4883 25.1133 59.5566C25.1556 59.6217 25.2142 59.7064 25.2891 59.8105L25.9482 60.709L26.4658 59.9619C26.5407 59.848 26.6009 59.7406 26.6465 59.6396C26.6921 59.5387 26.7148 59.4427 26.7148 59.3516ZM31.3096 63.5703C31.43 63.5703 31.5407 63.5638 31.6416 63.5508C31.7425 63.5378 31.8451 63.5215 31.9492 63.502V63.9414C31.8581 63.9837 31.723 64.0195 31.5439 64.0488C31.3682 64.0814 31.207 64.0977 31.0605 64.0977C30.5495 64.0977 30.1816 63.9837 29.957 63.7559C29.7259 63.5215 29.6104 63.1195 29.6104 62.5498V59.21H28.8486V58.8096C28.9691 58.8096 29.1009 58.7852 29.2441 58.7363C29.3906 58.6875 29.5192 58.6061 29.6299 58.4922C29.7438 58.3685 29.835 58.222 29.9033 58.0527C29.9749 57.8802 30.0368 57.6654 30.0889 57.4082H30.5479V58.6387H31.8564V59.21H30.5479V62.5791C30.5479 62.9209 30.6162 63.1715 30.7529 63.3311C30.8929 63.4906 31.0785 63.5703 31.3096 63.5703ZM37.4326 63.5703C37.5531 63.5703 37.6637 63.5638 37.7646 63.5508C37.8656 63.5378 37.9681 63.5215 38.0723 63.502V63.9414C37.9811 63.9837 37.846 64.0195 37.667 64.0488C37.4912 64.0814 37.3301 64.0977 37.1836 64.0977C36.6725 64.0977 36.3047 63.9837 36.0801 63.7559C35.849 63.5215 35.7334 63.1195 35.7334 62.5498V59.21H34.9717V58.8096C35.0921 58.8096 35.224 58.7852 35.3672 58.7363C35.5137 58.6875 35.6423 58.6061 35.7529 58.4922C35.8669 58.3685 35.958 58.222 36.0264 58.0527C36.098 57.8802 36.1598 57.6654 36.2119 57.4082H36.6709V58.6387H37.9795V59.21H36.6709V62.5791C36.6709 62.9209 36.7393 63.1715 36.876 63.3311C37.016 63.4906 37.2015 63.5703 37.4326 63.5703ZM41.1777 64.0977C40.4453 64.0977 39.8773 63.8584 39.4736 63.3799C39.2751 63.1455 39.1221 62.859 39.0146 62.5205C38.9105 62.1787 38.8584 61.7913 38.8584 61.3584C38.8584 60.4242 39.0505 59.721 39.4346 59.249C39.8187 58.777 40.3656 58.541 41.0752 58.541C41.736 58.541 42.2438 58.7412 42.5986 59.1416C42.7777 59.3402 42.9144 59.5892 43.0088 59.8887C43.1064 60.1882 43.1553 60.5348 43.1553 60.9287V61.3877H39.8252C39.8382 62.1104 39.9717 62.6393 40.2256 62.9746C40.4697 63.3034 40.8327 63.4678 41.3145 63.4678C41.6302 63.4678 41.915 63.401 42.1689 63.2676C42.4261 63.1341 42.6182 62.9681 42.7451 62.7695C42.7907 62.7891 42.833 62.8298 42.8721 62.8916C42.9144 62.9535 42.9355 63.0267 42.9355 63.1113C42.9355 63.2122 42.8997 63.3213 42.8281 63.4385C42.7565 63.5524 42.6475 63.6582 42.501 63.7559C42.3545 63.8535 42.1706 63.9349 41.9492 64C41.7311 64.0651 41.474 64.0977 41.1777 64.0977ZM41.0557 59.0781C40.6846 59.0781 40.3981 59.2295 40.1963 59.5322C39.9977 59.8317 39.8805 60.2712 39.8447 60.8506H42.1445C42.1445 60.5869 42.125 60.346 42.0859 60.1279C42.0469 59.9098 41.985 59.7227 41.9004 59.5664C41.8158 59.4102 41.7035 59.2897 41.5635 59.2051C41.4268 59.1204 41.2575 59.0781 41.0557 59.0781ZM47.4961 59.3516C47.4961 59.2311 47.444 59.153 47.3398 59.1172C47.2389 59.0781 47.112 59.0586 46.959 59.0586H46.9297V58.6387H49.1172V59.0586H49.0293C48.8112 59.0586 48.6338 59.1042 48.4971 59.1953C48.3604 59.2865 48.2008 59.4541 48.0186 59.6982L46.9883 61.0703L48.458 63.0479C48.6045 63.2432 48.7428 63.3815 48.873 63.4629C49.0065 63.541 49.1351 63.5801 49.2588 63.5801H49.3906V64H46.8076V63.5801H46.8564C47.2568 63.5801 47.457 63.4694 47.457 63.248C47.457 63.1634 47.4245 63.0706 47.3594 62.9697C47.2975 62.8656 47.2031 62.7288 47.0762 62.5596L46.4072 61.6611L45.709 62.6377C45.6471 62.7191 45.5869 62.82 45.5283 62.9404C45.4697 63.0576 45.4404 63.1667 45.4404 63.2676C45.4404 63.3815 45.4876 63.4629 45.582 63.5117C45.6764 63.5573 45.8359 63.5801 46.0605 63.5801H46.0898V64H43.707V63.5801H43.7998C44.0505 63.5801 44.2474 63.5329 44.3906 63.4385C44.5371 63.3441 44.7031 63.1781 44.8887 62.9404L46.1484 61.3096L44.8887 59.5908C44.7422 59.4183 44.599 59.2865 44.459 59.1953C44.3223 59.1042 44.179 59.0586 44.0293 59.0586H43.8975V58.6387H46.4365V59.0586H46.4072C46.0264 59.0586 45.8359 59.1562 45.8359 59.3516C45.8359 59.4199 45.8555 59.4883 45.8945 59.5566C45.9368 59.6217 45.9954 59.7064 46.0703 59.8105L46.7295 60.709L47.2471 59.9619C47.3219 59.848 47.3822 59.7406 47.4277 59.6396C47.4733 59.5387 47.4961 59.4427 47.4961 59.3516ZM52.0908 63.5703C52.2113 63.5703 52.3219 63.5638 52.4229 63.5508C52.5238 63.5378 52.6263 63.5215 52.7305 63.502V63.9414C52.6393 63.9837 52.5042 64.0195 52.3252 64.0488C52.1494 64.0814 51.9883 64.0977 51.8418 64.0977C51.3307 64.0977 50.9629 63.9837 50.7383 63.7559C50.5072 63.5215 50.3916 63.1195 50.3916 62.5498V59.21H49.6299V58.8096C49.7503 58.8096 49.8822 58.7852 50.0254 58.7363C50.1719 58.6875 50.3005 58.6061 50.4111 58.4922C50.5251 58.3685 50.6162 58.222 50.6846 58.0527C50.7562 57.8802 50.818 57.6654 50.8701 57.4082H51.3291V58.6387H52.6377V59.21H51.3291V62.5791C51.3291 62.9209 51.3975 63.1715 51.5342 63.3311C51.6742 63.4906 51.8597 63.5703 52.0908 63.5703ZM58.2139 63.5703C58.3343 63.5703 58.445 63.5638 58.5459 63.5508C58.6468 63.5378 58.7493 63.5215 58.8535 63.502V63.9414C58.7624 63.9837 58.6273 64.0195 58.4482 64.0488C58.2725 64.0814 58.1113 64.0977 57.9648 64.0977C57.4538 64.0977 57.0859 63.9837 56.8613 63.7559C56.6302 63.5215 56.5146 63.1195 56.5146 62.5498V59.21H55.7529V58.8096C55.8734 58.8096 56.0052 58.7852 56.1484 58.7363C56.2949 58.6875 56.4235 58.6061 56.5342 58.4922C56.6481 58.3685 56.7393 58.222 56.8076 58.0527C56.8792 57.8802 56.9411 57.6654 56.9932 57.4082H57.4521V58.6387H58.7607V59.21H57.4521V62.5791C57.4521 62.9209 57.5205 63.1715 57.6572 63.3311C57.7972 63.4906 57.9827 63.5703 58.2139 63.5703ZM61.959 64.0977C61.2266 64.0977 60.6585 63.8584 60.2549 63.3799C60.0563 63.1455 59.9033 62.859 59.7959 62.5205C59.6917 62.1787 59.6396 61.7913 59.6396 61.3584C59.6396 60.4242 59.8317 59.721 60.2158 59.249C60.5999 58.777 61.1468 58.541 61.8564 58.541C62.5173 58.541 63.0251 58.7412 63.3799 59.1416C63.5589 59.3402 63.6956 59.5892 63.79 59.8887C63.8877 60.1882 63.9365 60.5348 63.9365 60.9287V61.3877H60.6064C60.6195 62.1104 60.7529 62.6393 61.0068 62.9746C61.251 63.3034 61.6139 63.4678 62.0957 63.4678C62.4115 63.4678 62.6963 63.401 62.9502 63.2676C63.2074 63.1341 63.3994 62.9681 63.5264 62.7695C63.5719 62.7891 63.6143 62.8298 63.6533 62.8916C63.6956 62.9535 63.7168 63.0267 63.7168 63.1113C63.7168 63.2122 63.681 63.3213 63.6094 63.4385C63.5378 63.5524 63.4287 63.6582 63.2822 63.7559C63.1357 63.8535 62.9518 63.9349 62.7305 64C62.5124 64.0651 62.2552 64.0977 61.959 64.0977ZM61.8369 59.0781C61.4658 59.0781 61.1794 59.2295 60.9775 59.5322C60.779 59.8317 60.6618 60.2712 60.626 60.8506H62.9258C62.9258 60.5869 62.9062 60.346 62.8672 60.1279C62.8281 59.9098 62.7663 59.7227 62.6816 59.5664C62.597 59.4102 62.4847 59.2897 62.3447 59.2051C62.208 59.1204 62.0387 59.0781 61.8369 59.0781ZM68.2773 59.3516C68.2773 59.2311 68.2253 59.153 68.1211 59.1172C68.0202 59.0781 67.8932 59.0586 67.7402 59.0586H67.7109V58.6387H69.8984V59.0586H69.8105C69.5924 59.0586 69.415 59.1042 69.2783 59.1953C69.1416 59.2865 68.9821 59.4541 68.7998 59.6982L67.7695 61.0703L69.2393 63.0479C69.3857 63.2432 69.5241 63.3815 69.6543 63.4629C69.7878 63.541 69.9163 63.5801 70.04 63.5801H70.1719V64H67.5889V63.5801H67.6377C68.0381 63.5801 68.2383 63.4694 68.2383 63.248C68.2383 63.1634 68.2057 63.0706 68.1406 62.9697C68.0788 62.8656 67.9844 62.7288 67.8574 62.5596L67.1885 61.6611L66.4902 62.6377C66.4284 62.7191 66.3682 62.82 66.3096 62.9404C66.251 63.0576 66.2217 63.1667 66.2217 63.2676C66.2217 63.3815 66.2689 63.4629 66.3633 63.5117C66.4577 63.5573 66.6172 63.5801 66.8418 63.5801H66.8711V64H64.4883V63.5801H64.5811C64.8317 63.5801 65.0286 63.5329 65.1719 63.4385C65.3184 63.3441 65.4844 63.1781 65.6699 62.9404L66.9297 61.3096L65.6699 59.5908C65.5234 59.4183 65.3802 59.2865 65.2402 59.1953C65.1035 59.1042 64.9603 59.0586 64.8105 59.0586H64.6787V58.6387H67.2178V59.0586H67.1885C66.8076 59.0586 66.6172 59.1562 66.6172 59.3516C66.6172 59.4199 66.6367 59.4883 66.6758 59.5566C66.7181 59.6217 66.7767 59.7064 66.8516 59.8105L67.5107 60.709L68.0283 59.9619C68.1032 59.848 68.1634 59.7406 68.209 59.6396C68.2546 59.5387 68.2773 59.4427 68.2773 59.3516ZM72.8721 63.5703C72.9925 63.5703 73.1032 63.5638 73.2041 63.5508C73.305 63.5378 73.4076 63.5215 73.5117 63.502V63.9414C73.4206 63.9837 73.2855 64.0195 73.1064 64.0488C72.9307 64.0814 72.7695 64.0977 72.623 64.0977C72.112 64.0977 71.7441 63.9837 71.5195 63.7559C71.2884 63.5215 71.1729 63.1195 71.1729 62.5498V59.21H70.4111V58.8096C70.5316 58.8096 70.6634 58.7852 70.8066 58.7363C70.9531 58.6875 71.0817 58.6061 71.1924 58.4922C71.3063 58.3685 71.3975 58.222 71.4658 58.0527C71.5374 57.8802 71.5993 57.6654 71.6514 57.4082H72.1104V58.6387H73.4189V59.21H72.1104V62.5791C72.1104 62.9209 72.1787 63.1715 72.3154 63.3311C72.4554 63.4906 72.641 63.5703 72.8721 63.5703ZM16.6514 76.5703C16.7718 76.5703 16.8825 76.5638 16.9834 76.5508C17.0843 76.5378 17.1868 76.5215 17.291 76.502V76.9414C17.1999 76.9837 17.0648 77.0195 16.8857 77.0488C16.71 77.0814 16.5488 77.0977 16.4023 77.0977C15.8913 77.0977 15.5234 76.9837 15.2988 76.7559C15.0677 76.5215 14.9521 76.1195 14.9521 75.5498V72.21H14.1904V71.8096C14.3109 71.8096 14.4427 71.7852 14.5859 71.7363C14.7324 71.6875 14.861 71.6061 14.9717 71.4922C15.0856 71.3685 15.1768 71.222 15.2451 71.0527C15.3167 70.8802 15.3786 70.6654 15.4307 70.4082H15.8896V71.6387H17.1982V72.21H15.8896V75.5791C15.8896 75.9209 15.958 76.1715 16.0947 76.3311C16.2347 76.4906 16.4202 76.5703 16.6514 76.5703ZM20.3965 77.0977C19.6641 77.0977 19.096 76.8584 18.6924 76.3799C18.4938 76.1455 18.3408 75.859 18.2334 75.5205C18.1292 75.1787 18.0771 74.7913 18.0771 74.3584C18.0771 73.4242 18.2692 72.721 18.6533 72.249C19.0374 71.777 19.5843 71.541 20.2939 71.541C20.9548 71.541 21.4626 71.7412 21.8174 72.1416C21.9964 72.3402 22.1331 72.5892 22.2275 72.8887C22.3252 73.1882 22.374 73.5348 22.374 73.9287V74.3877H19.0439C19.057 75.1104 19.1904 75.6393 19.4443 75.9746C19.6885 76.3034 20.0514 76.4678 20.5332 76.4678C20.849 76.4678 21.1338 76.401 21.3877 76.2676C21.6449 76.1341 21.8369 75.9681 21.9639 75.7695C22.0094 75.7891 22.0518 75.8298 22.0908 75.8916C22.1331 75.9535 22.1543 76.0267 22.1543 76.1113C22.1543 76.2122 22.1185 76.3213 22.0469 76.4385C21.9753 76.5524 21.8662 76.6582 21.7197 76.7559C21.5732 76.8535 21.3893 76.9349 21.168 77C20.9499 77.0651 20.6927 77.0977 20.3965 77.0977ZM20.2744 72.0781C19.9033 72.0781 19.6169 72.2295 19.415 72.5322C19.2165 72.8317 19.0993 73.2712 19.0635 73.8506H21.3633C21.3633 73.5869 21.3438 73.346 21.3047 73.1279C21.2656 72.9098 21.2038 72.7227 21.1191 72.5664C21.0345 72.4102 20.9222 72.2897 20.7822 72.2051C20.6455 72.1204 20.4762 72.0781 20.2744 72.0781ZM26.7148 72.3516C26.7148 72.2311 26.6628 72.153 26.5586 72.1172C26.4577 72.0781 26.3307 72.0586 26.1777 72.0586H26.1484V71.6387H28.3359V72.0586H28.248C28.0299 72.0586 27.8525 72.1042 27.7158 72.1953C27.5791 72.2865 27.4196 72.4541 27.2373 72.6982L26.207 74.0703L27.6768 76.0479C27.8232 76.2432 27.9616 76.3815 28.0918 76.4629C28.2253 76.541 28.3538 76.5801 28.4775 76.5801H28.6094V77H26.0264V76.5801H26.0752C26.4756 76.5801 26.6758 76.4694 26.6758 76.248C26.6758 76.1634 26.6432 76.0706 26.5781 75.9697C26.5163 75.8656 26.4219 75.7288 26.2949 75.5596L25.626 74.6611L24.9277 75.6377C24.8659 75.7191 24.8057 75.82 24.7471 75.9404C24.6885 76.0576 24.6592 76.1667 24.6592 76.2676C24.6592 76.3815 24.7064 76.4629 24.8008 76.5117C24.8952 76.5573 25.0547 76.5801 25.2793 76.5801H25.3086V77H22.9258V76.5801H23.0186C23.2692 76.5801 23.4661 76.5329 23.6094 76.4385C23.7559 76.3441 23.9219 76.1781 24.1074 75.9404L25.3672 74.3096L24.1074 72.5908C23.9609 72.4183 23.8177 72.2865 23.6777 72.1953C23.541 72.1042 23.3978 72.0586 23.248 72.0586H23.1162V71.6387H25.6553V72.0586H25.626C25.2451 72.0586 25.0547 72.1562 25.0547 72.3516C25.0547 72.4199 25.0742 72.4883 25.1133 72.5566C25.1556 72.6217 25.2142 72.7064 25.2891 72.8105L25.9482 73.709L26.4658 72.9619C26.5407 72.848 26.6009 72.7406 26.6465 72.6396C26.6921 72.5387 26.7148 72.4427 26.7148 72.3516ZM31.3096 76.5703C31.43 76.5703 31.5407 76.5638 31.6416 76.5508C31.7425 76.5378 31.8451 76.5215 31.9492 76.502V76.9414C31.8581 76.9837 31.723 77.0195 31.5439 77.0488C31.3682 77.0814 31.207 77.0977 31.0605 77.0977C30.5495 77.0977 30.1816 76.9837 29.957 76.7559C29.7259 76.5215 29.6104 76.1195 29.6104 75.5498V72.21H28.8486V71.8096C28.9691 71.8096 29.1009 71.7852 29.2441 71.7363C29.3906 71.6875 29.5192 71.6061 29.6299 71.4922C29.7438 71.3685 29.835 71.222 29.9033 71.0527C29.9749 70.8802 30.0368 70.6654 30.0889 70.4082H30.5479V71.6387H31.8564V72.21H30.5479V75.5791C30.5479 75.9209 30.6162 76.1715 30.7529 76.3311C30.8929 76.4906 31.0785 76.5703 31.3096 76.5703ZM37.4326 76.5703C37.5531 76.5703 37.6637 76.5638 37.7646 76.5508C37.8656 76.5378 37.9681 76.5215 38.0723 76.502V76.9414C37.9811 76.9837 37.846 77.0195 37.667 77.0488C37.4912 77.0814 37.3301 77.0977 37.1836 77.0977C36.6725 77.0977 36.3047 76.9837 36.0801 76.7559C35.849 76.5215 35.7334 76.1195 35.7334 75.5498V72.21H34.9717V71.8096C35.0921 71.8096 35.224 71.7852 35.3672 71.7363C35.5137 71.6875 35.6423 71.6061 35.7529 71.4922C35.8669 71.3685 35.958 71.222 36.0264 71.0527C36.098 70.8802 36.1598 70.6654 36.2119 70.4082H36.6709V71.6387H37.9795V72.21H36.6709V75.5791C36.6709 75.9209 36.7393 76.1715 36.876 76.3311C37.016 76.4906 37.2015 76.5703 37.4326 76.5703ZM41.1777 77.0977C40.4453 77.0977 39.8773 76.8584 39.4736 76.3799C39.2751 76.1455 39.1221 75.859 39.0146 75.5205C38.9105 75.1787 38.8584 74.7913 38.8584 74.3584C38.8584 73.4242 39.0505 72.721 39.4346 72.249C39.8187 71.777 40.3656 71.541 41.0752 71.541C41.736 71.541 42.2438 71.7412 42.5986 72.1416C42.7777 72.3402 42.9144 72.5892 43.0088 72.8887C43.1064 73.1882 43.1553 73.5348 43.1553 73.9287V74.3877H39.8252C39.8382 75.1104 39.9717 75.6393 40.2256 75.9746C40.4697 76.3034 40.8327 76.4678 41.3145 76.4678C41.6302 76.4678 41.915 76.401 42.1689 76.2676C42.4261 76.1341 42.6182 75.9681 42.7451 75.7695C42.7907 75.7891 42.833 75.8298 42.8721 75.8916C42.9144 75.9535 42.9355 76.0267 42.9355 76.1113C42.9355 76.2122 42.8997 76.3213 42.8281 76.4385C42.7565 76.5524 42.6475 76.6582 42.501 76.7559C42.3545 76.8535 42.1706 76.9349 41.9492 77C41.7311 77.0651 41.474 77.0977 41.1777 77.0977ZM41.0557 72.0781C40.6846 72.0781 40.3981 72.2295 40.1963 72.5322C39.9977 72.8317 39.8805 73.2712 39.8447 73.8506H42.1445C42.1445 73.5869 42.125 73.346 42.0859 73.1279C42.0469 72.9098 41.985 72.7227 41.9004 72.5664C41.8158 72.4102 41.7035 72.2897 41.5635 72.2051C41.4268 72.1204 41.2575 72.0781 41.0557 72.0781ZM47.4961 72.3516C47.4961 72.2311 47.444 72.153 47.3398 72.1172C47.2389 72.0781 47.112 72.0586 46.959 72.0586H46.9297V71.6387H49.1172V72.0586H49.0293C48.8112 72.0586 48.6338 72.1042 48.4971 72.1953C48.3604 72.2865 48.2008 72.4541 48.0186 72.6982L46.9883 74.0703L48.458 76.0479C48.6045 76.2432 48.7428 76.3815 48.873 76.4629C49.0065 76.541 49.1351 76.5801 49.2588 76.5801H49.3906V77H46.8076V76.5801H46.8564C47.2568 76.5801 47.457 76.4694 47.457 76.248C47.457 76.1634 47.4245 76.0706 47.3594 75.9697C47.2975 75.8656 47.2031 75.7288 47.0762 75.5596L46.4072 74.6611L45.709 75.6377C45.6471 75.7191 45.5869 75.82 45.5283 75.9404C45.4697 76.0576 45.4404 76.1667 45.4404 76.2676C45.4404 76.3815 45.4876 76.4629 45.582 76.5117C45.6764 76.5573 45.8359 76.5801 46.0605 76.5801H46.0898V77H43.707V76.5801H43.7998C44.0505 76.5801 44.2474 76.5329 44.3906 76.4385C44.5371 76.3441 44.7031 76.1781 44.8887 75.9404L46.1484 74.3096L44.8887 72.5908C44.7422 72.4183 44.599 72.2865 44.459 72.1953C44.3223 72.1042 44.179 72.0586 44.0293 72.0586H43.8975V71.6387H46.4365V72.0586H46.4072C46.0264 72.0586 45.8359 72.1562 45.8359 72.3516C45.8359 72.4199 45.8555 72.4883 45.8945 72.5566C45.9368 72.6217 45.9954 72.7064 46.0703 72.8105L46.7295 73.709L47.2471 72.9619C47.3219 72.848 47.3822 72.7406 47.4277 72.6396C47.4733 72.5387 47.4961 72.4427 47.4961 72.3516ZM52.0908 76.5703C52.2113 76.5703 52.3219 76.5638 52.4229 76.5508C52.5238 76.5378 52.6263 76.5215 52.7305 76.502V76.9414C52.6393 76.9837 52.5042 77.0195 52.3252 77.0488C52.1494 77.0814 51.9883 77.0977 51.8418 77.0977C51.3307 77.0977 50.9629 76.9837 50.7383 76.7559C50.5072 76.5215 50.3916 76.1195 50.3916 75.5498V72.21H49.6299V71.8096C49.7503 71.8096 49.8822 71.7852 50.0254 71.7363C50.1719 71.6875 50.3005 71.6061 50.4111 71.4922C50.5251 71.3685 50.6162 71.222 50.6846 71.0527C50.7562 70.8802 50.818 70.6654 50.8701 70.4082H51.3291V71.6387H52.6377V72.21H51.3291V75.5791C51.3291 75.9209 51.3975 76.1715 51.5342 76.3311C51.6742 76.4906 51.8597 76.5703 52.0908 76.5703ZM58.2139 76.5703C58.3343 76.5703 58.445 76.5638 58.5459 76.5508C58.6468 76.5378 58.7493 76.5215 58.8535 76.502V76.9414C58.7624 76.9837 58.6273 77.0195 58.4482 77.0488C58.2725 77.0814 58.1113 77.0977 57.9648 77.0977C57.4538 77.0977 57.0859 76.9837 56.8613 76.7559C56.6302 76.5215 56.5146 76.1195 56.5146 75.5498V72.21H55.7529V71.8096C55.8734 71.8096 56.0052 71.7852 56.1484 71.7363C56.2949 71.6875 56.4235 71.6061 56.5342 71.4922C56.6481 71.3685 56.7393 71.222 56.8076 71.0527C56.8792 70.8802 56.9411 70.6654 56.9932 70.4082H57.4521V71.6387H58.7607V72.21H57.4521V75.5791C57.4521 75.9209 57.5205 76.1715 57.6572 76.3311C57.7972 76.4906 57.9827 76.5703 58.2139 76.5703ZM61.959 77.0977C61.2266 77.0977 60.6585 76.8584 60.2549 76.3799C60.0563 76.1455 59.9033 75.859 59.7959 75.5205C59.6917 75.1787 59.6396 74.7913 59.6396 74.3584C59.6396 73.4242 59.8317 72.721 60.2158 72.249C60.5999 71.777 61.1468 71.541 61.8564 71.541C62.5173 71.541 63.0251 71.7412 63.3799 72.1416C63.5589 72.3402 63.6956 72.5892 63.79 72.8887C63.8877 73.1882 63.9365 73.5348 63.9365 73.9287V74.3877H60.6064C60.6195 75.1104 60.7529 75.6393 61.0068 75.9746C61.251 76.3034 61.6139 76.4678 62.0957 76.4678C62.4115 76.4678 62.6963 76.401 62.9502 76.2676C63.2074 76.1341 63.3994 75.9681 63.5264 75.7695C63.5719 75.7891 63.6143 75.8298 63.6533 75.8916C63.6956 75.9535 63.7168 76.0267 63.7168 76.1113C63.7168 76.2122 63.681 76.3213 63.6094 76.4385C63.5378 76.5524 63.4287 76.6582 63.2822 76.7559C63.1357 76.8535 62.9518 76.9349 62.7305 77C62.5124 77.0651 62.2552 77.0977 61.959 77.0977ZM61.8369 72.0781C61.4658 72.0781 61.1794 72.2295 60.9775 72.5322C60.779 72.8317 60.6618 73.2712 60.626 73.8506H62.9258C62.9258 73.5869 62.9062 73.346 62.8672 73.1279C62.8281 72.9098 62.7663 72.7227 62.6816 72.5664C62.597 72.4102 62.4847 72.2897 62.3447 72.2051C62.208 72.1204 62.0387 72.0781 61.8369 72.0781ZM68.2773 72.3516C68.2773 72.2311 68.2253 72.153 68.1211 72.1172C68.0202 72.0781 67.8932 72.0586 67.7402 72.0586H67.7109V71.6387H69.8984V72.0586H69.8105C69.5924 72.0586 69.415 72.1042 69.2783 72.1953C69.1416 72.2865 68.9821 72.4541 68.7998 72.6982L67.7695 74.0703L69.2393 76.0479C69.3857 76.2432 69.5241 76.3815 69.6543 76.4629C69.7878 76.541 69.9163 76.5801 70.04 76.5801H70.1719V77H67.5889V76.5801H67.6377C68.0381 76.5801 68.2383 76.4694 68.2383 76.248C68.2383 76.1634 68.2057 76.0706 68.1406 75.9697C68.0788 75.8656 67.9844 75.7288 67.8574 75.5596L67.1885 74.6611L66.4902 75.6377C66.4284 75.7191 66.3682 75.82 66.3096 75.9404C66.251 76.0576 66.2217 76.1667 66.2217 76.2676C66.2217 76.3815 66.2689 76.4629 66.3633 76.5117C66.4577 76.5573 66.6172 76.5801 66.8418 76.5801H66.8711V77H64.4883V76.5801H64.5811C64.8317 76.5801 65.0286 76.5329 65.1719 76.4385C65.3184 76.3441 65.4844 76.1781 65.6699 75.9404L66.9297 74.3096L65.6699 72.5908C65.5234 72.4183 65.3802 72.2865 65.2402 72.1953C65.1035 72.1042 64.9603 72.0586 64.8105 72.0586H64.6787V71.6387H67.2178V72.0586H67.1885C66.8076 72.0586 66.6172 72.1562 66.6172 72.3516C66.6172 72.4199 66.6367 72.4883 66.6758 72.5566C66.7181 72.6217 66.7767 72.7064 66.8516 72.8105L67.5107 73.709L68.0283 72.9619C68.1032 72.848 68.1634 72.7406 68.209 72.6396C68.2546 72.5387 68.2773 72.4427 68.2773 72.3516ZM72.8721 76.5703C72.9925 76.5703 73.1032 76.5638 73.2041 76.5508C73.305 76.5378 73.4076 76.5215 73.5117 76.502V76.9414C73.4206 76.9837 73.2855 77.0195 73.1064 77.0488C72.9307 77.0814 72.7695 77.0977 72.623 77.0977C72.112 77.0977 71.7441 76.9837 71.5195 76.7559C71.2884 76.5215 71.1729 76.1195 71.1729 75.5498V72.21H70.4111V71.8096C70.5316 71.8096 70.6634 71.7852 70.8066 71.7363C70.9531 71.6875 71.0817 71.6061 71.1924 71.4922C71.3063 71.3685 71.3975 71.222 71.4658 71.0527C71.5374 70.8802 71.5993 70.6654 71.6514 70.4082H72.1104V71.6387H73.4189V72.21H72.1104V75.5791C72.1104 75.9209 72.1787 76.1715 72.3154 76.3311C72.4554 76.4906 72.641 76.5703 72.8721 76.5703Z" fill="#BABABA"/>
</svg>
