<svg width="100" height="100" viewBox="0 0 100 100" fill="none" xmlns="http://www.w3.org/2000/svg">
<rect width="100" height="100" fill="white"/>
<path d="M19.1152 38.2441H19.168V39H14.3252V38.2441H14.4658C14.917 38.2441 15.2744 38.1621 15.5381 37.998C15.8076 37.834 15.9424 37.4854 15.9424 36.9521V27.3018C15.9424 26.7979 15.8047 26.4697 15.5293 26.3174C15.2539 26.1592 14.8994 26.0801 14.4658 26.0801H14.3252V25.3242H17.6387V29.2793C17.6387 29.4434 17.6357 29.6162 17.6299 29.7979C17.624 29.9736 17.6152 30.1377 17.6035 30.29C17.5977 30.3779 17.5918 30.4658 17.5859 30.5537C17.5801 30.6416 17.5742 30.7266 17.5684 30.8086H17.6562C18.1953 29.7188 19.0771 29.1738 20.3018 29.1738C21.3389 29.1738 22.124 29.4521 22.6572 30.0088C23.208 30.5947 23.4834 31.4912 23.4834 32.6982V36.9521C23.4834 37.4795 23.6035 37.8281 23.8438 37.998C24.0898 38.1621 24.4326 38.2441 24.8721 38.2441H24.9248V39H21.7959V32.7861C21.7959 32.001 21.6494 31.3945 21.3564 30.9668C21.0635 30.5391 20.5508 30.3252 19.8184 30.3252C19.0859 30.3252 18.5381 30.5889 18.1748 31.1162C17.8174 31.6201 17.6387 32.3291 17.6387 33.2432V37.04C17.6387 37.5381 17.7734 37.8633 18.043 38.0156C18.3125 38.168 18.6699 38.2441 19.1152 38.2441ZM33.7227 28.9717C33.7227 29.3936 33.6553 29.8037 33.5205 30.2021C33.3857 30.6006 33.1895 31.0078 32.9316 31.4238C32.6738 31.8457 32.3574 32.2822 31.9824 32.7334C31.6133 33.1846 31.1914 33.6709 30.7168 34.1924L27.6758 37.5586H31.833C32.3369 37.5586 32.6914 37.4326 32.8965 37.1807C33.1016 36.9287 33.251 36.6064 33.3447 36.2139L33.415 35.8887H34.1709L34.083 39H26.3398V37.6816L29.3457 34.21C29.8262 33.6533 30.2275 33.1553 30.5498 32.7158C30.8779 32.2764 31.1416 31.8604 31.3408 31.4678C31.54 31.0811 31.6836 30.7031 31.7715 30.334C31.8594 29.959 31.9033 29.5664 31.9033 29.1562C31.9033 28.4707 31.7539 27.9199 31.4551 27.5039C31.1621 27.082 30.6992 26.8711 30.0664 26.8711C29.5391 26.8711 29.1318 26.9912 28.8447 27.2314C28.5576 27.4658 28.3584 27.7852 28.2471 28.1895C28.1416 28.5938 28.0889 29.0479 28.0889 29.5518C27.6436 29.5518 27.2744 29.4697 26.9814 29.3057C26.6885 29.1357 26.542 28.8281 26.542 28.3828C26.542 27.6562 26.8408 27.0791 27.4385 26.6514C27.7314 26.4346 28.0977 26.2676 28.5371 26.1504C28.9766 26.0273 29.4863 25.9658 30.0664 25.9658C30.6348 25.9658 31.1445 26.0391 31.5957 26.1855C32.0469 26.3262 32.4307 26.5254 32.7471 26.7832C33.3975 27.3223 33.7227 28.0518 33.7227 28.9717Z" fill="black"/>
<path d="M16.6514 62.5703C16.7718 62.5703 16.8825 62.5638 16.9834 62.5508C17.0843 62.5378 17.1868 62.5215 17.291 62.502V62.9414C17.1999 62.9837 17.0648 63.0195 16.8857 63.0488C16.71 63.0814 16.5488 63.0977 16.4023 63.0977C15.8913 63.0977 15.5234 62.9837 15.2988 62.7559C15.0677 62.5215 14.9521 62.1195 14.9521 61.5498V58.21H14.1904V57.8096C14.3109 57.8096 14.4427 57.7852 14.5859 57.7363C14.7324 57.6875 14.861 57.6061 14.9717 57.4922C15.0856 57.3685 15.1768 57.222 15.2451 57.0527C15.3167 56.8802 15.3786 56.6654 15.4307 56.4082H15.8896V57.6387H17.1982V58.21H15.8896V61.5791C15.8896 61.9209 15.958 62.1715 16.0947 62.3311C16.2347 62.4906 16.4202 62.5703 16.6514 62.5703ZM20.3965 63.0977C19.6641 63.0977 19.096 62.8584 18.6924 62.3799C18.4938 62.1455 18.3408 61.859 18.2334 61.5205C18.1292 61.1787 18.0771 60.7913 18.0771 60.3584C18.0771 59.4242 18.2692 58.721 18.6533 58.249C19.0374 57.777 19.5843 57.541 20.2939 57.541C20.9548 57.541 21.4626 57.7412 21.8174 58.1416C21.9964 58.3402 22.1331 58.5892 22.2275 58.8887C22.3252 59.1882 22.374 59.5348 22.374 59.9287V60.3877H19.0439C19.057 61.1104 19.1904 61.6393 19.4443 61.9746C19.6885 62.3034 20.0514 62.4678 20.5332 62.4678C20.849 62.4678 21.1338 62.401 21.3877 62.2676C21.6449 62.1341 21.8369 61.9681 21.9639 61.7695C22.0094 61.7891 22.0518 61.8298 22.0908 61.8916C22.1331 61.9535 22.1543 62.0267 22.1543 62.1113C22.1543 62.2122 22.1185 62.3213 22.0469 62.4385C21.9753 62.5524 21.8662 62.6582 21.7197 62.7559C21.5732 62.8535 21.3893 62.9349 21.168 63C20.9499 63.0651 20.6927 63.0977 20.3965 63.0977ZM20.2744 58.0781C19.9033 58.0781 19.6169 58.2295 19.415 58.5322C19.2165 58.8317 19.0993 59.2712 19.0635 59.8506H21.3633C21.3633 59.5869 21.3438 59.346 21.3047 59.1279C21.2656 58.9098 21.2038 58.7227 21.1191 58.5664C21.0345 58.4102 20.9222 58.2897 20.7822 58.2051C20.6455 58.1204 20.4762 58.0781 20.2744 58.0781ZM26.7148 58.3516C26.7148 58.2311 26.6628 58.153 26.5586 58.1172C26.4577 58.0781 26.3307 58.0586 26.1777 58.0586H26.1484V57.6387H28.3359V58.0586H28.248C28.0299 58.0586 27.8525 58.1042 27.7158 58.1953C27.5791 58.2865 27.4196 58.4541 27.2373 58.6982L26.207 60.0703L27.6768 62.0479C27.8232 62.2432 27.9616 62.3815 28.0918 62.4629C28.2253 62.541 28.3538 62.5801 28.4775 62.5801H28.6094V63H26.0264V62.5801H26.0752C26.4756 62.5801 26.6758 62.4694 26.6758 62.248C26.6758 62.1634 26.6432 62.0706 26.5781 61.9697C26.5163 61.8656 26.4219 61.7288 26.2949 61.5596L25.626 60.6611L24.9277 61.6377C24.8659 61.7191 24.8057 61.82 24.7471 61.9404C24.6885 62.0576 24.6592 62.1667 24.6592 62.2676C24.6592 62.3815 24.7064 62.4629 24.8008 62.5117C24.8952 62.5573 25.0547 62.5801 25.2793 62.5801H25.3086V63H22.9258V62.5801H23.0186C23.2692 62.5801 23.4661 62.5329 23.6094 62.4385C23.7559 62.3441 23.9219 62.1781 24.1074 61.9404L25.3672 60.3096L24.1074 58.5908C23.9609 58.4183 23.8177 58.2865 23.6777 58.1953C23.541 58.1042 23.3978 58.0586 23.248 58.0586H23.1162V57.6387H25.6553V58.0586H25.626C25.2451 58.0586 25.0547 58.1562 25.0547 58.3516C25.0547 58.4199 25.0742 58.4883 25.1133 58.5566C25.1556 58.6217 25.2142 58.7064 25.2891 58.8105L25.9482 59.709L26.4658 58.9619C26.5407 58.848 26.6009 58.7406 26.6465 58.6396C26.6921 58.5387 26.7148 58.4427 26.7148 58.3516ZM31.3096 62.5703C31.43 62.5703 31.5407 62.5638 31.6416 62.5508C31.7425 62.5378 31.8451 62.5215 31.9492 62.502V62.9414C31.8581 62.9837 31.723 63.0195 31.5439 63.0488C31.3682 63.0814 31.207 63.0977 31.0605 63.0977C30.5495 63.0977 30.1816 62.9837 29.957 62.7559C29.7259 62.5215 29.6104 62.1195 29.6104 61.5498V58.21H28.8486V57.8096C28.9691 57.8096 29.1009 57.7852 29.2441 57.7363C29.3906 57.6875 29.5192 57.6061 29.6299 57.4922C29.7438 57.3685 29.835 57.222 29.9033 57.0527C29.9749 56.8802 30.0368 56.6654 30.0889 56.4082H30.5479V57.6387H31.8564V58.21H30.5479V61.5791C30.5479 61.9209 30.6162 62.1715 30.7529 62.3311C30.8929 62.4906 31.0785 62.5703 31.3096 62.5703ZM37.4326 62.5703C37.5531 62.5703 37.6637 62.5638 37.7646 62.5508C37.8656 62.5378 37.9681 62.5215 38.0723 62.502V62.9414C37.9811 62.9837 37.846 63.0195 37.667 63.0488C37.4912 63.0814 37.3301 63.0977 37.1836 63.0977C36.6725 63.0977 36.3047 62.9837 36.0801 62.7559C35.849 62.5215 35.7334 62.1195 35.7334 61.5498V58.21H34.9717V57.8096C35.0921 57.8096 35.224 57.7852 35.3672 57.7363C35.5137 57.6875 35.6423 57.6061 35.7529 57.4922C35.8669 57.3685 35.958 57.222 36.0264 57.0527C36.098 56.8802 36.1598 56.6654 36.2119 56.4082H36.6709V57.6387H37.9795V58.21H36.6709V61.5791C36.6709 61.9209 36.7393 62.1715 36.876 62.3311C37.016 62.4906 37.2015 62.5703 37.4326 62.5703ZM41.1777 63.0977C40.4453 63.0977 39.8773 62.8584 39.4736 62.3799C39.2751 62.1455 39.1221 61.859 39.0146 61.5205C38.9105 61.1787 38.8584 60.7913 38.8584 60.3584C38.8584 59.4242 39.0505 58.721 39.4346 58.249C39.8187 57.777 40.3656 57.541 41.0752 57.541C41.736 57.541 42.2438 57.7412 42.5986 58.1416C42.7777 58.3402 42.9144 58.5892 43.0088 58.8887C43.1064 59.1882 43.1553 59.5348 43.1553 59.9287V60.3877H39.8252C39.8382 61.1104 39.9717 61.6393 40.2256 61.9746C40.4697 62.3034 40.8327 62.4678 41.3145 62.4678C41.6302 62.4678 41.915 62.401 42.1689 62.2676C42.4261 62.1341 42.6182 61.9681 42.7451 61.7695C42.7907 61.7891 42.833 61.8298 42.8721 61.8916C42.9144 61.9535 42.9355 62.0267 42.9355 62.1113C42.9355 62.2122 42.8997 62.3213 42.8281 62.4385C42.7565 62.5524 42.6475 62.6582 42.501 62.7559C42.3545 62.8535 42.1706 62.9349 41.9492 63C41.7311 63.0651 41.474 63.0977 41.1777 63.0977ZM41.0557 58.0781C40.6846 58.0781 40.3981 58.2295 40.1963 58.5322C39.9977 58.8317 39.8805 59.2712 39.8447 59.8506H42.1445C42.1445 59.5869 42.125 59.346 42.0859 59.1279C42.0469 58.9098 41.985 58.7227 41.9004 58.5664C41.8158 58.4102 41.7035 58.2897 41.5635 58.2051C41.4268 58.1204 41.2575 58.0781 41.0557 58.0781ZM47.4961 58.3516C47.4961 58.2311 47.444 58.153 47.3398 58.1172C47.2389 58.0781 47.112 58.0586 46.959 58.0586H46.9297V57.6387H49.1172V58.0586H49.0293C48.8112 58.0586 48.6338 58.1042 48.4971 58.1953C48.3604 58.2865 48.2008 58.4541 48.0186 58.6982L46.9883 60.0703L48.458 62.0479C48.6045 62.2432 48.7428 62.3815 48.873 62.4629C49.0065 62.541 49.1351 62.5801 49.2588 62.5801H49.3906V63H46.8076V62.5801H46.8564C47.2568 62.5801 47.457 62.4694 47.457 62.248C47.457 62.1634 47.4245 62.0706 47.3594 61.9697C47.2975 61.8656 47.2031 61.7288 47.0762 61.5596L46.4072 60.6611L45.709 61.6377C45.6471 61.7191 45.5869 61.82 45.5283 61.9404C45.4697 62.0576 45.4404 62.1667 45.4404 62.2676C45.4404 62.3815 45.4876 62.4629 45.582 62.5117C45.6764 62.5573 45.8359 62.5801 46.0605 62.5801H46.0898V63H43.707V62.5801H43.7998C44.0505 62.5801 44.2474 62.5329 44.3906 62.4385C44.5371 62.3441 44.7031 62.1781 44.8887 61.9404L46.1484 60.3096L44.8887 58.5908C44.7422 58.4183 44.599 58.2865 44.459 58.1953C44.3223 58.1042 44.179 58.0586 44.0293 58.0586H43.8975V57.6387H46.4365V58.0586H46.4072C46.0264 58.0586 45.8359 58.1562 45.8359 58.3516C45.8359 58.4199 45.8555 58.4883 45.8945 58.5566C45.9368 58.6217 45.9954 58.7064 46.0703 58.8105L46.7295 59.709L47.2471 58.9619C47.3219 58.848 47.3822 58.7406 47.4277 58.6396C47.4733 58.5387 47.4961 58.4427 47.4961 58.3516ZM52.0908 62.5703C52.2113 62.5703 52.3219 62.5638 52.4229 62.5508C52.5238 62.5378 52.6263 62.5215 52.7305 62.502V62.9414C52.6393 62.9837 52.5042 63.0195 52.3252 63.0488C52.1494 63.0814 51.9883 63.0977 51.8418 63.0977C51.3307 63.0977 50.9629 62.9837 50.7383 62.7559C50.5072 62.5215 50.3916 62.1195 50.3916 61.5498V58.21H49.6299V57.8096C49.7503 57.8096 49.8822 57.7852 50.0254 57.7363C50.1719 57.6875 50.3005 57.6061 50.4111 57.4922C50.5251 57.3685 50.6162 57.222 50.6846 57.0527C50.7562 56.8802 50.818 56.6654 50.8701 56.4082H51.3291V57.6387H52.6377V58.21H51.3291V61.5791C51.3291 61.9209 51.3975 62.1715 51.5342 62.3311C51.6742 62.4906 51.8597 62.5703 52.0908 62.5703ZM58.2139 62.5703C58.3343 62.5703 58.445 62.5638 58.5459 62.5508C58.6468 62.5378 58.7493 62.5215 58.8535 62.502V62.9414C58.7624 62.9837 58.6273 63.0195 58.4482 63.0488C58.2725 63.0814 58.1113 63.0977 57.9648 63.0977C57.4538 63.0977 57.0859 62.9837 56.8613 62.7559C56.6302 62.5215 56.5146 62.1195 56.5146 61.5498V58.21H55.7529V57.8096C55.8734 57.8096 56.0052 57.7852 56.1484 57.7363C56.2949 57.6875 56.4235 57.6061 56.5342 57.4922C56.6481 57.3685 56.7393 57.222 56.8076 57.0527C56.8792 56.8802 56.9411 56.6654 56.9932 56.4082H57.4521V57.6387H58.7607V58.21H57.4521V61.5791C57.4521 61.9209 57.5205 62.1715 57.6572 62.3311C57.7972 62.4906 57.9827 62.5703 58.2139 62.5703ZM61.959 63.0977C61.2266 63.0977 60.6585 62.8584 60.2549 62.3799C60.0563 62.1455 59.9033 61.859 59.7959 61.5205C59.6917 61.1787 59.6396 60.7913 59.6396 60.3584C59.6396 59.4242 59.8317 58.721 60.2158 58.249C60.5999 57.777 61.1468 57.541 61.8564 57.541C62.5173 57.541 63.0251 57.7412 63.3799 58.1416C63.5589 58.3402 63.6956 58.5892 63.79 58.8887C63.8877 59.1882 63.9365 59.5348 63.9365 59.9287V60.3877H60.6064C60.6195 61.1104 60.7529 61.6393 61.0068 61.9746C61.251 62.3034 61.6139 62.4678 62.0957 62.4678C62.4115 62.4678 62.6963 62.401 62.9502 62.2676C63.2074 62.1341 63.3994 61.9681 63.5264 61.7695C63.5719 61.7891 63.6143 61.8298 63.6533 61.8916C63.6956 61.9535 63.7168 62.0267 63.7168 62.1113C63.7168 62.2122 63.681 62.3213 63.6094 62.4385C63.5378 62.5524 63.4287 62.6582 63.2822 62.7559C63.1357 62.8535 62.9518 62.9349 62.7305 63C62.5124 63.0651 62.2552 63.0977 61.959 63.0977ZM61.8369 58.0781C61.4658 58.0781 61.1794 58.2295 60.9775 58.5322C60.779 58.8317 60.6618 59.2712 60.626 59.8506H62.9258C62.9258 59.5869 62.9062 59.346 62.8672 59.1279C62.8281 58.9098 62.7663 58.7227 62.6816 58.5664C62.597 58.4102 62.4847 58.2897 62.3447 58.2051C62.208 58.1204 62.0387 58.0781 61.8369 58.0781ZM68.2773 58.3516C68.2773 58.2311 68.2253 58.153 68.1211 58.1172C68.0202 58.0781 67.8932 58.0586 67.7402 58.0586H67.7109V57.6387H69.8984V58.0586H69.8105C69.5924 58.0586 69.415 58.1042 69.2783 58.1953C69.1416 58.2865 68.9821 58.4541 68.7998 58.6982L67.7695 60.0703L69.2393 62.0479C69.3857 62.2432 69.5241 62.3815 69.6543 62.4629C69.7878 62.541 69.9163 62.5801 70.04 62.5801H70.1719V63H67.5889V62.5801H67.6377C68.0381 62.5801 68.2383 62.4694 68.2383 62.248C68.2383 62.1634 68.2057 62.0706 68.1406 61.9697C68.0788 61.8656 67.9844 61.7288 67.8574 61.5596L67.1885 60.6611L66.4902 61.6377C66.4284 61.7191 66.3682 61.82 66.3096 61.9404C66.251 62.0576 66.2217 62.1667 66.2217 62.2676C66.2217 62.3815 66.2689 62.4629 66.3633 62.5117C66.4577 62.5573 66.6172 62.5801 66.8418 62.5801H66.8711V63H64.4883V62.5801H64.5811C64.8317 62.5801 65.0286 62.5329 65.1719 62.4385C65.3184 62.3441 65.4844 62.1781 65.6699 61.9404L66.9297 60.3096L65.6699 58.5908C65.5234 58.4183 65.3802 58.2865 65.2402 58.1953C65.1035 58.1042 64.9603 58.0586 64.8105 58.0586H64.6787V57.6387H67.2178V58.0586H67.1885C66.8076 58.0586 66.6172 58.1562 66.6172 58.3516C66.6172 58.4199 66.6367 58.4883 66.6758 58.5566C66.7181 58.6217 66.7767 58.7064 66.8516 58.8105L67.5107 59.709L68.0283 58.9619C68.1032 58.848 68.1634 58.7406 68.209 58.6396C68.2546 58.5387 68.2773 58.4427 68.2773 58.3516ZM72.8721 62.5703C72.9925 62.5703 73.1032 62.5638 73.2041 62.5508C73.305 62.5378 73.4076 62.5215 73.5117 62.502V62.9414C73.4206 62.9837 73.2855 63.0195 73.1064 63.0488C72.9307 63.0814 72.7695 63.0977 72.623 63.0977C72.112 63.0977 71.7441 62.9837 71.5195 62.7559C71.2884 62.5215 71.1729 62.1195 71.1729 61.5498V58.21H70.4111V57.8096C70.5316 57.8096 70.6634 57.7852 70.8066 57.7363C70.9531 57.6875 71.0817 57.6061 71.1924 57.4922C71.3063 57.3685 71.3975 57.222 71.4658 57.0527C71.5374 56.8802 71.5993 56.6654 71.6514 56.4082H72.1104V57.6387H73.4189V58.21H72.1104V61.5791C72.1104 61.9209 72.1787 62.1715 72.3154 62.3311C72.4554 62.4906 72.641 62.5703 72.8721 62.5703ZM16.6514 75.5703C16.7718 75.5703 16.8825 75.5638 16.9834 75.5508C17.0843 75.5378 17.1868 75.5215 17.291 75.502V75.9414C17.1999 75.9837 17.0648 76.0195 16.8857 76.0488C16.71 76.0814 16.5488 76.0977 16.4023 76.0977C15.8913 76.0977 15.5234 75.9837 15.2988 75.7559C15.0677 75.5215 14.9521 75.1195 14.9521 74.5498V71.21H14.1904V70.8096C14.3109 70.8096 14.4427 70.7852 14.5859 70.7363C14.7324 70.6875 14.861 70.6061 14.9717 70.4922C15.0856 70.3685 15.1768 70.222 15.2451 70.0527C15.3167 69.8802 15.3786 69.6654 15.4307 69.4082H15.8896V70.6387H17.1982V71.21H15.8896V74.5791C15.8896 74.9209 15.958 75.1715 16.0947 75.3311C16.2347 75.4906 16.4202 75.5703 16.6514 75.5703ZM20.3965 76.0977C19.6641 76.0977 19.096 75.8584 18.6924 75.3799C18.4938 75.1455 18.3408 74.859 18.2334 74.5205C18.1292 74.1787 18.0771 73.7913 18.0771 73.3584C18.0771 72.4242 18.2692 71.721 18.6533 71.249C19.0374 70.777 19.5843 70.541 20.2939 70.541C20.9548 70.541 21.4626 70.7412 21.8174 71.1416C21.9964 71.3402 22.1331 71.5892 22.2275 71.8887C22.3252 72.1882 22.374 72.5348 22.374 72.9287V73.3877H19.0439C19.057 74.1104 19.1904 74.6393 19.4443 74.9746C19.6885 75.3034 20.0514 75.4678 20.5332 75.4678C20.849 75.4678 21.1338 75.401 21.3877 75.2676C21.6449 75.1341 21.8369 74.9681 21.9639 74.7695C22.0094 74.7891 22.0518 74.8298 22.0908 74.8916C22.1331 74.9535 22.1543 75.0267 22.1543 75.1113C22.1543 75.2122 22.1185 75.3213 22.0469 75.4385C21.9753 75.5524 21.8662 75.6582 21.7197 75.7559C21.5732 75.8535 21.3893 75.9349 21.168 76C20.9499 76.0651 20.6927 76.0977 20.3965 76.0977ZM20.2744 71.0781C19.9033 71.0781 19.6169 71.2295 19.415 71.5322C19.2165 71.8317 19.0993 72.2712 19.0635 72.8506H21.3633C21.3633 72.5869 21.3438 72.346 21.3047 72.1279C21.2656 71.9098 21.2038 71.7227 21.1191 71.5664C21.0345 71.4102 20.9222 71.2897 20.7822 71.2051C20.6455 71.1204 20.4762 71.0781 20.2744 71.0781ZM26.7148 71.3516C26.7148 71.2311 26.6628 71.153 26.5586 71.1172C26.4577 71.0781 26.3307 71.0586 26.1777 71.0586H26.1484V70.6387H28.3359V71.0586H28.248C28.0299 71.0586 27.8525 71.1042 27.7158 71.1953C27.5791 71.2865 27.4196 71.4541 27.2373 71.6982L26.207 73.0703L27.6768 75.0479C27.8232 75.2432 27.9616 75.3815 28.0918 75.4629C28.2253 75.541 28.3538 75.5801 28.4775 75.5801H28.6094V76H26.0264V75.5801H26.0752C26.4756 75.5801 26.6758 75.4694 26.6758 75.248C26.6758 75.1634 26.6432 75.0706 26.5781 74.9697C26.5163 74.8656 26.4219 74.7288 26.2949 74.5596L25.626 73.6611L24.9277 74.6377C24.8659 74.7191 24.8057 74.82 24.7471 74.9404C24.6885 75.0576 24.6592 75.1667 24.6592 75.2676C24.6592 75.3815 24.7064 75.4629 24.8008 75.5117C24.8952 75.5573 25.0547 75.5801 25.2793 75.5801H25.3086V76H22.9258V75.5801H23.0186C23.2692 75.5801 23.4661 75.5329 23.6094 75.4385C23.7559 75.3441 23.9219 75.1781 24.1074 74.9404L25.3672 73.3096L24.1074 71.5908C23.9609 71.4183 23.8177 71.2865 23.6777 71.1953C23.541 71.1042 23.3978 71.0586 23.248 71.0586H23.1162V70.6387H25.6553V71.0586H25.626C25.2451 71.0586 25.0547 71.1562 25.0547 71.3516C25.0547 71.4199 25.0742 71.4883 25.1133 71.5566C25.1556 71.6217 25.2142 71.7064 25.2891 71.8105L25.9482 72.709L26.4658 71.9619C26.5407 71.848 26.6009 71.7406 26.6465 71.6396C26.6921 71.5387 26.7148 71.4427 26.7148 71.3516ZM31.3096 75.5703C31.43 75.5703 31.5407 75.5638 31.6416 75.5508C31.7425 75.5378 31.8451 75.5215 31.9492 75.502V75.9414C31.8581 75.9837 31.723 76.0195 31.5439 76.0488C31.3682 76.0814 31.207 76.0977 31.0605 76.0977C30.5495 76.0977 30.1816 75.9837 29.957 75.7559C29.7259 75.5215 29.6104 75.1195 29.6104 74.5498V71.21H28.8486V70.8096C28.9691 70.8096 29.1009 70.7852 29.2441 70.7363C29.3906 70.6875 29.5192 70.6061 29.6299 70.4922C29.7438 70.3685 29.835 70.222 29.9033 70.0527C29.9749 69.8802 30.0368 69.6654 30.0889 69.4082H30.5479V70.6387H31.8564V71.21H30.5479V74.5791C30.5479 74.9209 30.6162 75.1715 30.7529 75.3311C30.8929 75.4906 31.0785 75.5703 31.3096 75.5703ZM37.4326 75.5703C37.5531 75.5703 37.6637 75.5638 37.7646 75.5508C37.8656 75.5378 37.9681 75.5215 38.0723 75.502V75.9414C37.9811 75.9837 37.846 76.0195 37.667 76.0488C37.4912 76.0814 37.3301 76.0977 37.1836 76.0977C36.6725 76.0977 36.3047 75.9837 36.0801 75.7559C35.849 75.5215 35.7334 75.1195 35.7334 74.5498V71.21H34.9717V70.8096C35.0921 70.8096 35.224 70.7852 35.3672 70.7363C35.5137 70.6875 35.6423 70.6061 35.7529 70.4922C35.8669 70.3685 35.958 70.222 36.0264 70.0527C36.098 69.8802 36.1598 69.6654 36.2119 69.4082H36.6709V70.6387H37.9795V71.21H36.6709V74.5791C36.6709 74.9209 36.7393 75.1715 36.876 75.3311C37.016 75.4906 37.2015 75.5703 37.4326 75.5703ZM41.1777 76.0977C40.4453 76.0977 39.8773 75.8584 39.4736 75.3799C39.2751 75.1455 39.1221 74.859 39.0146 74.5205C38.9105 74.1787 38.8584 73.7913 38.8584 73.3584C38.8584 72.4242 39.0505 71.721 39.4346 71.249C39.8187 70.777 40.3656 70.541 41.0752 70.541C41.736 70.541 42.2438 70.7412 42.5986 71.1416C42.7777 71.3402 42.9144 71.5892 43.0088 71.8887C43.1064 72.1882 43.1553 72.5348 43.1553 72.9287V73.3877H39.8252C39.8382 74.1104 39.9717 74.6393 40.2256 74.9746C40.4697 75.3034 40.8327 75.4678 41.3145 75.4678C41.6302 75.4678 41.915 75.401 42.1689 75.2676C42.4261 75.1341 42.6182 74.9681 42.7451 74.7695C42.7907 74.7891 42.833 74.8298 42.8721 74.8916C42.9144 74.9535 42.9355 75.0267 42.9355 75.1113C42.9355 75.2122 42.8997 75.3213 42.8281 75.4385C42.7565 75.5524 42.6475 75.6582 42.501 75.7559C42.3545 75.8535 42.1706 75.9349 41.9492 76C41.7311 76.0651 41.474 76.0977 41.1777 76.0977ZM41.0557 71.0781C40.6846 71.0781 40.3981 71.2295 40.1963 71.5322C39.9977 71.8317 39.8805 72.2712 39.8447 72.8506H42.1445C42.1445 72.5869 42.125 72.346 42.0859 72.1279C42.0469 71.9098 41.985 71.7227 41.9004 71.5664C41.8158 71.4102 41.7035 71.2897 41.5635 71.2051C41.4268 71.1204 41.2575 71.0781 41.0557 71.0781ZM47.4961 71.3516C47.4961 71.2311 47.444 71.153 47.3398 71.1172C47.2389 71.0781 47.112 71.0586 46.959 71.0586H46.9297V70.6387H49.1172V71.0586H49.0293C48.8112 71.0586 48.6338 71.1042 48.4971 71.1953C48.3604 71.2865 48.2008 71.4541 48.0186 71.6982L46.9883 73.0703L48.458 75.0479C48.6045 75.2432 48.7428 75.3815 48.873 75.4629C49.0065 75.541 49.1351 75.5801 49.2588 75.5801H49.3906V76H46.8076V75.5801H46.8564C47.2568 75.5801 47.457 75.4694 47.457 75.248C47.457 75.1634 47.4245 75.0706 47.3594 74.9697C47.2975 74.8656 47.2031 74.7288 47.0762 74.5596L46.4072 73.6611L45.709 74.6377C45.6471 74.7191 45.5869 74.82 45.5283 74.9404C45.4697 75.0576 45.4404 75.1667 45.4404 75.2676C45.4404 75.3815 45.4876 75.4629 45.582 75.5117C45.6764 75.5573 45.8359 75.5801 46.0605 75.5801H46.0898V76H43.707V75.5801H43.7998C44.0505 75.5801 44.2474 75.5329 44.3906 75.4385C44.5371 75.3441 44.7031 75.1781 44.8887 74.9404L46.1484 73.3096L44.8887 71.5908C44.7422 71.4183 44.599 71.2865 44.459 71.1953C44.3223 71.1042 44.179 71.0586 44.0293 71.0586H43.8975V70.6387H46.4365V71.0586H46.4072C46.0264 71.0586 45.8359 71.1562 45.8359 71.3516C45.8359 71.4199 45.8555 71.4883 45.8945 71.5566C45.9368 71.6217 45.9954 71.7064 46.0703 71.8105L46.7295 72.709L47.2471 71.9619C47.3219 71.848 47.3822 71.7406 47.4277 71.6396C47.4733 71.5387 47.4961 71.4427 47.4961 71.3516ZM52.0908 75.5703C52.2113 75.5703 52.3219 75.5638 52.4229 75.5508C52.5238 75.5378 52.6263 75.5215 52.7305 75.502V75.9414C52.6393 75.9837 52.5042 76.0195 52.3252 76.0488C52.1494 76.0814 51.9883 76.0977 51.8418 76.0977C51.3307 76.0977 50.9629 75.9837 50.7383 75.7559C50.5072 75.5215 50.3916 75.1195 50.3916 74.5498V71.21H49.6299V70.8096C49.7503 70.8096 49.8822 70.7852 50.0254 70.7363C50.1719 70.6875 50.3005 70.6061 50.4111 70.4922C50.5251 70.3685 50.6162 70.222 50.6846 70.0527C50.7562 69.8802 50.818 69.6654 50.8701 69.4082H51.3291V70.6387H52.6377V71.21H51.3291V74.5791C51.3291 74.9209 51.3975 75.1715 51.5342 75.3311C51.6742 75.4906 51.8597 75.5703 52.0908 75.5703ZM58.2139 75.5703C58.3343 75.5703 58.445 75.5638 58.5459 75.5508C58.6468 75.5378 58.7493 75.5215 58.8535 75.502V75.9414C58.7624 75.9837 58.6273 76.0195 58.4482 76.0488C58.2725 76.0814 58.1113 76.0977 57.9648 76.0977C57.4538 76.0977 57.0859 75.9837 56.8613 75.7559C56.6302 75.5215 56.5146 75.1195 56.5146 74.5498V71.21H55.7529V70.8096C55.8734 70.8096 56.0052 70.7852 56.1484 70.7363C56.2949 70.6875 56.4235 70.6061 56.5342 70.4922C56.6481 70.3685 56.7393 70.222 56.8076 70.0527C56.8792 69.8802 56.9411 69.6654 56.9932 69.4082H57.4521V70.6387H58.7607V71.21H57.4521V74.5791C57.4521 74.9209 57.5205 75.1715 57.6572 75.3311C57.7972 75.4906 57.9827 75.5703 58.2139 75.5703ZM61.959 76.0977C61.2266 76.0977 60.6585 75.8584 60.2549 75.3799C60.0563 75.1455 59.9033 74.859 59.7959 74.5205C59.6917 74.1787 59.6396 73.7913 59.6396 73.3584C59.6396 72.4242 59.8317 71.721 60.2158 71.249C60.5999 70.777 61.1468 70.541 61.8564 70.541C62.5173 70.541 63.0251 70.7412 63.3799 71.1416C63.5589 71.3402 63.6956 71.5892 63.79 71.8887C63.8877 72.1882 63.9365 72.5348 63.9365 72.9287V73.3877H60.6064C60.6195 74.1104 60.7529 74.6393 61.0068 74.9746C61.251 75.3034 61.6139 75.4678 62.0957 75.4678C62.4115 75.4678 62.6963 75.401 62.9502 75.2676C63.2074 75.1341 63.3994 74.9681 63.5264 74.7695C63.5719 74.7891 63.6143 74.8298 63.6533 74.8916C63.6956 74.9535 63.7168 75.0267 63.7168 75.1113C63.7168 75.2122 63.681 75.3213 63.6094 75.4385C63.5378 75.5524 63.4287 75.6582 63.2822 75.7559C63.1357 75.8535 62.9518 75.9349 62.7305 76C62.5124 76.0651 62.2552 76.0977 61.959 76.0977ZM61.8369 71.0781C61.4658 71.0781 61.1794 71.2295 60.9775 71.5322C60.779 71.8317 60.6618 72.2712 60.626 72.8506H62.9258C62.9258 72.5869 62.9062 72.346 62.8672 72.1279C62.8281 71.9098 62.7663 71.7227 62.6816 71.5664C62.597 71.4102 62.4847 71.2897 62.3447 71.2051C62.208 71.1204 62.0387 71.0781 61.8369 71.0781ZM68.2773 71.3516C68.2773 71.2311 68.2253 71.153 68.1211 71.1172C68.0202 71.0781 67.8932 71.0586 67.7402 71.0586H67.7109V70.6387H69.8984V71.0586H69.8105C69.5924 71.0586 69.415 71.1042 69.2783 71.1953C69.1416 71.2865 68.9821 71.4541 68.7998 71.6982L67.7695 73.0703L69.2393 75.0479C69.3857 75.2432 69.5241 75.3815 69.6543 75.4629C69.7878 75.541 69.9163 75.5801 70.04 75.5801H70.1719V76H67.5889V75.5801H67.6377C68.0381 75.5801 68.2383 75.4694 68.2383 75.248C68.2383 75.1634 68.2057 75.0706 68.1406 74.9697C68.0788 74.8656 67.9844 74.7288 67.8574 74.5596L67.1885 73.6611L66.4902 74.6377C66.4284 74.7191 66.3682 74.82 66.3096 74.9404C66.251 75.0576 66.2217 75.1667 66.2217 75.2676C66.2217 75.3815 66.2689 75.4629 66.3633 75.5117C66.4577 75.5573 66.6172 75.5801 66.8418 75.5801H66.8711V76H64.4883V75.5801H64.5811C64.8317 75.5801 65.0286 75.5329 65.1719 75.4385C65.3184 75.3441 65.4844 75.1781 65.6699 74.9404L66.9297 73.3096L65.6699 71.5908C65.5234 71.4183 65.3802 71.2865 65.2402 71.1953C65.1035 71.1042 64.9603 71.0586 64.8105 71.0586H64.6787V70.6387H67.2178V71.0586H67.1885C66.8076 71.0586 66.6172 71.1562 66.6172 71.3516C66.6172 71.4199 66.6367 71.4883 66.6758 71.5566C66.7181 71.6217 66.7767 71.7064 66.8516 71.8105L67.5107 72.709L68.0283 71.9619C68.1032 71.848 68.1634 71.7406 68.209 71.6396C68.2546 71.5387 68.2773 71.4427 68.2773 71.3516ZM72.8721 75.5703C72.9925 75.5703 73.1032 75.5638 73.2041 75.5508C73.305 75.5378 73.4076 75.5215 73.5117 75.502V75.9414C73.4206 75.9837 73.2855 76.0195 73.1064 76.0488C72.9307 76.0814 72.7695 76.0977 72.623 76.0977C72.112 76.0977 71.7441 75.9837 71.5195 75.7559C71.2884 75.5215 71.1729 75.1195 71.1729 74.5498V71.21H70.4111V70.8096C70.5316 70.8096 70.6634 70.7852 70.8066 70.7363C70.9531 70.6875 71.0817 70.6061 71.1924 70.4922C71.3063 70.3685 71.3975 70.222 71.4658 70.0527C71.5374 69.8802 71.5993 69.6654 71.6514 69.4082H72.1104V70.6387H73.4189V71.21H72.1104V74.5791C72.1104 74.9209 72.1787 75.1715 72.3154 75.3311C72.4554 75.4906 72.641 75.5703 72.8721 75.5703Z" fill="#BABABA"/>
</svg>
