<svg width="100" height="100" viewBox="0 0 100 100" fill="none" xmlns="http://www.w3.org/2000/svg">
<rect width="100" height="100" fill="white"/>
<circle cx="21" cy="33.5" r="7" fill="black"/>
<path d="M38.2393 38.5V37.7549H38.4033C38.6585 37.7549 38.8887 37.6934 39.0938 37.5703C39.2988 37.4473 39.4014 37.2057 39.4014 36.8457V29.4561C39.4014 29.1143 39.2965 28.8864 39.0869 28.7725C38.8773 28.6585 38.6494 28.6016 38.4033 28.6016H38.2393V27.8633H41.5273V36.8457C41.5273 37.2057 41.6299 37.4473 41.835 37.5703C42.0446 37.6934 42.2747 37.7549 42.5254 37.7549H42.6895V38.5H38.2393ZM44.1387 28.7246C44.1387 28.3783 44.2503 28.1253 44.4736 27.9658C44.7015 27.8018 44.9863 27.7197 45.3281 27.7197C45.6608 27.7197 45.9434 27.8018 46.1758 27.9658C46.4128 28.1253 46.5312 28.3783 46.5312 28.7246C46.5312 29.0618 46.4128 29.3148 46.1758 29.4834C45.9388 29.652 45.6562 29.7363 45.3281 29.7363C44.9863 29.7363 44.7015 29.652 44.4736 29.4834C44.2503 29.3148 44.1387 29.0618 44.1387 28.7246ZM43.1748 38.5V37.7549H43.3389C43.5941 37.7549 43.8242 37.6934 44.0293 37.5703C44.2344 37.4473 44.3369 37.2057 44.3369 36.8457V32.5938C44.3369 32.252 44.2321 32.0241 44.0225 31.9102C43.8128 31.7962 43.585 31.7393 43.3389 31.7393H43.1748V30.9941H46.4629V36.8457C46.4629 37.2057 46.5654 37.4473 46.7705 37.5703C46.9801 37.6934 47.2103 37.7549 47.4609 37.7549H47.625V38.5H43.1748ZM51.1045 38.6367C50.5986 38.6367 50.168 38.5957 49.8125 38.5137C49.457 38.4316 49.1654 38.3177 48.9375 38.1719C48.7142 38.026 48.5501 37.8529 48.4453 37.6523C48.3405 37.4518 48.2881 37.2354 48.2881 37.0029C48.2881 36.7249 48.3542 36.5085 48.4863 36.3535C48.6185 36.1986 48.7848 36.0915 48.9854 36.0322C49.1859 35.9684 49.3887 35.9365 49.5938 35.9365C49.5938 36.4925 49.7282 36.946 49.9971 37.2969C50.266 37.6432 50.6351 37.8164 51.1045 37.8164C51.5374 37.8164 51.877 37.7298 52.123 37.5566C52.3691 37.3835 52.4922 37.151 52.4922 36.8594C52.4922 36.554 52.3691 36.3011 52.123 36.1006C51.8724 35.9001 51.4212 35.6882 50.7695 35.4648C50.3913 35.3327 50.0586 35.1937 49.7715 35.0479C49.4844 34.8975 49.2406 34.7266 49.04 34.5352C48.6344 34.1523 48.4316 33.6579 48.4316 33.0518C48.4316 32.6781 48.5023 32.3522 48.6436 32.0742C48.7894 31.7917 48.9945 31.5592 49.2588 31.377C49.5231 31.1901 49.8398 31.0534 50.209 30.9668C50.5781 30.8757 50.9883 30.8301 51.4395 30.8301C51.8815 30.8301 52.2575 30.8688 52.5674 30.9463C52.8773 31.0192 53.1302 31.1172 53.3262 31.2402C53.5221 31.3633 53.6657 31.5023 53.7568 31.6572C53.848 31.8122 53.8936 31.9694 53.8936 32.1289C53.8936 32.4434 53.7819 32.6826 53.5586 32.8467C53.3398 33.0107 52.9753 33.0928 52.4648 33.0928C52.4648 32.6279 52.36 32.2679 52.1504 32.0127C51.9453 31.7529 51.64 31.623 51.2344 31.623C50.929 31.623 50.6624 31.696 50.4346 31.8418C50.2113 31.9876 50.0996 32.2041 50.0996 32.4912C50.0996 32.6416 50.1292 32.776 50.1885 32.8945C50.2477 33.013 50.348 33.1247 50.4893 33.2295C50.6351 33.3389 50.8288 33.4482 51.0703 33.5576C51.3164 33.667 51.6309 33.7878 52.0137 33.9199C52.3236 34.0293 52.6084 34.1546 52.8682 34.2959C53.1325 34.4326 53.3604 34.5898 53.5518 34.7676C53.7386 34.9499 53.8844 35.1572 53.9893 35.3896C54.0941 35.6175 54.1465 35.8796 54.1465 36.1758C54.1465 36.9596 53.8822 37.5635 53.3535 37.9873C52.8158 38.4202 52.0661 38.6367 51.1045 38.6367ZM59.1025 37.5088C59.2848 37.5088 59.458 37.4974 59.6221 37.4746C59.7907 37.4473 59.9479 37.4154 60.0938 37.3789V38.2881C59.9115 38.3747 59.638 38.4544 59.2734 38.5273C58.9134 38.6003 58.526 38.6367 58.1113 38.6367C57.7969 38.6367 57.512 38.598 57.2568 38.5205C57.0016 38.4476 56.7852 38.3223 56.6074 38.1445C56.4297 37.9714 56.293 37.7458 56.1973 37.4678C56.1016 37.1852 56.0537 36.8389 56.0537 36.4287V31.9512H55.001V31.2334C55.3018 31.2334 55.5706 31.1742 55.8076 31.0557C56.0446 30.9372 56.2337 30.8005 56.375 30.6455C56.6576 30.3493 56.8717 29.8867 57.0176 29.2578H58.1797V30.9941H59.9707V31.9512H58.1797V36.2852C58.1797 36.709 58.2503 37.0189 58.3916 37.2148C58.5374 37.4108 58.7744 37.5088 59.1025 37.5088Z" fill="black"/>
<path d="M16.6514 59.0703C16.7718 59.0703 16.8825 59.0638 16.9834 59.0508C17.0843 59.0378 17.1868 59.0215 17.291 59.002V59.4414C17.1999 59.4837 17.0648 59.5195 16.8857 59.5488C16.71 59.5814 16.5488 59.5977 16.4023 59.5977C15.8913 59.5977 15.5234 59.4837 15.2988 59.2559C15.0677 59.0215 14.9521 58.6195 14.9521 58.0498V54.71H14.1904V54.3096C14.3109 54.3096 14.4427 54.2852 14.5859 54.2363C14.7324 54.1875 14.861 54.1061 14.9717 53.9922C15.0856 53.8685 15.1768 53.722 15.2451 53.5527C15.3167 53.3802 15.3786 53.1654 15.4307 52.9082H15.8896V54.1387H17.1982V54.71H15.8896V58.0791C15.8896 58.4209 15.958 58.6715 16.0947 58.8311C16.2347 58.9906 16.4202 59.0703 16.6514 59.0703ZM20.3965 59.5977C19.6641 59.5977 19.096 59.3584 18.6924 58.8799C18.4938 58.6455 18.3408 58.359 18.2334 58.0205C18.1292 57.6787 18.0771 57.2913 18.0771 56.8584C18.0771 55.9242 18.2692 55.221 18.6533 54.749C19.0374 54.277 19.5843 54.041 20.2939 54.041C20.9548 54.041 21.4626 54.2412 21.8174 54.6416C21.9964 54.8402 22.1331 55.0892 22.2275 55.3887C22.3252 55.6882 22.374 56.0348 22.374 56.4287V56.8877H19.0439C19.057 57.6104 19.1904 58.1393 19.4443 58.4746C19.6885 58.8034 20.0514 58.9678 20.5332 58.9678C20.849 58.9678 21.1338 58.901 21.3877 58.7676C21.6449 58.6341 21.8369 58.4681 21.9639 58.2695C22.0094 58.2891 22.0518 58.3298 22.0908 58.3916C22.1331 58.4535 22.1543 58.5267 22.1543 58.6113C22.1543 58.7122 22.1185 58.8213 22.0469 58.9385C21.9753 59.0524 21.8662 59.1582 21.7197 59.2559C21.5732 59.3535 21.3893 59.4349 21.168 59.5C20.9499 59.5651 20.6927 59.5977 20.3965 59.5977ZM20.2744 54.5781C19.9033 54.5781 19.6169 54.7295 19.415 55.0322C19.2165 55.3317 19.0993 55.7712 19.0635 56.3506H21.3633C21.3633 56.0869 21.3438 55.846 21.3047 55.6279C21.2656 55.4098 21.2038 55.2227 21.1191 55.0664C21.0345 54.9102 20.9222 54.7897 20.7822 54.7051C20.6455 54.6204 20.4762 54.5781 20.2744 54.5781ZM26.7148 54.8516C26.7148 54.7311 26.6628 54.653 26.5586 54.6172C26.4577 54.5781 26.3307 54.5586 26.1777 54.5586H26.1484V54.1387H28.3359V54.5586H28.248C28.0299 54.5586 27.8525 54.6042 27.7158 54.6953C27.5791 54.7865 27.4196 54.9541 27.2373 55.1982L26.207 56.5703L27.6768 58.5479C27.8232 58.7432 27.9616 58.8815 28.0918 58.9629C28.2253 59.041 28.3538 59.0801 28.4775 59.0801H28.6094V59.5H26.0264V59.0801H26.0752C26.4756 59.0801 26.6758 58.9694 26.6758 58.748C26.6758 58.6634 26.6432 58.5706 26.5781 58.4697C26.5163 58.3656 26.4219 58.2288 26.2949 58.0596L25.626 57.1611L24.9277 58.1377C24.8659 58.2191 24.8057 58.32 24.7471 58.4404C24.6885 58.5576 24.6592 58.6667 24.6592 58.7676C24.6592 58.8815 24.7064 58.9629 24.8008 59.0117C24.8952 59.0573 25.0547 59.0801 25.2793 59.0801H25.3086V59.5H22.9258V59.0801H23.0186C23.2692 59.0801 23.4661 59.0329 23.6094 58.9385C23.7559 58.8441 23.9219 58.6781 24.1074 58.4404L25.3672 56.8096L24.1074 55.0908C23.9609 54.9183 23.8177 54.7865 23.6777 54.6953C23.541 54.6042 23.3978 54.5586 23.248 54.5586H23.1162V54.1387H25.6553V54.5586H25.626C25.2451 54.5586 25.0547 54.6562 25.0547 54.8516C25.0547 54.9199 25.0742 54.9883 25.1133 55.0566C25.1556 55.1217 25.2142 55.2064 25.2891 55.3105L25.9482 56.209L26.4658 55.4619C26.5407 55.348 26.6009 55.2406 26.6465 55.1396C26.6921 55.0387 26.7148 54.9427 26.7148 54.8516ZM31.3096 59.0703C31.43 59.0703 31.5407 59.0638 31.6416 59.0508C31.7425 59.0378 31.8451 59.0215 31.9492 59.002V59.4414C31.8581 59.4837 31.723 59.5195 31.5439 59.5488C31.3682 59.5814 31.207 59.5977 31.0605 59.5977C30.5495 59.5977 30.1816 59.4837 29.957 59.2559C29.7259 59.0215 29.6104 58.6195 29.6104 58.0498V54.71H28.8486V54.3096C28.9691 54.3096 29.1009 54.2852 29.2441 54.2363C29.3906 54.1875 29.5192 54.1061 29.6299 53.9922C29.7438 53.8685 29.835 53.722 29.9033 53.5527C29.9749 53.3802 30.0368 53.1654 30.0889 52.9082H30.5479V54.1387H31.8564V54.71H30.5479V58.0791C30.5479 58.4209 30.6162 58.6715 30.7529 58.8311C30.8929 58.9906 31.0785 59.0703 31.3096 59.0703ZM37.4326 59.0703C37.5531 59.0703 37.6637 59.0638 37.7646 59.0508C37.8656 59.0378 37.9681 59.0215 38.0723 59.002V59.4414C37.9811 59.4837 37.846 59.5195 37.667 59.5488C37.4912 59.5814 37.3301 59.5977 37.1836 59.5977C36.6725 59.5977 36.3047 59.4837 36.0801 59.2559C35.849 59.0215 35.7334 58.6195 35.7334 58.0498V54.71H34.9717V54.3096C35.0921 54.3096 35.224 54.2852 35.3672 54.2363C35.5137 54.1875 35.6423 54.1061 35.7529 53.9922C35.8669 53.8685 35.958 53.722 36.0264 53.5527C36.098 53.3802 36.1598 53.1654 36.2119 52.9082H36.6709V54.1387H37.9795V54.71H36.6709V58.0791C36.6709 58.4209 36.7393 58.6715 36.876 58.8311C37.016 58.9906 37.2015 59.0703 37.4326 59.0703ZM41.1777 59.5977C40.4453 59.5977 39.8773 59.3584 39.4736 58.8799C39.2751 58.6455 39.1221 58.359 39.0146 58.0205C38.9105 57.6787 38.8584 57.2913 38.8584 56.8584C38.8584 55.9242 39.0505 55.221 39.4346 54.749C39.8187 54.277 40.3656 54.041 41.0752 54.041C41.736 54.041 42.2438 54.2412 42.5986 54.6416C42.7777 54.8402 42.9144 55.0892 43.0088 55.3887C43.1064 55.6882 43.1553 56.0348 43.1553 56.4287V56.8877H39.8252C39.8382 57.6104 39.9717 58.1393 40.2256 58.4746C40.4697 58.8034 40.8327 58.9678 41.3145 58.9678C41.6302 58.9678 41.915 58.901 42.1689 58.7676C42.4261 58.6341 42.6182 58.4681 42.7451 58.2695C42.7907 58.2891 42.833 58.3298 42.8721 58.3916C42.9144 58.4535 42.9355 58.5267 42.9355 58.6113C42.9355 58.7122 42.8997 58.8213 42.8281 58.9385C42.7565 59.0524 42.6475 59.1582 42.501 59.2559C42.3545 59.3535 42.1706 59.4349 41.9492 59.5C41.7311 59.5651 41.474 59.5977 41.1777 59.5977ZM41.0557 54.5781C40.6846 54.5781 40.3981 54.7295 40.1963 55.0322C39.9977 55.3317 39.8805 55.7712 39.8447 56.3506H42.1445C42.1445 56.0869 42.125 55.846 42.0859 55.6279C42.0469 55.4098 41.985 55.2227 41.9004 55.0664C41.8158 54.9102 41.7035 54.7897 41.5635 54.7051C41.4268 54.6204 41.2575 54.5781 41.0557 54.5781ZM47.4961 54.8516C47.4961 54.7311 47.444 54.653 47.3398 54.6172C47.2389 54.5781 47.112 54.5586 46.959 54.5586H46.9297V54.1387H49.1172V54.5586H49.0293C48.8112 54.5586 48.6338 54.6042 48.4971 54.6953C48.3604 54.7865 48.2008 54.9541 48.0186 55.1982L46.9883 56.5703L48.458 58.5479C48.6045 58.7432 48.7428 58.8815 48.873 58.9629C49.0065 59.041 49.1351 59.0801 49.2588 59.0801H49.3906V59.5H46.8076V59.0801H46.8564C47.2568 59.0801 47.457 58.9694 47.457 58.748C47.457 58.6634 47.4245 58.5706 47.3594 58.4697C47.2975 58.3656 47.2031 58.2288 47.0762 58.0596L46.4072 57.1611L45.709 58.1377C45.6471 58.2191 45.5869 58.32 45.5283 58.4404C45.4697 58.5576 45.4404 58.6667 45.4404 58.7676C45.4404 58.8815 45.4876 58.9629 45.582 59.0117C45.6764 59.0573 45.8359 59.0801 46.0605 59.0801H46.0898V59.5H43.707V59.0801H43.7998C44.0505 59.0801 44.2474 59.0329 44.3906 58.9385C44.5371 58.8441 44.7031 58.6781 44.8887 58.4404L46.1484 56.8096L44.8887 55.0908C44.7422 54.9183 44.599 54.7865 44.459 54.6953C44.3223 54.6042 44.179 54.5586 44.0293 54.5586H43.8975V54.1387H46.4365V54.5586H46.4072C46.0264 54.5586 45.8359 54.6562 45.8359 54.8516C45.8359 54.9199 45.8555 54.9883 45.8945 55.0566C45.9368 55.1217 45.9954 55.2064 46.0703 55.3105L46.7295 56.209L47.2471 55.4619C47.3219 55.348 47.3822 55.2406 47.4277 55.1396C47.4733 55.0387 47.4961 54.9427 47.4961 54.8516ZM52.0908 59.0703C52.2113 59.0703 52.3219 59.0638 52.4229 59.0508C52.5238 59.0378 52.6263 59.0215 52.7305 59.002V59.4414C52.6393 59.4837 52.5042 59.5195 52.3252 59.5488C52.1494 59.5814 51.9883 59.5977 51.8418 59.5977C51.3307 59.5977 50.9629 59.4837 50.7383 59.2559C50.5072 59.0215 50.3916 58.6195 50.3916 58.0498V54.71H49.6299V54.3096C49.7503 54.3096 49.8822 54.2852 50.0254 54.2363C50.1719 54.1875 50.3005 54.1061 50.4111 53.9922C50.5251 53.8685 50.6162 53.722 50.6846 53.5527C50.7562 53.3802 50.818 53.1654 50.8701 52.9082H51.3291V54.1387H52.6377V54.71H51.3291V58.0791C51.3291 58.4209 51.3975 58.6715 51.5342 58.8311C51.6742 58.9906 51.8597 59.0703 52.0908 59.0703ZM58.2139 59.0703C58.3343 59.0703 58.445 59.0638 58.5459 59.0508C58.6468 59.0378 58.7493 59.0215 58.8535 59.002V59.4414C58.7624 59.4837 58.6273 59.5195 58.4482 59.5488C58.2725 59.5814 58.1113 59.5977 57.9648 59.5977C57.4538 59.5977 57.0859 59.4837 56.8613 59.2559C56.6302 59.0215 56.5146 58.6195 56.5146 58.0498V54.71H55.7529V54.3096C55.8734 54.3096 56.0052 54.2852 56.1484 54.2363C56.2949 54.1875 56.4235 54.1061 56.5342 53.9922C56.6481 53.8685 56.7393 53.722 56.8076 53.5527C56.8792 53.3802 56.9411 53.1654 56.9932 52.9082H57.4521V54.1387H58.7607V54.71H57.4521V58.0791C57.4521 58.4209 57.5205 58.6715 57.6572 58.8311C57.7972 58.9906 57.9827 59.0703 58.2139 59.0703ZM61.959 59.5977C61.2266 59.5977 60.6585 59.3584 60.2549 58.8799C60.0563 58.6455 59.9033 58.359 59.7959 58.0205C59.6917 57.6787 59.6396 57.2913 59.6396 56.8584C59.6396 55.9242 59.8317 55.221 60.2158 54.749C60.5999 54.277 61.1468 54.041 61.8564 54.041C62.5173 54.041 63.0251 54.2412 63.3799 54.6416C63.5589 54.8402 63.6956 55.0892 63.79 55.3887C63.8877 55.6882 63.9365 56.0348 63.9365 56.4287V56.8877H60.6064C60.6195 57.6104 60.7529 58.1393 61.0068 58.4746C61.251 58.8034 61.6139 58.9678 62.0957 58.9678C62.4115 58.9678 62.6963 58.901 62.9502 58.7676C63.2074 58.6341 63.3994 58.4681 63.5264 58.2695C63.5719 58.2891 63.6143 58.3298 63.6533 58.3916C63.6956 58.4535 63.7168 58.5267 63.7168 58.6113C63.7168 58.7122 63.681 58.8213 63.6094 58.9385C63.5378 59.0524 63.4287 59.1582 63.2822 59.2559C63.1357 59.3535 62.9518 59.4349 62.7305 59.5C62.5124 59.5651 62.2552 59.5977 61.959 59.5977ZM61.8369 54.5781C61.4658 54.5781 61.1794 54.7295 60.9775 55.0322C60.779 55.3317 60.6618 55.7712 60.626 56.3506H62.9258C62.9258 56.0869 62.9062 55.846 62.8672 55.6279C62.8281 55.4098 62.7663 55.2227 62.6816 55.0664C62.597 54.9102 62.4847 54.7897 62.3447 54.7051C62.208 54.6204 62.0387 54.5781 61.8369 54.5781ZM68.2773 54.8516C68.2773 54.7311 68.2253 54.653 68.1211 54.6172C68.0202 54.5781 67.8932 54.5586 67.7402 54.5586H67.7109V54.1387H69.8984V54.5586H69.8105C69.5924 54.5586 69.415 54.6042 69.2783 54.6953C69.1416 54.7865 68.9821 54.9541 68.7998 55.1982L67.7695 56.5703L69.2393 58.5479C69.3857 58.7432 69.5241 58.8815 69.6543 58.9629C69.7878 59.041 69.9163 59.0801 70.04 59.0801H70.1719V59.5H67.5889V59.0801H67.6377C68.0381 59.0801 68.2383 58.9694 68.2383 58.748C68.2383 58.6634 68.2057 58.5706 68.1406 58.4697C68.0788 58.3656 67.9844 58.2288 67.8574 58.0596L67.1885 57.1611L66.4902 58.1377C66.4284 58.2191 66.3682 58.32 66.3096 58.4404C66.251 58.5576 66.2217 58.6667 66.2217 58.7676C66.2217 58.8815 66.2689 58.9629 66.3633 59.0117C66.4577 59.0573 66.6172 59.0801 66.8418 59.0801H66.8711V59.5H64.4883V59.0801H64.5811C64.8317 59.0801 65.0286 59.0329 65.1719 58.9385C65.3184 58.8441 65.4844 58.6781 65.6699 58.4404L66.9297 56.8096L65.6699 55.0908C65.5234 54.9183 65.3802 54.7865 65.2402 54.6953C65.1035 54.6042 64.9603 54.5586 64.8105 54.5586H64.6787V54.1387H67.2178V54.5586H67.1885C66.8076 54.5586 66.6172 54.6562 66.6172 54.8516C66.6172 54.9199 66.6367 54.9883 66.6758 55.0566C66.7181 55.1217 66.7767 55.2064 66.8516 55.3105L67.5107 56.209L68.0283 55.4619C68.1032 55.348 68.1634 55.2406 68.209 55.1396C68.2546 55.0387 68.2773 54.9427 68.2773 54.8516ZM72.8721 59.0703C72.9925 59.0703 73.1032 59.0638 73.2041 59.0508C73.305 59.0378 73.4076 59.0215 73.5117 59.002V59.4414C73.4206 59.4837 73.2855 59.5195 73.1064 59.5488C72.9307 59.5814 72.7695 59.5977 72.623 59.5977C72.112 59.5977 71.7441 59.4837 71.5195 59.2559C71.2884 59.0215 71.1729 58.6195 71.1729 58.0498V54.71H70.4111V54.3096C70.5316 54.3096 70.6634 54.2852 70.8066 54.2363C70.9531 54.1875 71.0817 54.1061 71.1924 53.9922C71.3063 53.8685 71.3975 53.722 71.4658 53.5527C71.5374 53.3802 71.5993 53.1654 71.6514 52.9082H72.1104V54.1387H73.4189V54.71H72.1104V58.0791C72.1104 58.4209 72.1787 58.6715 72.3154 58.8311C72.4554 58.9906 72.641 59.0703 72.8721 59.0703ZM16.6514 72.0703C16.7718 72.0703 16.8825 72.0638 16.9834 72.0508C17.0843 72.0378 17.1868 72.0215 17.291 72.002V72.4414C17.1999 72.4837 17.0648 72.5195 16.8857 72.5488C16.71 72.5814 16.5488 72.5977 16.4023 72.5977C15.8913 72.5977 15.5234 72.4837 15.2988 72.2559C15.0677 72.0215 14.9521 71.6195 14.9521 71.0498V67.71H14.1904V67.3096C14.3109 67.3096 14.4427 67.2852 14.5859 67.2363C14.7324 67.1875 14.861 67.1061 14.9717 66.9922C15.0856 66.8685 15.1768 66.722 15.2451 66.5527C15.3167 66.3802 15.3786 66.1654 15.4307 65.9082H15.8896V67.1387H17.1982V67.71H15.8896V71.0791C15.8896 71.4209 15.958 71.6715 16.0947 71.8311C16.2347 71.9906 16.4202 72.0703 16.6514 72.0703ZM20.3965 72.5977C19.6641 72.5977 19.096 72.3584 18.6924 71.8799C18.4938 71.6455 18.3408 71.359 18.2334 71.0205C18.1292 70.6787 18.0771 70.2913 18.0771 69.8584C18.0771 68.9242 18.2692 68.221 18.6533 67.749C19.0374 67.277 19.5843 67.041 20.2939 67.041C20.9548 67.041 21.4626 67.2412 21.8174 67.6416C21.9964 67.8402 22.1331 68.0892 22.2275 68.3887C22.3252 68.6882 22.374 69.0348 22.374 69.4287V69.8877H19.0439C19.057 70.6104 19.1904 71.1393 19.4443 71.4746C19.6885 71.8034 20.0514 71.9678 20.5332 71.9678C20.849 71.9678 21.1338 71.901 21.3877 71.7676C21.6449 71.6341 21.8369 71.4681 21.9639 71.2695C22.0094 71.2891 22.0518 71.3298 22.0908 71.3916C22.1331 71.4535 22.1543 71.5267 22.1543 71.6113C22.1543 71.7122 22.1185 71.8213 22.0469 71.9385C21.9753 72.0524 21.8662 72.1582 21.7197 72.2559C21.5732 72.3535 21.3893 72.4349 21.168 72.5C20.9499 72.5651 20.6927 72.5977 20.3965 72.5977ZM20.2744 67.5781C19.9033 67.5781 19.6169 67.7295 19.415 68.0322C19.2165 68.3317 19.0993 68.7712 19.0635 69.3506H21.3633C21.3633 69.0869 21.3438 68.846 21.3047 68.6279C21.2656 68.4098 21.2038 68.2227 21.1191 68.0664C21.0345 67.9102 20.9222 67.7897 20.7822 67.7051C20.6455 67.6204 20.4762 67.5781 20.2744 67.5781ZM26.7148 67.8516C26.7148 67.7311 26.6628 67.653 26.5586 67.6172C26.4577 67.5781 26.3307 67.5586 26.1777 67.5586H26.1484V67.1387H28.3359V67.5586H28.248C28.0299 67.5586 27.8525 67.6042 27.7158 67.6953C27.5791 67.7865 27.4196 67.9541 27.2373 68.1982L26.207 69.5703L27.6768 71.5479C27.8232 71.7432 27.9616 71.8815 28.0918 71.9629C28.2253 72.041 28.3538 72.0801 28.4775 72.0801H28.6094V72.5H26.0264V72.0801H26.0752C26.4756 72.0801 26.6758 71.9694 26.6758 71.748C26.6758 71.6634 26.6432 71.5706 26.5781 71.4697C26.5163 71.3656 26.4219 71.2288 26.2949 71.0596L25.626 70.1611L24.9277 71.1377C24.8659 71.2191 24.8057 71.32 24.7471 71.4404C24.6885 71.5576 24.6592 71.6667 24.6592 71.7676C24.6592 71.8815 24.7064 71.9629 24.8008 72.0117C24.8952 72.0573 25.0547 72.0801 25.2793 72.0801H25.3086V72.5H22.9258V72.0801H23.0186C23.2692 72.0801 23.4661 72.0329 23.6094 71.9385C23.7559 71.8441 23.9219 71.6781 24.1074 71.4404L25.3672 69.8096L24.1074 68.0908C23.9609 67.9183 23.8177 67.7865 23.6777 67.6953C23.541 67.6042 23.3978 67.5586 23.248 67.5586H23.1162V67.1387H25.6553V67.5586H25.626C25.2451 67.5586 25.0547 67.6562 25.0547 67.8516C25.0547 67.9199 25.0742 67.9883 25.1133 68.0566C25.1556 68.1217 25.2142 68.2064 25.2891 68.3105L25.9482 69.209L26.4658 68.4619C26.5407 68.348 26.6009 68.2406 26.6465 68.1396C26.6921 68.0387 26.7148 67.9427 26.7148 67.8516ZM31.3096 72.0703C31.43 72.0703 31.5407 72.0638 31.6416 72.0508C31.7425 72.0378 31.8451 72.0215 31.9492 72.002V72.4414C31.8581 72.4837 31.723 72.5195 31.5439 72.5488C31.3682 72.5814 31.207 72.5977 31.0605 72.5977C30.5495 72.5977 30.1816 72.4837 29.957 72.2559C29.7259 72.0215 29.6104 71.6195 29.6104 71.0498V67.71H28.8486V67.3096C28.9691 67.3096 29.1009 67.2852 29.2441 67.2363C29.3906 67.1875 29.5192 67.1061 29.6299 66.9922C29.7438 66.8685 29.835 66.722 29.9033 66.5527C29.9749 66.3802 30.0368 66.1654 30.0889 65.9082H30.5479V67.1387H31.8564V67.71H30.5479V71.0791C30.5479 71.4209 30.6162 71.6715 30.7529 71.8311C30.8929 71.9906 31.0785 72.0703 31.3096 72.0703ZM37.4326 72.0703C37.5531 72.0703 37.6637 72.0638 37.7646 72.0508C37.8656 72.0378 37.9681 72.0215 38.0723 72.002V72.4414C37.9811 72.4837 37.846 72.5195 37.667 72.5488C37.4912 72.5814 37.3301 72.5977 37.1836 72.5977C36.6725 72.5977 36.3047 72.4837 36.0801 72.2559C35.849 72.0215 35.7334 71.6195 35.7334 71.0498V67.71H34.9717V67.3096C35.0921 67.3096 35.224 67.2852 35.3672 67.2363C35.5137 67.1875 35.6423 67.1061 35.7529 66.9922C35.8669 66.8685 35.958 66.722 36.0264 66.5527C36.098 66.3802 36.1598 66.1654 36.2119 65.9082H36.6709V67.1387H37.9795V67.71H36.6709V71.0791C36.6709 71.4209 36.7393 71.6715 36.876 71.8311C37.016 71.9906 37.2015 72.0703 37.4326 72.0703ZM41.1777 72.5977C40.4453 72.5977 39.8773 72.3584 39.4736 71.8799C39.2751 71.6455 39.1221 71.359 39.0146 71.0205C38.9105 70.6787 38.8584 70.2913 38.8584 69.8584C38.8584 68.9242 39.0505 68.221 39.4346 67.749C39.8187 67.277 40.3656 67.041 41.0752 67.041C41.736 67.041 42.2438 67.2412 42.5986 67.6416C42.7777 67.8402 42.9144 68.0892 43.0088 68.3887C43.1064 68.6882 43.1553 69.0348 43.1553 69.4287V69.8877H39.8252C39.8382 70.6104 39.9717 71.1393 40.2256 71.4746C40.4697 71.8034 40.8327 71.9678 41.3145 71.9678C41.6302 71.9678 41.915 71.901 42.1689 71.7676C42.4261 71.6341 42.6182 71.4681 42.7451 71.2695C42.7907 71.2891 42.833 71.3298 42.8721 71.3916C42.9144 71.4535 42.9355 71.5267 42.9355 71.6113C42.9355 71.7122 42.8997 71.8213 42.8281 71.9385C42.7565 72.0524 42.6475 72.1582 42.501 72.2559C42.3545 72.3535 42.1706 72.4349 41.9492 72.5C41.7311 72.5651 41.474 72.5977 41.1777 72.5977ZM41.0557 67.5781C40.6846 67.5781 40.3981 67.7295 40.1963 68.0322C39.9977 68.3317 39.8805 68.7712 39.8447 69.3506H42.1445C42.1445 69.0869 42.125 68.846 42.0859 68.6279C42.0469 68.4098 41.985 68.2227 41.9004 68.0664C41.8158 67.9102 41.7035 67.7897 41.5635 67.7051C41.4268 67.6204 41.2575 67.5781 41.0557 67.5781ZM47.4961 67.8516C47.4961 67.7311 47.444 67.653 47.3398 67.6172C47.2389 67.5781 47.112 67.5586 46.959 67.5586H46.9297V67.1387H49.1172V67.5586H49.0293C48.8112 67.5586 48.6338 67.6042 48.4971 67.6953C48.3604 67.7865 48.2008 67.9541 48.0186 68.1982L46.9883 69.5703L48.458 71.5479C48.6045 71.7432 48.7428 71.8815 48.873 71.9629C49.0065 72.041 49.1351 72.0801 49.2588 72.0801H49.3906V72.5H46.8076V72.0801H46.8564C47.2568 72.0801 47.457 71.9694 47.457 71.748C47.457 71.6634 47.4245 71.5706 47.3594 71.4697C47.2975 71.3656 47.2031 71.2288 47.0762 71.0596L46.4072 70.1611L45.709 71.1377C45.6471 71.2191 45.5869 71.32 45.5283 71.4404C45.4697 71.5576 45.4404 71.6667 45.4404 71.7676C45.4404 71.8815 45.4876 71.9629 45.582 72.0117C45.6764 72.0573 45.8359 72.0801 46.0605 72.0801H46.0898V72.5H43.707V72.0801H43.7998C44.0505 72.0801 44.2474 72.0329 44.3906 71.9385C44.5371 71.8441 44.7031 71.6781 44.8887 71.4404L46.1484 69.8096L44.8887 68.0908C44.7422 67.9183 44.599 67.7865 44.459 67.6953C44.3223 67.6042 44.179 67.5586 44.0293 67.5586H43.8975V67.1387H46.4365V67.5586H46.4072C46.0264 67.5586 45.8359 67.6562 45.8359 67.8516C45.8359 67.9199 45.8555 67.9883 45.8945 68.0566C45.9368 68.1217 45.9954 68.2064 46.0703 68.3105L46.7295 69.209L47.2471 68.4619C47.3219 68.348 47.3822 68.2406 47.4277 68.1396C47.4733 68.0387 47.4961 67.9427 47.4961 67.8516ZM52.0908 72.0703C52.2113 72.0703 52.3219 72.0638 52.4229 72.0508C52.5238 72.0378 52.6263 72.0215 52.7305 72.002V72.4414C52.6393 72.4837 52.5042 72.5195 52.3252 72.5488C52.1494 72.5814 51.9883 72.5977 51.8418 72.5977C51.3307 72.5977 50.9629 72.4837 50.7383 72.2559C50.5072 72.0215 50.3916 71.6195 50.3916 71.0498V67.71H49.6299V67.3096C49.7503 67.3096 49.8822 67.2852 50.0254 67.2363C50.1719 67.1875 50.3005 67.1061 50.4111 66.9922C50.5251 66.8685 50.6162 66.722 50.6846 66.5527C50.7562 66.3802 50.818 66.1654 50.8701 65.9082H51.3291V67.1387H52.6377V67.71H51.3291V71.0791C51.3291 71.4209 51.3975 71.6715 51.5342 71.8311C51.6742 71.9906 51.8597 72.0703 52.0908 72.0703ZM58.2139 72.0703C58.3343 72.0703 58.445 72.0638 58.5459 72.0508C58.6468 72.0378 58.7493 72.0215 58.8535 72.002V72.4414C58.7624 72.4837 58.6273 72.5195 58.4482 72.5488C58.2725 72.5814 58.1113 72.5977 57.9648 72.5977C57.4538 72.5977 57.0859 72.4837 56.8613 72.2559C56.6302 72.0215 56.5146 71.6195 56.5146 71.0498V67.71H55.7529V67.3096C55.8734 67.3096 56.0052 67.2852 56.1484 67.2363C56.2949 67.1875 56.4235 67.1061 56.5342 66.9922C56.6481 66.8685 56.7393 66.722 56.8076 66.5527C56.8792 66.3802 56.9411 66.1654 56.9932 65.9082H57.4521V67.1387H58.7607V67.71H57.4521V71.0791C57.4521 71.4209 57.5205 71.6715 57.6572 71.8311C57.7972 71.9906 57.9827 72.0703 58.2139 72.0703ZM61.959 72.5977C61.2266 72.5977 60.6585 72.3584 60.2549 71.8799C60.0563 71.6455 59.9033 71.359 59.7959 71.0205C59.6917 70.6787 59.6396 70.2913 59.6396 69.8584C59.6396 68.9242 59.8317 68.221 60.2158 67.749C60.5999 67.277 61.1468 67.041 61.8564 67.041C62.5173 67.041 63.0251 67.2412 63.3799 67.6416C63.5589 67.8402 63.6956 68.0892 63.79 68.3887C63.8877 68.6882 63.9365 69.0348 63.9365 69.4287V69.8877H60.6064C60.6195 70.6104 60.7529 71.1393 61.0068 71.4746C61.251 71.8034 61.6139 71.9678 62.0957 71.9678C62.4115 71.9678 62.6963 71.901 62.9502 71.7676C63.2074 71.6341 63.3994 71.4681 63.5264 71.2695C63.5719 71.2891 63.6143 71.3298 63.6533 71.3916C63.6956 71.4535 63.7168 71.5267 63.7168 71.6113C63.7168 71.7122 63.681 71.8213 63.6094 71.9385C63.5378 72.0524 63.4287 72.1582 63.2822 72.2559C63.1357 72.3535 62.9518 72.4349 62.7305 72.5C62.5124 72.5651 62.2552 72.5977 61.959 72.5977ZM61.8369 67.5781C61.4658 67.5781 61.1794 67.7295 60.9775 68.0322C60.779 68.3317 60.6618 68.7712 60.626 69.3506H62.9258C62.9258 69.0869 62.9062 68.846 62.8672 68.6279C62.8281 68.4098 62.7663 68.2227 62.6816 68.0664C62.597 67.9102 62.4847 67.7897 62.3447 67.7051C62.208 67.6204 62.0387 67.5781 61.8369 67.5781ZM68.2773 67.8516C68.2773 67.7311 68.2253 67.653 68.1211 67.6172C68.0202 67.5781 67.8932 67.5586 67.7402 67.5586H67.7109V67.1387H69.8984V67.5586H69.8105C69.5924 67.5586 69.415 67.6042 69.2783 67.6953C69.1416 67.7865 68.9821 67.9541 68.7998 68.1982L67.7695 69.5703L69.2393 71.5479C69.3857 71.7432 69.5241 71.8815 69.6543 71.9629C69.7878 72.041 69.9163 72.0801 70.04 72.0801H70.1719V72.5H67.5889V72.0801H67.6377C68.0381 72.0801 68.2383 71.9694 68.2383 71.748C68.2383 71.6634 68.2057 71.5706 68.1406 71.4697C68.0788 71.3656 67.9844 71.2288 67.8574 71.0596L67.1885 70.1611L66.4902 71.1377C66.4284 71.2191 66.3682 71.32 66.3096 71.4404C66.251 71.5576 66.2217 71.6667 66.2217 71.7676C66.2217 71.8815 66.2689 71.9629 66.3633 72.0117C66.4577 72.0573 66.6172 72.0801 66.8418 72.0801H66.8711V72.5H64.4883V72.0801H64.5811C64.8317 72.0801 65.0286 72.0329 65.1719 71.9385C65.3184 71.8441 65.4844 71.6781 65.6699 71.4404L66.9297 69.8096L65.6699 68.0908C65.5234 67.9183 65.3802 67.7865 65.2402 67.6953C65.1035 67.6042 64.9603 67.5586 64.8105 67.5586H64.6787V67.1387H67.2178V67.5586H67.1885C66.8076 67.5586 66.6172 67.6562 66.6172 67.8516C66.6172 67.9199 66.6367 67.9883 66.6758 68.0566C66.7181 68.1217 66.7767 68.2064 66.8516 68.3105L67.5107 69.209L68.0283 68.4619C68.1032 68.348 68.1634 68.2406 68.209 68.1396C68.2546 68.0387 68.2773 67.9427 68.2773 67.8516ZM72.8721 72.0703C72.9925 72.0703 73.1032 72.0638 73.2041 72.0508C73.305 72.0378 73.4076 72.0215 73.5117 72.002V72.4414C73.4206 72.4837 73.2855 72.5195 73.1064 72.5488C72.9307 72.5814 72.7695 72.5977 72.623 72.5977C72.112 72.5977 71.7441 72.4837 71.5195 72.2559C71.2884 72.0215 71.1729 71.6195 71.1729 71.0498V67.71H70.4111V67.3096C70.5316 67.3096 70.6634 67.2852 70.8066 67.2363C70.9531 67.1875 71.0817 67.1061 71.1924 66.9922C71.3063 66.8685 71.3975 66.722 71.4658 66.5527C71.5374 66.3802 71.5993 66.1654 71.6514 65.9082H72.1104V67.1387H73.4189V67.71H72.1104V71.0791C72.1104 71.4209 72.1787 71.6715 72.3154 71.8311C72.4554 71.9906 72.641 72.0703 72.8721 72.0703Z" fill="#BABABA"/>
</svg>
