<svg width="40" height="26" viewBox="0 0 40 26" fill="none" xmlns="http://www.w3.org/2000/svg">
<path d="M23.4756 0.370547C23.0464 0.123515 22.5677 0 22.0889 0C21.6065 0 21.1234 0.125938 20.6912 0.377188L11.5193 5.71133H5.64164C2.53133 5.71141 0 8.23836 0 11.3438V14.5923C0 17.6984 2.53133 20.2254 5.64164 20.2254H11.5193L20.6912 25.5588C21.1235 25.8101 21.6066 25.9354 22.0889 25.9354C22.5677 25.9354 23.0464 25.812 23.4756 25.5648C24.3378 25.0684 24.8697 24.1501 24.8697 23.1546V2.78078C24.8697 1.78602 24.3378 0.866484 23.4756 0.370547ZM10.6467 17.4446H5.64164C4.06164 17.4446 2.7807 16.1674 2.7807 14.5923V11.3438C2.7807 9.76875 4.06164 8.49148 5.64164 8.49148H10.6467V17.4446ZM22.0889 23.1547L12.2688 17.4446V8.49148H12.2695L22.0889 2.78078V23.1547Z" fill="white"/>
<path d="M32.438 6.14652C32.0687 5.73558 31.4353 5.70262 31.025 6.07316C30.6141 6.44246 30.5811 7.07527 30.9511 7.48613C32.3506 9.03918 33.0494 10.9994 33.0494 12.9669C33.0494 14.9351 32.3505 16.8953 30.9517 18.4477C30.5811 18.858 30.6142 19.4914 31.025 19.8614C31.4353 20.2313 32.0687 20.1982 32.438 19.788C34.18 17.8554 35.0525 15.4078 35.0518 12.9669C35.0525 10.5268 34.18 8.07863 32.438 6.14652Z" fill="white"/>
<path d="M27.341 9.38904C26.93 9.75834 26.897 10.3918 27.267 10.802C27.8221 11.4183 28.0973 12.1894 28.0985 12.9671C28.0974 13.7448 27.8221 14.5158 27.267 15.1328C26.897 15.5431 26.9301 16.1758 27.341 16.5458C27.7512 16.9164 28.3847 16.8827 28.7539 16.4725C29.6502 15.4783 30.1009 14.2194 30.1002 12.9672C30.1009 11.715 29.6502 10.4567 28.7539 9.46248C28.3847 9.05154 27.7512 9.0185 27.341 9.38904Z" fill="white"/>
</svg>
