<svg width="40" height="26" viewBox="0 0 40 26" fill="none" xmlns="http://www.w3.org/2000/svg">
<path d="M23.4756 0.370547C23.0464 0.123515 22.5677 0 22.0889 0C21.6065 0 21.1234 0.125938 20.6912 0.377188L11.5193 5.71133H5.64164C2.53133 5.71141 0 8.23836 0 11.3438V14.5923C0 17.6984 2.53133 20.2254 5.64164 20.2254H11.5193L20.6912 25.5588C21.1235 25.8101 21.6066 25.9354 22.0889 25.9354C22.5677 25.9354 23.0464 25.812 23.4756 25.5648C24.3378 25.0684 24.8697 24.1501 24.8697 23.1546V2.78078C24.8697 1.78602 24.3378 0.866484 23.4756 0.370547ZM10.6467 17.4446H5.64164C4.06164 17.4446 2.7807 16.1674 2.7807 14.5923V11.3438C2.7807 9.76875 4.06164 8.49148 5.64164 8.49148H10.6467V17.4446ZM22.0889 23.1547L12.2688 17.4446V8.49148H12.2695L22.0889 2.78078V23.1547Z" fill="white"/>
<rect x="28.4385" y="8" width="12" height="2" rx="1" transform="rotate(46 28.4385 8)" fill="white"/>
<rect x="27" y="16.5464" width="12" height="2" rx="1" transform="rotate(-45 27 16.5464)" fill="white"/>
</svg>
