<svg width="148" height="148" viewBox="0 0 148 148" fill="none" xmlns="http://www.w3.org/2000/svg">
<path d="M134.753 117.829H13.246V70.9094C13.246 67.0355 10.3733 63.8939 6.8291 63.8939H6.41574C2.8727 63.8939 0 67.0352 0 70.9094V147.89H13.246V132.311H134.753V147.854V147.949V148H148V132.311V117.829H134.753Z" fill="#8DDAEB"/>
<path d="M60.7168 86.5476V107.509V107.573V107.624H139.693V94.3765C139.693 87.8908 134.884 82.633 128.951 82.633L71.4584 74.8038C65.5256 74.8041 60.7168 80.0619 60.7168 86.5476Z" fill="#8DDAEB"/>
<path d="M38.6477 107.624C47.4818 107.624 54.6432 99.7943 54.6432 90.1361C54.6432 80.478 47.4818 72.6486 38.6477 72.6486C29.8136 72.6486 22.6521 80.478 22.6521 90.1361C22.6521 99.7943 29.8136 107.624 38.6477 107.624Z" fill="#8DDAEB"/>
<path d="M25.4785 7.42786L25.4808 7.44018L25.4874 7.48948L29.5375 6.78949L31.8512 6.41784L26.6379 17.7578L27.2397 21.9132L40.8924 19.5528L40.9115 19.549L40.9566 19.5417L40.2082 14.3665L35.9376 15.1047L33.4907 15.4988L38.7233 4.10454L38.1293 0L24.8145 2.30193L24.785 2.30698L24.7388 2.31457L25.4785 7.42786Z" fill="#8DDAEB"/>
<path d="M63.1192 35.5566L58.8781 34.5318L56.4777 33.9222L65.1744 25.3929L65.9965 21.3279L52.8077 18.1417L52.7797 18.1345L52.7346 18.1234L51.6989 23.2487L55.7143 24.2189L57.9906 24.7979L49.33 33.2838L48.4993 37.3984L62.084 40.6819L63.1192 35.5566Z" fill="#8DDAEB"/>
<path d="M31.4682 48.6704L31.4716 48.69H31.4728L31.4829 48.7393L35.2543 47.759L37.4087 47.2283L33.2468 58.3262L34.0868 62.195L46.8599 58.8755L45.8265 54.1265L45.823 54.1069H45.8219L45.8117 54.0586L41.8337 55.092L39.5564 55.6536L43.7342 44.5026L42.9032 40.6819L30.4351 43.9211L31.4682 48.6704Z" fill="#8DDAEB"/>
<path d="M21.9485 53.1491L9.30089 24.4326L9.25001 24.3166L9.22978 24.2708L5.06323 26.4633L17.782 55.3424L21.9485 53.1491Z" fill="#8DDAEB"/>
<path d="M65.9854 58.1237L69.8672 60.8741L87.7124 30.7777L83.8777 28.0605L83.8688 28.0545L83.8303 28.0273L65.9854 58.1237Z" fill="#8DDAEB"/>
</svg>
