<svg width="35" height="35" viewBox="0 0 35 35" fill="none" xmlns="http://www.w3.org/2000/svg">
<path d="M2.58247 21.1191L3.25991 21.3204L1.69086 22.9498L0.907946 23.7632L1.47246 24.7408L3.21664 27.7603L3.78005 28.7361L4.8738 28.4666L6.38091 28.0957L7.07886 27.929L6.53759 30.1262L6.26867 31.2197L7.2436 31.7833L10.2589 33.5273L11.2344 34.0915L12.048 33.3112L13.1716 32.234L13.6878 31.7459L14.3201 33.9192L14.6347 35H15.7605H19.2437H20.3714L20.6849 33.9172L21.1196 32.4146L21.3194 31.742L22.9563 33.3113L23.7699 34.0916L24.7454 33.5273L27.7607 31.7834L28.7356 31.2197L28.4664 30.1263L28.0961 28.6223L27.93 27.926L30.1308 28.4667L31.2258 28.7362L31.7887 27.7591L33.5282 24.7393L34.0902 23.7635L33.31 22.9513L32.2338 21.8313L31.7438 21.3141L33.9172 20.685L35 20.3715V19.2441V15.7564V14.6289L33.9172 14.3154L32.4283 13.8844L31.7423 13.6806L33.31 12.0491L34.0903 11.2368L33.5282 10.2611L31.7888 7.24124L31.2259 6.26418L30.1308 6.53365L28.6202 6.90484L27.9257 7.07041L28.4664 4.87409L28.7356 3.78062L27.7607 3.21692L24.7454 1.47301L23.7699 0.909043L22.9563 1.68902L21.8321 2.76678L21.3138 3.25678L20.6849 1.08315L20.3713 0H19.2436H15.7605H14.6347L14.3201 1.08097L13.8878 2.56642L13.6819 3.25562L12.048 1.68896L11.2344 0.908975L10.2589 1.47294L7.2436 3.21686L6.26867 3.78055L6.53759 4.87402L6.90905 6.38272L7.07435 7.07513L4.8738 6.53358L3.78005 6.26411L3.21664 7.23987L1.47246 10.2596L0.907946 11.2371L1.69086 12.0504L2.76533 13.1663L3.25827 13.6854L1.08308 14.3153L0 14.6289V15.7563V19.244V20.3714L1.08308 20.6849L2.58247 21.1191ZM4.57254 14.6922C4.66551 14.2773 4.77577 13.8711 4.90395 13.4695C4.93915 13.3589 4.91276 13.2353 4.83319 13.1512L2.77148 11.0099L4.51539 7.99012L7.40274 8.70092L7.48184 8.71131C7.57022 8.71131 7.65485 8.67289 7.71631 8.60822C7.99856 8.29473 8.29469 7.99887 8.60785 7.71641C8.69651 7.63704 8.73151 7.51803 8.70505 7.40318L7.99426 4.51555L11.0098 2.7719L13.1554 4.82911C13.2149 4.88865 13.2926 4.91935 13.3735 4.91935L13.4731 4.90417C13.8707 4.77654 14.2769 4.66573 14.6918 4.57304C14.8067 4.54665 14.8993 4.46277 14.9303 4.35224L15.7605 1.50042H19.2436L20.0695 4.35224C20.1045 4.46284 20.1975 4.54665 20.3078 4.57304C20.7227 4.66573 21.1334 4.77654 21.5307 4.90417L21.6285 4.91935C21.7094 4.91935 21.789 4.88865 21.8485 4.82911L23.9943 2.7719L27.0098 4.51555L26.299 7.40318C26.2724 7.51803 26.3077 7.63711 26.396 7.71641C26.7052 7.99894 27.0051 8.2948 27.2878 8.60822C27.3492 8.67289 27.4339 8.71131 27.5201 8.71131L27.597 8.70092L30.4887 7.99012L32.2284 11.0099L30.1709 13.1512C30.0913 13.2353 30.065 13.3589 30.1002 13.4695C30.2283 13.8711 30.3387 14.2773 30.4268 14.6922C30.4534 14.8071 30.5373 14.8997 30.6478 14.9307L33.4997 15.7564V19.2441L30.6478 20.0697C30.5372 20.101 30.4534 20.1934 30.4268 20.3082C30.3387 20.7231 30.2284 21.129 30.1002 21.5309C30.065 21.6415 30.0913 21.7651 30.1709 21.8492L32.2284 23.9905L30.4887 27.0103L27.597 26.2995L27.5201 26.2891C27.4339 26.2891 27.3492 26.3275 27.2878 26.3922C27.0051 26.7057 26.7052 27.0015 26.396 27.284C26.3076 27.3633 26.2723 27.4824 26.299 27.5975L27.0098 30.4849L23.9943 32.2288L21.8485 30.1713C21.789 30.1118 21.7094 30.0808 21.6285 30.0808L21.5307 30.0962C21.1334 30.2239 20.7227 30.3345 20.3078 30.4274C20.1975 30.4538 20.1045 30.5376 20.0695 30.6479L19.2436 33.5H15.7605L14.9303 30.6479C14.8993 30.5376 14.8067 30.4538 14.6918 30.4274C14.2769 30.3345 13.8707 30.2239 13.4731 30.0962L13.3735 30.0808C13.2926 30.0808 13.2149 30.1118 13.1554 30.1713L11.0098 32.2288L7.99426 30.4849L8.70505 27.5975C8.73144 27.4824 8.69644 27.3633 8.60785 27.284C8.29463 27.0015 7.99849 26.7056 7.71631 26.3922C7.65492 26.3275 7.57022 26.2891 7.48184 26.2891L7.40274 26.2995L4.51539 27.0103L2.77148 23.9905L4.83319 21.8492C4.91276 21.7651 4.93915 21.6415 4.90395 21.5309C4.77577 21.129 4.66551 20.7231 4.57254 20.3082C4.55067 20.1934 4.46686 20.101 4.35201 20.0697L1.49994 19.2441V15.7564L4.35201 14.9307C4.46686 14.8997 4.55067 14.8071 4.57254 14.6922Z" fill="#8ddaeb"/>
<path d="M17.4986 24.2094C21.1978 24.2094 24.2074 21.2 24.2074 17.5006C24.2074 13.8014 21.1978 10.792 17.4986 10.792C13.8008 10.792 10.7925 13.8014 10.7925 17.5006C10.7925 21.2 13.8008 24.2094 17.4986 24.2094ZM17.4986 22.7095C14.6231 22.7095 12.2923 20.3765 12.2923 17.5006C12.2923 14.625 14.623 12.2919 17.4986 12.2919C20.3769 12.2919 22.7075 14.625 22.7075 17.5006C22.7075 20.3765 20.3769 22.7095 17.4986 22.7095Z" fill="#8ddaeb"/>
</svg>
