<svg width="130" height="130" viewBox="0 0 130 130" fill="none" xmlns="http://www.w3.org/2000/svg">
<path d="M89.8074 52.636L89.8528 52.5944L89.8838 52.5664C89.4105 52.0548 88.9037 51.5846 88.4068 51.0994C88.0894 50.782 87.7721 50.4638 87.4427 50.1404L87.4417 50.1414C87.4318 50.1325 87.4229 50.1216 87.4128 50.1124L82.9994 55.0199C83.6915 55.6458 84.3669 56.3042 85.0088 57.0126L89.8074 52.636Z" fill="#FF9F47"/>
<path d="M37.4471 100.315L37.4133 100.347L37.3826 100.374C38.173 101.23 38.9961 102.054 39.8531 102.827L44.2665 97.9367C43.5743 97.3108 42.9 96.6354 42.2571 95.9272L37.4471 100.315Z" fill="#FF9F47"/>
<path d="M42.192 57.1279C42.8337 56.4198 43.5091 55.7451 44.2004 55.1195L39.7543 50.2448C39.3574 50.6109 38.9817 51.0232 38.5939 51.4132C38.1851 51.8169 37.7647 52.2415 37.3282 52.6848L37.3292 52.6858C37.3203 52.6967 37.3104 52.7046 37.3005 52.7155L42.192 57.1279Z" fill="#FF9F47"/>
<path d="M28.362 74.8228L28.234 74.816V74.817L28.1934 74.8149C28.1774 75.3586 28.1604 75.9189 28.1604 76.4615C28.1604 77.0546 28.1772 77.632 28.1934 78.0594L28.2102 78.3887L34.7808 77.9116C34.764 77.4337 34.747 76.9396 34.747 76.4618C34.747 76.0174 34.7637 75.5731 34.7808 75.1288L28.362 74.8228Z" fill="#FF9F47"/>
<path d="M65.2638 108.657V105.529L65.2656 105.405H65.2638V105.363L64.8352 105.38C63.9623 105.413 63.1064 105.413 62.2664 105.363L61.961 111.781L61.9549 111.91L61.9531 111.951C62.4965 111.968 63.0569 111.984 63.6332 111.984C64.2096 111.984 64.8027 111.968 65.3788 111.951L65.8122 111.893L65.8331 111.892V111.89L65.8729 111.885L65.2638 108.657Z" fill="#FF9F47"/>
<path d="M64.9999 47.6094L65.2965 41.0386C64.1935 40.9901 63.0568 40.9901 61.9203 41.0386L61.822 41.0553L62.2339 47.6262C63.172 47.5767 64.0775 47.5767 64.9999 47.6094Z" fill="#FF9F47"/>
<path d="M99.1066 74.7358C99.1066 74.7317 99.1066 74.7279 99.1066 74.7239C99.1066 74.7101 99.1066 74.698 99.1056 74.6832L92.7443 74.9064L92.5589 74.9112L92.5597 74.9123L92.519 74.9143L92.5348 75.1771C92.5515 75.6382 92.5675 76.0665 92.5675 76.5111C92.5675 76.989 92.5518 77.4503 92.5348 77.9274L99.1056 78.224C99.1384 77.6646 99.1551 77.0882 99.1551 76.5111C99.1551 75.9517 99.1384 75.3716 99.1066 74.7358Z" fill="#FF9F47"/>
<path d="M85.1698 95.9806L85.1053 95.9212L85.0746 95.8943C84.4497 96.6024 83.7741 97.2778 83.0662 97.9037L87.4958 102.778C88.2951 102.056 89.0599 101.283 89.8008 100.488C89.8465 100.442 89.8932 100.4 89.9386 100.355L89.9376 100.353C89.9465 100.343 89.9564 100.335 89.9666 100.325L85.1698 95.9806Z" fill="#FF9F47"/>
<path d="M54.3943 10.4239H57.6057H69.6772H72.8888C73.9263 10.4239 74.7652 9.58496 74.7652 8.56324V1.86063C74.7652 0.840176 73.9261 0 72.8888 0H54.3943C53.3736 0 52.5337 0.840176 52.5337 1.86063V8.56324C52.5337 9.58496 53.3739 10.4239 54.3943 10.4239Z" fill="#FF9F47"/>
<path d="M110.552 39.0132L102.005 30.4657L97.4593 35.0111C89.719 28.6713 80.151 24.4722 69.6774 23.3017V13.817V13.7586V13.718H57.606V23.302C47.8237 24.4057 38.8159 28.144 31.3556 33.8261L27.9964 30.4659L19.4964 38.9659L19.4776 38.9847L19.4499 39.0134L22.6118 42.1756C14.822 51.48 10.1288 63.4362 10.1288 76.4788C10.1285 106.006 34.1384 130 63.6499 130C93.1604 130 117.172 106.006 117.172 76.4783C117.172 64.127 112.955 52.748 105.891 43.6739L110.552 39.0132ZM63.6499 115.178C42.3071 115.178 24.949 97.8214 24.949 76.4783C24.949 55.1522 42.3068 37.7784 63.6499 37.7784C84.992 37.7784 102.35 55.1522 102.35 76.4783C102.35 97.8214 84.9923 115.178 63.6499 115.178Z" fill="#FF9F47"/>
<path d="M122.524 31.5855L109.447 18.4936C109.085 18.1315 108.608 17.95 108.114 17.95C107.636 17.95 107.158 18.1315 106.796 18.4936L102.07 23.2365C101.345 23.9614 101.345 25.1467 102.07 25.8716L104.342 28.144L112.89 36.6915L115.146 38.9467C115.508 39.3098 115.986 39.4903 116.463 39.4903C116.941 39.4903 117.419 39.3098 117.78 38.9467L122.523 34.2208C123.248 33.4969 123.248 32.3106 122.524 31.5855Z" fill="#FF9F47"/>
<path d="M53.0455 82L53.4205 79.7273L58.3636 76.1364C58.6932 75.8977 58.9773 75.6742 59.2159 75.4659C59.4583 75.2538 59.6534 75.036 59.8011 74.8125C59.9489 74.589 60.0455 74.3409 60.0909 74.0682C60.1402 73.7689 60.1174 73.5133 60.0227 73.3011C59.9318 73.0852 59.7841 72.9205 59.5795 72.8068C59.375 72.6932 59.1288 72.6364 58.8409 72.6364C58.5492 72.6364 58.2822 72.6951 58.0398 72.8125C57.7973 72.9299 57.5947 73.1023 57.4318 73.3295C57.2727 73.5568 57.1667 73.8333 57.1136 74.1591H54.1136C54.25 73.3409 54.5511 72.6364 55.017 72.0455C55.4867 71.4545 56.0814 71 56.8011 70.6818C57.5246 70.3636 58.3371 70.2045 59.2386 70.2045C60.1705 70.2045 60.9545 70.3542 61.5909 70.6534C62.2273 70.9489 62.6875 71.3655 62.9716 71.9034C63.2595 72.4413 63.3409 73.072 63.2159 73.7955C63.1402 74.2424 62.9716 74.6856 62.7102 75.125C62.4527 75.5644 62.0379 76.053 61.4659 76.5909C60.8977 77.125 60.1098 77.7614 59.1023 78.5L57.8636 79.4091L57.8523 79.4773H62.3977L61.9773 82H53.0455ZM68.0256 82.1591C67.1354 82.1591 66.3703 82 65.7301 81.6818C65.09 81.3636 64.6184 80.9261 64.3153 80.3693C64.0123 79.8125 63.9157 79.1742 64.0256 78.4545H67.0938C67.0407 78.8523 67.143 79.1723 67.4006 79.4148C67.6581 79.6534 67.9953 79.7727 68.4119 79.7727C68.7415 79.7727 69.0407 79.7045 69.3097 79.5682C69.5786 79.428 69.804 79.233 69.9858 78.983C70.1676 78.7292 70.2869 78.4318 70.3438 78.0909C70.4006 77.75 70.3797 77.4545 70.2812 77.2045C70.1828 76.9508 70.0218 76.7557 69.7983 76.6193C69.5748 76.4792 69.3021 76.4091 68.9801 76.4091C68.643 76.4091 68.321 76.4905 68.0142 76.6534C67.7074 76.8125 67.4612 77.0341 67.2756 77.3182L64.5938 76.7727L66.1165 70.3636H73.9347L73.5256 72.8864H68.2983L67.6392 75.4545H67.7074C67.9498 75.1023 68.3134 74.8106 68.7983 74.5795C69.2869 74.3447 69.8248 74.2273 70.4119 74.2273C71.1051 74.2273 71.696 74.3883 72.1847 74.7102C72.6733 75.0322 73.0275 75.4773 73.2472 76.0455C73.4669 76.6136 73.5142 77.2652 73.3892 78C73.2642 78.8106 72.9574 79.5284 72.4688 80.1534C71.9801 80.7784 71.3551 81.2689 70.5938 81.625C69.8324 81.9811 68.9763 82.1591 68.0256 82.1591Z" fill="#FF9F47"/>
<path d="M75.3125 82L76.2216 76.5455H77.0312L76.8892 77.3977H76.9602C77.1236 77.1065 77.3449 76.8804 77.6243 76.7195C77.906 76.5561 78.2244 76.4744 78.5795 76.4744C78.9347 76.4744 79.2199 76.5561 79.4354 76.7195C79.6508 76.8804 79.8011 77.1065 79.8864 77.3977H79.9432C80.1278 77.1136 80.3741 76.8887 80.6818 76.723C80.992 76.5573 81.3423 76.4744 81.733 76.4744C82.2159 76.4744 82.5876 76.6271 82.848 76.9325C83.1108 77.2379 83.1889 77.7102 83.0824 78.3494L82.4716 82H81.6335L82.2443 78.3494C82.3082 77.9446 82.2443 77.657 82.0526 77.4865C81.8632 77.3137 81.6193 77.2273 81.321 77.2273C80.9375 77.2273 80.6214 77.3421 80.3729 77.5717C80.1243 77.8014 79.9716 78.0937 79.9148 78.4489L79.3182 82H78.4659L79.0909 78.2642C79.1406 77.9517 79.0814 77.7008 78.9134 77.5114C78.7453 77.322 78.5014 77.2273 78.1818 77.2273C77.964 77.2273 77.7509 77.2865 77.5426 77.4048C77.3343 77.5208 77.1555 77.6818 77.0064 77.8878C76.8572 78.0914 76.7614 78.3258 76.7188 78.5909L76.1506 82H75.3125ZM84.0039 82L84.913 76.5455H85.7511L84.842 82H84.0039ZM85.5877 75.6222C85.4244 75.6222 85.2835 75.5665 85.1651 75.4553C85.0491 75.344 84.9911 75.2102 84.9911 75.054C84.9911 74.8977 85.0491 74.764 85.1651 74.6527C85.2835 74.5414 85.4244 74.4858 85.5877 74.4858C85.7511 74.4858 85.8907 74.5414 86.0067 74.6527C86.1251 74.764 86.1843 74.8977 86.1843 75.054C86.1843 75.2102 86.1251 75.344 86.0067 75.4553C85.8907 75.5665 85.7511 75.6222 85.5877 75.6222ZM87.7548 78.7188L87.215 82H86.377L87.286 76.5455H88.0957L87.9537 77.3977H88.0247C88.1951 77.1207 88.426 76.8982 88.7172 76.7301C89.0083 76.5597 89.3599 76.4744 89.7718 76.4744C90.1364 76.4744 90.4442 76.5502 90.6951 76.7017C90.9484 76.8509 91.1272 77.0781 91.2314 77.3835C91.3379 77.6866 91.3533 78.0701 91.2775 78.5341L90.6951 82H89.8571L90.4252 78.5909C90.4963 78.1648 90.4406 77.831 90.2583 77.5895C90.0784 77.348 89.7931 77.2273 89.4025 77.2273C89.1326 77.2273 88.8829 77.2853 88.6532 77.4013C88.426 77.5173 88.233 77.6866 88.0744 77.9091C87.9181 78.1316 87.8116 78.4015 87.7548 78.7188Z" fill="#FF9F47"/>
</svg>
