<svg width="100" height="100" viewBox="0 0 100 100" fill="none" xmlns="http://www.w3.org/2000/svg">
<rect width="100" height="100" fill="white"/>
<path d="M12.01 22.34C12.33 22.38 12.74 22.41 13.08 22.41C13.71 22.41 16.51 22.41 17.1 22.41C17.43 22.41 17.83 22.38 18.17 22.34V23.63C17.83 23.61 17.44 23.59 17.1 23.59C16.51 23.59 13.71 23.59 13.08 23.59C12.74 23.59 12.31 23.61 12.01 23.63V22.34ZM10.84 24.89C11.14 24.93 11.49 24.95 11.8 24.95C12.43 24.95 17.76 24.95 18.35 24.95C18.56 24.95 19 24.94 19.27 24.89V26.19C19.01 26.18 18.63 26.17 18.35 26.17C17.76 26.17 12.43 26.17 11.8 26.17C11.51 26.17 11.12 26.18 10.84 26.2V24.89ZM15.96 25.59C15.96 26.9 15.73 27.9 15.3 28.73C14.96 29.43 14.18 30.2 13.3 30.66L12.12 29.81C12.83 29.53 13.54 28.96 13.93 28.37C14.43 27.61 14.57 26.67 14.57 25.6L15.96 25.59ZM23.64 22.86C23.58 22.58 23.51 22.34 23.43 22.11L24.85 21.88C24.87 22.07 24.91 22.41 24.95 22.65C25.05 23.31 26.04 28.37 26.25 29.39C26.32 29.68 26.41 30.04 26.5 30.37L25.06 30.62C25.01 30.25 24.99 29.91 24.92 29.61C24.77 28.71 23.8 23.67 23.64 22.86ZM20.91 24.14C21.22 24.12 21.52 24.1 21.84 24.06C22.69 23.96 26.19 23.42 27.09 23.24C27.4 23.19 27.78 23.1 28.02 23.03L28.27 24.35C28.05 24.36 27.64 24.42 27.34 24.46C26.28 24.63 22.84 25.18 22.09 25.31C21.78 25.37 21.52 25.43 21.18 25.52L20.91 24.14ZM20.92 27.07C21.18 27.06 21.64 27.01 21.95 26.96C23.02 26.81 26.67 26.22 27.82 26C28.21 25.93 28.58 25.84 28.85 25.77L29.11 27.09C28.84 27.11 28.43 27.18 28.06 27.24C26.79 27.43 23.19 28.02 22.2 28.21C21.77 28.29 21.42 28.35 21.2 28.41L20.92 27.07ZM38.0273 23.23C37.9473 23.34 37.7673 23.64 37.6773 23.85C37.2673 24.8 36.5273 26.16 35.6673 27.16C34.5473 28.45 33.0373 29.69 31.4873 30.42L30.4473 29.34C32.0673 28.74 33.6073 27.52 34.5473 26.48C35.2073 25.73 35.8173 24.74 36.0473 24.03C35.6273 24.03 33.0773 24.03 32.6473 24.03C32.2373 24.03 31.6873 24.08 31.4673 24.1V22.67C31.7373 22.71 32.3573 22.74 32.6473 22.74C33.1773 22.74 35.7373 22.74 36.1773 22.74C36.6173 22.74 37.0073 22.69 37.2173 22.62L38.0273 23.23ZM35.7973 26.33C36.8273 27.17 38.2473 28.66 38.8973 29.46L37.7573 30.45C37.0173 29.42 35.9273 28.23 34.8573 27.26L35.7973 26.33ZM42.8273 29.05C42.8273 28.28 42.8273 24.14 42.8273 23.3C42.8273 22.94 42.7973 22.45 42.7273 22.09H44.2873C44.2473 22.45 44.1973 22.88 44.1973 23.3C44.1973 24.4 44.2073 28.31 44.2073 29.05C44.2073 29.33 44.2473 30.03 44.2973 30.44H42.7273C42.7973 30.05 42.8273 29.44 42.8273 29.05ZM43.9073 24.68C45.2373 25.05 47.3973 25.84 48.3773 26.32L47.8173 27.71C46.6773 27.12 44.9973 26.48 43.9073 26.12V24.68ZM51.7073 22.34C52.0273 22.38 52.4373 22.41 52.7773 22.41C53.4073 22.41 56.2073 22.41 56.7973 22.41C57.1273 22.41 57.5273 22.38 57.8673 22.34V23.63C57.5273 23.61 57.1373 23.59 56.7973 23.59C56.2073 23.59 53.4073 23.59 52.7773 23.59C52.4373 23.59 52.0073 23.61 51.7073 23.63V22.34ZM50.5373 24.89C50.8373 24.93 51.1873 24.95 51.4973 24.95C52.1273 24.95 57.4573 24.95 58.0473 24.95C58.2573 24.95 58.6973 24.94 58.9673 24.89V26.19C58.7073 26.18 58.3273 26.17 58.0473 26.17C57.4573 26.17 52.1273 26.17 51.4973 26.17C51.2073 26.17 50.8173 26.18 50.5373 26.2V24.89ZM55.6573 25.59C55.6573 26.9 55.4273 27.9 54.9973 28.73C54.6573 29.43 53.8773 30.2 52.9973 30.66L51.8173 29.81C52.5273 29.53 53.2373 28.96 53.6273 28.37C54.1273 27.61 54.2673 26.67 54.2673 25.6L55.6573 25.59ZM63.3373 22.86C63.2773 22.58 63.2073 22.34 63.1273 22.11L64.5473 21.88C64.5673 22.07 64.6073 22.41 64.6473 22.65C64.7473 23.31 65.7373 28.37 65.9473 29.39C66.0173 29.68 66.1073 30.04 66.1973 30.37L64.7573 30.62C64.7073 30.25 64.6873 29.91 64.6173 29.61C64.4673 28.71 63.4973 23.67 63.3373 22.86ZM60.6073 24.14C60.9173 24.12 61.2173 24.1 61.5373 24.06C62.3873 23.96 65.8873 23.42 66.7873 23.24C67.0973 23.19 67.4773 23.1 67.7173 23.03L67.9673 24.35C67.7473 24.36 67.3373 24.42 67.0373 24.46C65.9773 24.63 62.5373 25.18 61.7873 25.31C61.4773 25.37 61.2173 25.43 60.8773 25.52L60.6073 24.14ZM60.6173 27.07C60.8773 27.06 61.3373 27.01 61.6473 26.96C62.7173 26.81 66.3673 26.22 67.5173 26C67.9073 25.93 68.2773 25.84 68.5473 25.77L68.8073 27.09C68.5373 27.11 68.1273 27.18 67.7573 27.24C66.4873 27.43 62.8873 28.02 61.8973 28.21C61.4673 28.29 61.1173 28.35 60.8973 28.41L60.6173 27.07ZM77.7245 23.23C77.6445 23.34 77.4645 23.64 77.3745 23.85C76.9645 24.8 76.2245 26.16 75.3645 27.16C74.2445 28.45 72.7345 29.69 71.1845 30.42L70.1445 29.34C71.7645 28.74 73.3045 27.52 74.2445 26.48C74.9045 25.73 75.5145 24.74 75.7445 24.03C75.3245 24.03 72.7745 24.03 72.3445 24.03C71.9345 24.03 71.3845 24.08 71.1645 24.1V22.67C71.4345 22.71 72.0545 22.74 72.3445 22.74C72.8745 22.74 75.4345 22.74 75.8745 22.74C76.3145 22.74 76.7045 22.69 76.9145 22.62L77.7245 23.23ZM75.4945 26.33C76.5245 27.17 77.9445 28.66 78.5945 29.46L77.4545 30.45C76.7145 29.42 75.6245 28.23 74.5545 27.26L75.4945 26.33ZM82.5245 29.05C82.5245 28.28 82.5245 24.14 82.5245 23.3C82.5245 22.94 82.4945 22.45 82.4245 22.09H83.9845C83.9445 22.45 83.8945 22.88 83.8945 23.3C83.8945 24.4 83.9045 28.31 83.9045 29.05C83.9045 29.33 83.9445 30.03 83.9945 30.44H82.4245C82.4945 30.05 82.5245 29.44 82.5245 29.05ZM83.6045 24.68C84.9345 25.05 87.0945 25.84 88.0745 26.32L87.5145 27.71C86.3745 27.12 84.6945 26.48 83.6045 26.12V24.68Z" fill="#736E6E"/>
<path d="M14.09 55.14C13.586 55.14 13.1613 55.0187 12.816 54.776C12.4707 54.5333 12.298 54.1087 12.298 53.502C12.298 53.362 12.3073 53.208 12.326 53.04C12.354 52.8627 12.3867 52.6853 12.424 52.508L13.278 48.434H12.116L12.228 47.874L13.488 47.342L14.356 45.788H15.084L14.706 47.496H16.596L16.4 48.434H14.524L13.656 52.522C13.628 52.6433 13.6 52.7833 13.572 52.942C13.544 53.0913 13.53 53.2313 13.53 53.362C13.53 53.5767 13.586 53.7587 13.698 53.908C13.8193 54.0573 14.0107 54.132 14.272 54.132C14.44 54.132 14.6033 54.118 14.762 54.09C14.9207 54.0527 15.0887 54.006 15.266 53.95V54.888C15.154 54.944 14.9813 55 14.748 55.056C14.5147 55.112 14.2953 55.14 14.09 55.14ZM19.5364 55.14C18.9578 55.14 18.4631 55.028 18.0524 54.804C17.6511 54.5707 17.3431 54.244 17.1284 53.824C16.9231 53.3947 16.8204 52.8907 16.8204 52.312C16.8204 51.7147 16.9044 51.1267 17.0724 50.548C17.2498 49.96 17.5018 49.428 17.8284 48.952C18.1551 48.4667 18.5471 48.0793 19.0044 47.79C19.4711 47.5007 19.9938 47.356 20.5724 47.356C21.2818 47.356 21.8138 47.51 22.1684 47.818C22.5324 48.126 22.7144 48.5553 22.7144 49.106C22.7144 49.47 22.6304 49.8153 22.4624 50.142C22.2944 50.4593 22.0331 50.7393 21.6784 50.982C21.3238 51.2247 20.8711 51.416 20.3204 51.556C19.7698 51.6867 19.1071 51.752 18.3324 51.752H18.0944C18.0851 51.836 18.0758 51.9247 18.0664 52.018C18.0664 52.1113 18.0664 52.1953 18.0664 52.27C18.0664 52.8393 18.2064 53.292 18.4864 53.628C18.7664 53.9547 19.1911 54.118 19.7604 54.118C20.1151 54.118 20.4511 54.0667 20.7684 53.964C21.0858 53.8613 21.4311 53.7213 21.8044 53.544V54.594C21.4498 54.7527 21.0998 54.8833 20.7544 54.986C20.4184 55.0887 20.0124 55.14 19.5364 55.14ZM18.3744 50.758C18.9344 50.758 19.4524 50.7113 19.9284 50.618C20.4044 50.5153 20.7871 50.352 21.0764 50.128C21.3658 49.8947 21.5104 49.5867 21.5104 49.204C21.5104 48.9613 21.4264 48.7653 21.2584 48.616C21.0998 48.4573 20.8478 48.378 20.5024 48.378C20.2038 48.378 19.9098 48.4713 19.6204 48.658C19.3311 48.8447 19.0698 49.1153 18.8364 49.47C18.6031 49.8247 18.4164 50.254 18.2764 50.758H18.3744ZM22.6168 55L25.8648 51.136L24.2408 47.496H25.4868L26.6488 50.268L28.8468 47.496H30.2748L27.1528 51.192L28.8748 55H27.6288L26.3548 52.088L24.0448 55H22.6168ZM32.4923 55.14C31.9883 55.14 31.5637 55.0187 31.2183 54.776C30.873 54.5333 30.7003 54.1087 30.7003 53.502C30.7003 53.362 30.7097 53.208 30.7283 53.04C30.7563 52.8627 30.789 52.6853 30.8263 52.508L31.6803 48.434H30.5183L30.6303 47.874L31.8903 47.342L32.7583 45.788H33.4863L33.1083 47.496H34.9983L34.8023 48.434H32.9263L32.0583 52.522C32.0303 52.6433 32.0023 52.7833 31.9743 52.942C31.9463 53.0913 31.9323 53.2313 31.9323 53.362C31.9323 53.5767 31.9883 53.7587 32.1003 53.908C32.2217 54.0573 32.413 54.132 32.6743 54.132C32.8423 54.132 33.0057 54.118 33.1643 54.09C33.323 54.0527 33.491 54.006 33.6683 53.95V54.888C33.5563 54.944 33.3837 55 33.1503 55.056C32.917 55.112 32.6977 55.14 32.4923 55.14ZM41.0373 55.14C40.5333 55.14 40.1086 55.0187 39.7633 54.776C39.4179 54.5333 39.2453 54.1087 39.2453 53.502C39.2453 53.362 39.2546 53.208 39.2733 53.04C39.3013 52.8627 39.3339 52.6853 39.3713 52.508L40.2253 48.434H39.0633L39.1753 47.874L40.4353 47.342L41.3033 45.788H42.0313L41.6533 47.496H43.5433L43.3473 48.434H41.4713L40.6033 52.522C40.5753 52.6433 40.5473 52.7833 40.5193 52.942C40.4913 53.0913 40.4773 53.2313 40.4773 53.362C40.4773 53.5767 40.5333 53.7587 40.6453 53.908C40.7666 54.0573 40.9579 54.132 41.2193 54.132C41.3873 54.132 41.5506 54.118 41.7093 54.09C41.8679 54.0527 42.0359 54.006 42.2133 53.95V54.888C42.1013 54.944 41.9286 55 41.6953 55.056C41.4619 55.112 41.2426 55.14 41.0373 55.14ZM46.4837 55.14C45.905 55.14 45.4104 55.028 44.9997 54.804C44.5984 54.5707 44.2904 54.244 44.0757 53.824C43.8704 53.3947 43.7677 52.8907 43.7677 52.312C43.7677 51.7147 43.8517 51.1267 44.0197 50.548C44.197 49.96 44.449 49.428 44.7757 48.952C45.1024 48.4667 45.4944 48.0793 45.9517 47.79C46.4184 47.5007 46.941 47.356 47.5197 47.356C48.229 47.356 48.761 47.51 49.1157 47.818C49.4797 48.126 49.6617 48.5553 49.6617 49.106C49.6617 49.47 49.5777 49.8153 49.4097 50.142C49.2417 50.4593 48.9804 50.7393 48.6257 50.982C48.271 51.2247 47.8184 51.416 47.2677 51.556C46.717 51.6867 46.0544 51.752 45.2797 51.752H45.0417C45.0324 51.836 45.023 51.9247 45.0137 52.018C45.0137 52.1113 45.0137 52.1953 45.0137 52.27C45.0137 52.8393 45.1537 53.292 45.4337 53.628C45.7137 53.9547 46.1384 54.118 46.7077 54.118C47.0624 54.118 47.3984 54.0667 47.7157 53.964C48.033 53.8613 48.3784 53.7213 48.7517 53.544V54.594C48.397 54.7527 48.047 54.8833 47.7017 54.986C47.3657 55.0887 46.9597 55.14 46.4837 55.14ZM45.3217 50.758C45.8817 50.758 46.3997 50.7113 46.8757 50.618C47.3517 50.5153 47.7344 50.352 48.0237 50.128C48.313 49.8947 48.4577 49.5867 48.4577 49.204C48.4577 48.9613 48.3737 48.7653 48.2057 48.616C48.047 48.4573 47.795 48.378 47.4497 48.378C47.151 48.378 46.857 48.4713 46.5677 48.658C46.2784 48.8447 46.017 49.1153 45.7837 49.47C45.5504 49.8247 45.3637 50.254 45.2237 50.758H45.3217ZM49.564 55L52.812 51.136L51.188 47.496H52.434L53.596 50.268L55.794 47.496H57.222L54.1 51.192L55.822 55H54.576L53.302 52.088L50.992 55H49.564ZM59.4396 55.14C58.9356 55.14 58.5109 55.0187 58.1656 54.776C57.8203 54.5333 57.6476 54.1087 57.6476 53.502C57.6476 53.362 57.6569 53.208 57.6756 53.04C57.7036 52.8627 57.7363 52.6853 57.7736 52.508L58.6276 48.434H57.4656L57.5776 47.874L58.8376 47.342L59.7056 45.788H60.4336L60.0556 47.496H61.9456L61.7496 48.434H59.8736L59.0056 52.522C58.9776 52.6433 58.9496 52.7833 58.9216 52.942C58.8936 53.0913 58.8796 53.2313 58.8796 53.362C58.8796 53.5767 58.9356 53.7587 59.0476 53.908C59.1689 54.0573 59.3603 54.132 59.6216 54.132C59.7896 54.132 59.9529 54.118 60.1116 54.09C60.2703 54.0527 60.4383 54.006 60.6156 53.95V54.888C60.5036 54.944 60.3309 55 60.0976 55.056C59.8643 55.112 59.6449 55.14 59.4396 55.14ZM67.9845 55.14C67.4805 55.14 67.0559 55.0187 66.7105 54.776C66.3652 54.5333 66.1925 54.1087 66.1925 53.502C66.1925 53.362 66.2019 53.208 66.2205 53.04C66.2485 52.8627 66.2812 52.6853 66.3185 52.508L67.1725 48.434H66.0105L66.1225 47.874L67.3825 47.342L68.2505 45.788H68.9785L68.6005 47.496H70.4905L70.2945 48.434H68.4185L67.5505 52.522C67.5225 52.6433 67.4945 52.7833 67.4665 52.942C67.4385 53.0913 67.4245 53.2313 67.4245 53.362C67.4245 53.5767 67.4805 53.7587 67.5925 53.908C67.7139 54.0573 67.9052 54.132 68.1665 54.132C68.3345 54.132 68.4979 54.118 68.6565 54.09C68.8152 54.0527 68.9832 54.006 69.1605 53.95V54.888C69.0485 54.944 68.8759 55 68.6425 55.056C68.4092 55.112 68.1899 55.14 67.9845 55.14ZM73.431 55.14C72.8523 55.14 72.3576 55.028 71.947 54.804C71.5456 54.5707 71.2376 54.244 71.023 53.824C70.8176 53.3947 70.715 52.8907 70.715 52.312C70.715 51.7147 70.799 51.1267 70.967 50.548C71.1443 49.96 71.3963 49.428 71.723 48.952C72.0496 48.4667 72.4416 48.0793 72.899 47.79C73.3656 47.5007 73.8883 47.356 74.467 47.356C75.1763 47.356 75.7083 47.51 76.063 47.818C76.427 48.126 76.609 48.5553 76.609 49.106C76.609 49.47 76.525 49.8153 76.357 50.142C76.189 50.4593 75.9276 50.7393 75.573 50.982C75.2183 51.2247 74.7656 51.416 74.215 51.556C73.6643 51.6867 73.0016 51.752 72.227 51.752H71.989C71.9796 51.836 71.9703 51.9247 71.961 52.018C71.961 52.1113 71.961 52.1953 71.961 52.27C71.961 52.8393 72.101 53.292 72.381 53.628C72.661 53.9547 73.0856 54.118 73.655 54.118C74.0096 54.118 74.3456 54.0667 74.663 53.964C74.9803 53.8613 75.3256 53.7213 75.699 53.544V54.594C75.3443 54.7527 74.9943 54.8833 74.649 54.986C74.313 55.0887 73.907 55.14 73.431 55.14ZM72.269 50.758C72.829 50.758 73.347 50.7113 73.823 50.618C74.299 50.5153 74.6816 50.352 74.971 50.128C75.2603 49.8947 75.405 49.5867 75.405 49.204C75.405 48.9613 75.321 48.7653 75.153 48.616C74.9943 48.4573 74.7423 48.378 74.397 48.378C74.0983 48.378 73.8043 48.4713 73.515 48.658C73.2256 48.8447 72.9643 49.1153 72.731 49.47C72.4976 49.8247 72.311 50.254 72.171 50.758H72.269ZM76.5113 55L79.7593 51.136L78.1353 47.496H79.3813L80.5433 50.268L82.7413 47.496H84.1693L81.0473 51.192L82.7693 55H81.5233L80.2493 52.088L77.9393 55H76.5113ZM86.3869 55.14C85.8829 55.14 85.4582 55.0187 85.1129 54.776C84.7675 54.5333 84.5949 54.1087 84.5949 53.502C84.5949 53.362 84.6042 53.208 84.6229 53.04C84.6509 52.8627 84.6835 52.6853 84.7209 52.508L85.5749 48.434H84.4129L84.5249 47.874L85.7849 47.342L86.6529 45.788H87.3809L87.0029 47.496H88.8929L88.6969 48.434H86.8209L85.9529 52.522C85.9249 52.6433 85.8969 52.7833 85.8689 52.942C85.8409 53.0913 85.8269 53.2313 85.8269 53.362C85.8269 53.5767 85.8829 53.7587 85.9949 53.908C86.1162 54.0573 86.3075 54.132 86.5689 54.132C86.7369 54.132 86.9002 54.118 87.0589 54.09C87.2175 54.0527 87.3855 54.006 87.5629 53.95V54.888C87.4509 54.944 87.2782 55 87.0449 55.056C86.8115 55.112 86.5922 55.14 86.3869 55.14Z" fill="#736E6E"/>
<path d="M12.14 69.61C12.43 69.64 12.72 69.66 13.05 69.66C13.63 69.66 16.54 69.66 17.1 69.66C17.38 69.66 17.74 69.64 18.03 69.61V70.44C17.73 70.42 17.38 70.4 17.1 70.4C16.54 70.4 13.63 70.4 13.06 70.4C12.73 70.4 12.4 70.42 12.14 70.44V69.61ZM10.95 72.12C11.22 72.15 11.51 72.16 11.82 72.16C12.4 72.16 17.83 72.16 18.36 72.16C18.57 72.16 18.9 72.15 19.15 72.12V72.94C18.92 72.93 18.61 72.92 18.36 72.92C17.83 72.92 12.4 72.92 11.82 72.92C11.52 72.92 11.22 72.93 10.95 72.95V72.12ZM15.66 72.52C15.66 73.78 15.5 74.82 15.05 75.66C14.69 76.33 13.93 77.04 13.09 77.48L12.35 76.94C13.12 76.61 13.84 76.04 14.23 75.4C14.73 74.61 14.81 73.63 14.82 72.53L15.66 72.52ZM23.91 69.93C23.86 69.68 23.8 69.46 23.73 69.25L24.62 69.1C24.64 69.28 24.68 69.57 24.72 69.79C24.78 70.23 25.88 75.72 26.02 76.38C26.09 76.66 26.17 77 26.27 77.29L25.35 77.46C25.3 77.12 25.27 76.81 25.2 76.52C25.1 75.89 24.03 70.45 23.91 69.93ZM21.09 71.38C21.34 71.36 21.61 71.34 21.93 71.31C22.83 71.21 26.28 70.66 27.23 70.47C27.52 70.42 27.78 70.36 27.95 70.31L28.11 71.15C27.96 71.16 27.66 71.21 27.39 71.25C26.36 71.41 22.95 71.95 22.07 72.1C21.8 72.15 21.56 72.2 21.27 72.27L21.09 71.38ZM21.06 74.26C21.3 74.25 21.68 74.21 21.94 74.17C23.01 74.03 26.73 73.42 27.93 73.2C28.31 73.13 28.6 73.06 28.81 73L28.98 73.84C28.77 73.86 28.45 73.92 28.08 73.98C26.75 74.18 23.14 74.77 22.13 74.95C21.74 75.02 21.46 75.08 21.24 75.14L21.06 74.26ZM37.6873 70.32C37.6273 70.4 37.4973 70.62 37.4473 70.75C37.0473 71.74 36.2873 73.14 35.4573 74.06C34.3373 75.31 32.9073 76.5 31.3273 77.22L30.6873 76.55C32.3073 75.93 33.7773 74.73 34.8073 73.59C35.4873 72.82 36.2173 71.63 36.4773 70.8C36.1173 70.8 32.9173 70.8 32.5773 70.8C32.2173 70.8 31.6773 70.84 31.5673 70.85V69.95C31.6973 69.97 32.2673 70.01 32.5773 70.01C32.9673 70.01 36.0573 70.01 36.4373 70.01C36.7573 70.01 37.0273 69.98 37.1873 69.93L37.6873 70.32ZM35.5873 73.54C36.6673 74.44 37.9973 75.84 38.6773 76.67L37.9873 77.28C37.2673 76.33 36.0973 75.05 35.0173 74.1L35.5873 73.54ZM43.0573 76.12C43.0573 75.56 43.0573 71.14 43.0573 70.31C43.0573 70.02 43.0373 69.58 42.9873 69.26H43.9673C43.9273 69.57 43.8973 70 43.8973 70.31C43.8973 71.86 43.9073 75.65 43.9073 76.12C43.9073 76.44 43.9273 76.98 43.9673 77.31H42.9973C43.0473 76.99 43.0573 76.49 43.0573 76.12ZM43.7173 71.89C45.0373 72.27 47.0573 73.04 48.1673 73.58L47.8173 74.43C46.6773 73.82 44.8073 73.11 43.7173 72.77V71.89ZM51.8373 69.61C52.1273 69.64 52.4173 69.66 52.7473 69.66C53.3273 69.66 56.2373 69.66 56.7973 69.66C57.0773 69.66 57.4373 69.64 57.7273 69.61V70.44C57.4273 70.42 57.0773 70.4 56.7973 70.4C56.2373 70.4 53.3273 70.4 52.7573 70.4C52.4273 70.4 52.0973 70.42 51.8373 70.44V69.61ZM50.6473 72.12C50.9173 72.15 51.2073 72.16 51.5173 72.16C52.0973 72.16 57.5273 72.16 58.0573 72.16C58.2673 72.16 58.5973 72.15 58.8473 72.12V72.94C58.6173 72.93 58.3073 72.92 58.0573 72.92C57.5273 72.92 52.0973 72.92 51.5173 72.92C51.2173 72.92 50.9173 72.93 50.6473 72.95V72.12ZM55.3573 72.52C55.3573 73.78 55.1973 74.82 54.7473 75.66C54.3873 76.33 53.6273 77.04 52.7873 77.48L52.0473 76.94C52.8173 76.61 53.5373 76.04 53.9273 75.4C54.4273 74.61 54.5073 73.63 54.5173 72.53L55.3573 72.52ZM63.6073 69.93C63.5573 69.68 63.4973 69.46 63.4273 69.25L64.3173 69.1C64.3373 69.28 64.3773 69.57 64.4173 69.79C64.4773 70.23 65.5773 75.72 65.7173 76.38C65.7873 76.66 65.8673 77 65.9673 77.29L65.0473 77.46C64.9973 77.12 64.9673 76.81 64.8973 76.52C64.7973 75.89 63.7273 70.45 63.6073 69.93ZM60.7873 71.38C61.0373 71.36 61.3073 71.34 61.6273 71.31C62.5273 71.21 65.9773 70.66 66.9273 70.47C67.2173 70.42 67.4773 70.36 67.6473 70.31L67.8073 71.15C67.6573 71.16 67.3573 71.21 67.0873 71.25C66.0573 71.41 62.6473 71.95 61.7673 72.1C61.4973 72.15 61.2573 72.2 60.9673 72.27L60.7873 71.38ZM60.7573 74.26C60.9973 74.25 61.3773 74.21 61.6373 74.17C62.7073 74.03 66.4273 73.42 67.6273 73.2C68.0073 73.13 68.2973 73.06 68.5073 73L68.6773 73.84C68.4673 73.86 68.1473 73.92 67.7773 73.98C66.4473 74.18 62.8373 74.77 61.8273 74.95C61.4373 75.02 61.1573 75.08 60.9373 75.14L60.7573 74.26ZM77.3845 70.32C77.3245 70.4 77.1945 70.62 77.1445 70.75C76.7445 71.74 75.9845 73.14 75.1545 74.06C74.0345 75.31 72.6045 76.5 71.0245 77.22L70.3845 76.55C72.0045 75.93 73.4745 74.73 74.5045 73.59C75.1845 72.82 75.9145 71.63 76.1745 70.8C75.8145 70.8 72.6145 70.8 72.2745 70.8C71.9145 70.8 71.3745 70.84 71.2645 70.85V69.95C71.3945 69.97 71.9645 70.01 72.2745 70.01C72.6645 70.01 75.7545 70.01 76.1345 70.01C76.4545 70.01 76.7245 69.98 76.8845 69.93L77.3845 70.32ZM75.2845 73.54C76.3645 74.44 77.6945 75.84 78.3745 76.67L77.6845 77.28C76.9645 76.33 75.7945 75.05 74.7145 74.1L75.2845 73.54ZM82.7545 76.12C82.7545 75.56 82.7545 71.14 82.7545 70.31C82.7545 70.02 82.7345 69.58 82.6845 69.26H83.6645C83.6245 69.57 83.5945 70 83.5945 70.31C83.5945 71.86 83.6045 75.65 83.6045 76.12C83.6045 76.44 83.6245 76.98 83.6645 77.31H82.6945C82.7445 76.99 82.7545 76.49 82.7545 76.12ZM83.4145 71.89C84.7345 72.27 86.7545 73.04 87.8645 73.58L87.5145 74.43C86.3745 73.82 84.5045 73.11 83.4145 72.77V71.89Z" fill="#736E6E"/>
<path d="M10 78.5H89.3945V79H10V78.5Z" fill="#736E6E"/>
</svg>
