<svg width="130" height="128" viewBox="0 0 130 128" fill="none" xmlns="http://www.w3.org/2000/svg">
<path d="M3.396 19.5822L3.40006 19.584L3.396 19.5822Z" fill="#FF9F47"/>
<path d="M11.7582 52.6903L11.6886 52.6339C11.6797 52.6271 11.6698 52.6192 11.6599 52.6111L11.7582 52.6903Z" fill="#FF9F47"/>
<path d="M125.323 101.122L65.7501 43.4046C62.0436 39.2698 60.6778 34.1343 59.2179 28.5006C57.6043 22.2286 55.8823 15.5128 50.4175 10.0429C44.2046 3.82827 35.927 0.404343 27.1454 0.406374C18.1731 0.403327 9.75767 3.96411 3.52504 10.411L0.423572 13.5938C0.142751 13.8794 -0.00273704 14.2653 5.5931e-05 14.632C-0.00476829 15.1687 0.302712 15.7111 0.834392 15.9721L0.841247 15.9749L4.84129 17.9122L24.7115 27.4504L23.3069 30.1769L6.8733 22.4041L2.85853 20.5155C2.65795 20.4203 2.43781 20.3698 2.22072 20.3708C1.4976 20.367 0.835915 20.9065 0.740954 21.686L0.31947 25.198L0.316423 25.2249L0.101111 27.015L0.13488 27.018C0.056677 27.874 5.5931e-05 28.7278 5.5931e-05 29.5749C-0.00476829 38.2671 4.10521 46.3941 11.6549 52.6057L11.6886 52.6336C11.8811 52.7905 12.0736 52.9449 12.267 53.1018L12.3135 53.1978C11.8742 54.1185 11.6719 55.2062 11.6698 56.3061C11.6749 57.5637 11.9337 58.8393 12.6042 59.8666C13.8093 61.6907 15.8255 62.7927 18.0274 62.7886C18.3824 62.7886 18.7703 62.7698 19.1652 62.7013C24.3108 61.7829 29.7122 60.9498 34.3696 60.9508C40.637 60.9597 44.7838 62.4009 47.7771 65.3863L103.51 122.919C106.438 125.932 110.372 127.596 114.577 127.593C118.685 127.595 122.574 125.993 125.485 123.079C128.401 120.165 130.001 116.267 130 112.148V112.082V112.072C129.981 107.924 128.317 104.014 125.323 101.122ZM25.3638 56.9739C24.6696 57.0493 23.9752 57.1613 23.2622 57.2567C21.6484 57.5185 19.9972 57.7813 18.3468 58.0819L18.0274 58.0997C16.733 58.0997 15.8138 56.75 16.4148 55.5299L17.1271 54.0659L18.7597 50.6519L26.0574 35.4721L27.6901 32.0959L30.9741 25.2663L6.88346 13.6722C12.4366 7.96821 19.791 5.09678 27.1454 5.09678C34.3698 5.09678 41.5932 7.85598 47.0898 13.3716C56.1144 22.3962 53.1688 36.506 62.362 46.6551L122.062 104.48C126.341 108.664 126.398 115.531 122.157 119.771C120.055 121.873 117.317 122.904 114.577 122.904C111.782 122.904 108.986 121.835 106.884 119.658L51.0868 62.0589C46.7335 57.7059 40.9554 56.2607 34.3696 56.2607C31.4992 56.2607 28.497 56.5435 25.3638 56.9739ZM4.82148 27.0795L4.84636 26.8048L4.86414 26.6499L21.5773 34.5469L22.1209 34.8097L15.1037 49.3686L15.0976 49.3697C8.34722 43.9841 3.86121 36.2795 4.82148 27.0795Z" fill="#FF9F47"/>
<path d="M110.393 115.531C111.389 116.525 112.721 117.032 114.033 117.032C115.347 117.032 116.679 116.525 117.673 115.531C119.699 113.505 119.699 110.24 117.692 108.232C116.679 107.219 115.365 106.713 114.033 106.713C112.721 106.713 111.389 107.219 110.393 108.232C108.366 110.24 108.366 113.505 110.393 115.531ZM115.026 112.866C114.671 113.223 114.258 113.28 114.033 113.28C113.807 113.28 113.395 113.223 113.039 112.866C112.494 112.322 112.494 111.422 113.039 110.878C113.395 110.521 113.826 110.465 114.033 110.465C114.258 110.465 114.671 110.521 115.026 110.878C115.571 111.422 115.571 112.322 115.026 112.866Z" fill="#FF9F47"/>
<path d="M41.3304 51.7589C42.587 51.7589 43.806 51.046 44.3882 49.845L48.5716 41.1396C48.7968 40.6706 48.891 40.1635 48.891 39.6755C48.891 38.419 48.1976 37.2 46.9778 36.6177L35.6264 31.158C35.1572 30.9328 34.6504 30.8206 34.1634 30.8206C32.9055 30.8206 31.6858 31.5338 31.1046 32.7528L30.7296 33.5404L29.097 36.8996L26.92 41.4392C26.6958 41.9081 26.6016 42.4149 26.6016 42.9022C26.6016 43.2404 26.6394 43.5786 26.7514 43.897C26.9956 44.7608 27.6342 45.5296 28.515 45.962L29.716 46.5434L39.8664 51.421C40.3364 51.6459 40.8424 51.7589 41.3304 51.7589ZM36.4138 34.6292L44.2194 38.3814C44.7825 38.6442 45.0067 39.3196 44.7439 39.9018C44.4631 40.4642 43.7877 40.6894 43.2253 40.4263L35.4385 36.6734C34.8754 36.3925 34.6321 35.7171 34.9129 35.1537C35.176 34.5916 35.8514 34.3664 36.4138 34.6292ZM34.7068 38.175L42.5113 41.9081C43.0747 42.19 43.3187 42.8654 43.0369 43.4288C42.7741 43.9909 42.0997 44.2349 41.5363 43.9544L33.7318 40.2202C33.1683 39.9383 32.9243 39.264 33.2052 38.6995C33.4692 38.1374 34.1436 37.8934 34.7068 38.175ZM33.0178 41.702L40.8046 45.455C41.3677 45.7167 41.611 46.3931 41.3492 46.9746C41.0663 47.5367 40.392 47.7632 39.8296 47.4991L32.024 43.7469C31.536 43.522 31.311 42.9971 31.4052 42.4903L31.4992 42.2275L31.536 42.1709C31.8366 41.6453 32.4731 41.4587 33.0178 41.702Z" fill="#FF9F47"/>
<path d="M103.864 110.728C104.238 108.569 105.271 106.469 106.959 104.798C108.629 103.128 110.712 102.097 112.888 101.703L59.1912 49.7137C58.1974 48.7376 56.8842 48.2496 55.5898 48.2496V50.126C56.4526 50.126 57.259 50.4454 57.8968 51.0456L109.343 100.878C107.973 101.515 106.716 102.378 105.628 103.466C104.539 104.555 103.676 105.812 103.039 107.182L53.2064 55.7361C51.9676 54.4416 51.9676 52.3589 53.244 51.0835C53.863 50.4634 54.6889 50.1263 55.552 50.1263L55.5898 48.2496L55.552 48.2499C54.238 48.2499 52.9248 48.7567 51.9122 49.7693C49.9236 51.7589 49.8858 55.0043 51.8556 57.0493L103.864 110.728Z" fill="#FF9F47"/>
</svg>
