<svg width="31" height="31" viewBox="0 0 31 31" fill="none" xmlns="http://www.w3.org/2000/svg">
<path d="M2.46417 9.94044C3.03872 9.58106 3.36701 7.9638 2.87638 6.52935C2.47841 5.36639 1.76025 4.6346 1.11912 4.63395C1.1184 4.63395 1.11774 4.6333 1.11679 4.6333C1.11607 4.6333 1.11517 4.63395 1.11421 4.63395C0.966413 4.63451 0.821486 4.6617 0.686976 4.74578C-0.0315504 5.19524 -0.216106 6.72243 0.274765 8.15688C0.765336 9.5915 1.88937 10.3002 2.46417 9.94044Z" fill="#FF9F47"/>
<path d="M14.2223 5.70988C13.5427 5.16073 12.5059 5.81573 11.9061 7.1725C11.3066 8.52959 11.5075 10.1841 12.0509 10.6235C12.5946 11.0629 13.7673 10.5179 14.367 9.16088C14.9665 7.80403 14.9015 6.25895 14.2223 5.70988Z" fill="#FF9F47"/>
<path d="M9.2212 7.03098C9.43401 7.10016 9.68394 7.03316 9.93464 6.87576C9.94165 6.87139 9.94841 6.86727 9.95541 6.86282C10.0377 6.80908 10.1187 6.74523 10.1998 6.67005C10.2112 6.65962 10.222 6.64885 10.2332 6.63817C10.3124 6.56129 10.3889 6.47689 10.4639 6.38148C10.4724 6.37039 10.4806 6.35866 10.489 6.34765C10.8168 5.91682 11.0925 5.31879 11.2026 4.59363C11.3357 3.71925 11.356 2.91123 11.162 2.28382C11.1557 2.26262 11.1475 2.24336 11.1407 2.22281C11.1021 2.10903 11.0572 2.00124 11.0025 1.90162C10.9887 1.87662 10.9724 1.85452 10.9576 1.83081C10.902 1.73977 10.8411 1.65351 10.7692 1.57696C10.7584 1.56554 10.7455 1.55672 10.7343 1.54572C10.5688 1.38007 10.3707 1.2429 10.1142 1.15939C8.89364 0.763023 8.37936 1.97559 8.13267 3.59689C7.88598 5.2182 8.54284 6.81062 9.2212 7.03098Z" fill="#FF9F47"/>
<path d="M3.77725 4.06455C3.8619 5.23414 4.37636 6.1578 4.91464 6.55765C4.91649 6.55894 4.91811 6.56048 4.92002 6.56178C5.0103 6.62846 5.09985 6.67782 5.18964 6.71254C5.19012 6.71286 5.19036 6.71286 5.1906 6.71318C5.28016 6.74798 5.3669 6.76408 5.45202 6.76473C5.45388 6.76473 5.45573 6.76562 5.45741 6.76562C5.4595 6.76562 5.46136 6.7653 5.46351 6.76497C5.49482 6.76473 5.52805 6.77517 5.55846 6.77007C6.25016 6.64739 7.02718 5.15694 6.90793 3.50933C6.82424 2.35147 6.58593 1.38864 6.024 0.987422C6.00808 0.976416 5.99383 0.961526 5.97767 0.951411C5.90799 0.907469 5.83035 0.877123 5.75061 0.85058C5.72793 0.843297 5.70572 0.8348 5.68231 0.829054C5.59814 0.806881 5.50787 0.795875 5.41227 0.793933C5.40641 0.793933 5.4015 0.791748 5.39563 0.791748C5.3809 0.791748 5.36408 0.795552 5.34906 0.796118C5.27519 0.79806 5.20736 0.789482 5.12673 0.803725C4.86507 0.850175 4.65765 0.958289 4.47992 1.09958C4.468 1.10905 4.45442 1.11601 4.44292 1.1258C4.36528 1.19192 4.29818 1.26904 4.23574 1.35126C4.21934 1.37302 4.20138 1.39228 4.18569 1.41543C4.1235 1.50679 4.0704 1.60786 4.02323 1.71541C4.01479 1.73467 4.00521 1.75272 3.99725 1.77287C3.7557 2.3692 3.7129 3.17592 3.77725 4.06455Z" fill="#FF9F47"/>
<path d="M10.7331 11.8329C10.3401 11.6622 10.0436 11.2339 9.90905 10.7063C9.5691 9.37237 8.56197 8.36333 7.3357 8.2761C6.109 8.18886 5.02914 9.049 4.58742 10.327C4.41274 10.8328 4.08446 11.2165 3.68033 11.3303C2.49781 11.6635 1.59706 12.8944 1.53744 14.4247C1.46453 16.2909 2.67087 17.894 4.23148 18.0052C4.28811 18.0094 4.34163 17.9983 4.39754 17.9983C4.39915 17.9983 4.40077 17.9983 4.40221 17.9983C4.4043 17.9983 4.40616 17.9976 4.40831 17.9976C5.07452 17.9954 5.69188 17.7273 6.17287 17.2551C6.6644 16.7724 7.34228 16.8208 7.79382 17.3708C8.27482 17.9565 8.93096 18.34 9.66589 18.3925C11.2265 18.5037 12.5507 17.081 12.6234 15.2147C12.6831 13.6843 11.8831 12.3321 10.7331 11.8329Z" fill="#FF9F47"/>
<path d="M30.0409 18.0556C29.3438 17.5482 28.3296 18.2649 27.7754 19.6563C27.221 21.0478 27.4761 22.6891 28.0336 23.0953C28.5913 23.5012 29.7448 22.886 30.299 21.4945C30.8534 20.103 30.7377 18.5632 30.0409 18.0556Z" fill="#FF9F47"/>
<path d="M18.4338 22.9906C18.9959 22.5968 19.2707 20.9612 18.7331 19.5577C18.1955 18.1541 17.19 17.4157 16.4871 17.9079C15.7842 18.4004 15.6502 19.937 16.1878 21.3405C16.7254 22.744 17.8714 23.3845 18.4338 22.9906Z" fill="#FF9F47"/>
<path d="M19.6966 14.7387C19.475 15.3491 19.4588 16.1574 19.5524 17.041C19.7142 18.5693 20.5992 19.6331 21.2755 19.6382C21.2778 19.6382 21.2804 19.6394 21.283 19.6394C21.2879 19.6394 21.2926 19.6378 21.2975 19.6378C21.3387 19.6365 21.3819 19.6461 21.421 19.6365C22.1078 19.4725 22.835 17.9366 22.6617 16.2978C22.5602 15.3403 22.3556 14.5254 21.9614 14.0636C21.9511 14.0515 21.9419 14.0367 21.9315 14.0253C21.8755 13.9639 21.8126 13.9155 21.7488 13.8691C21.7245 13.8514 21.7004 13.8327 21.6752 13.8175C21.609 13.7774 21.5382 13.7471 21.4636 13.723C21.4414 13.7161 21.4184 13.711 21.3958 13.706C21.2169 13.6618 21.0223 13.6475 20.7932 13.7025C20.5334 13.7645 20.3297 13.8849 20.1569 14.0369C20.1452 14.0471 20.1319 14.055 20.1204 14.0654C20.0453 14.1359 19.981 14.2168 19.9214 14.3028C19.9055 14.3256 19.888 14.3465 19.8732 14.3705C19.8141 14.4653 19.7643 14.5693 19.7208 14.6796C19.7128 14.6995 19.7041 14.7182 19.6966 14.7387Z" fill="#FF9F47"/>
<path d="M25.0885 19.6765C25.1322 19.6882 25.1804 19.6799 25.2268 19.6809C25.2314 19.6812 25.2356 19.6828 25.2403 19.6828H25.2405C25.2424 19.6828 25.2445 19.6815 25.2464 19.6815C25.3289 19.6812 25.4131 19.6658 25.5003 19.6351C25.5019 19.6344 25.5036 19.6338 25.5052 19.6332C25.5939 19.6016 25.6822 19.556 25.7723 19.4954C25.7732 19.4948 25.7739 19.4941 25.7749 19.4936C26.3185 19.1246 26.8538 18.2588 26.988 17.1221C27.0921 16.2407 27.0855 15.4322 26.8713 14.8173C26.864 14.7964 26.8554 14.7775 26.8477 14.7572C26.8054 14.6464 26.757 14.5411 26.699 14.4446C26.6845 14.4206 26.6675 14.3998 26.652 14.377C26.5933 14.2894 26.53 14.2069 26.4555 14.1349C26.4443 14.1241 26.431 14.1156 26.4193 14.1055C26.2484 13.9496 26.0463 13.8248 25.7872 13.7571C25.5499 13.6948 25.3483 13.7065 25.1638 13.7521C25.1437 13.7568 25.1227 13.76 25.1031 13.766C25.0294 13.7894 24.9598 13.8207 24.894 13.8596C24.8676 13.8751 24.8421 13.8934 24.8168 13.9114C24.7544 13.9563 24.6939 14.0041 24.6386 14.0632C24.6234 14.0796 24.6096 14.1001 24.5947 14.1179C24.2084 14.5759 23.9986 15.3731 23.8881 16.3116C23.6948 17.9461 24.4038 19.4976 25.0885 19.6765Z" fill="#FF9F47"/>
<path d="M26.7576 24.3826C26.3592 24.2359 26.0489 23.8256 25.8971 23.3066C25.5137 21.9947 24.4745 21.0473 23.2461 21.0341C22.018 21.0208 20.9676 21.9451 20.5684 23.2484C20.4106 23.7643 20.0954 24.1677 19.6953 24.3054C18.525 24.7095 17.6656 25.9938 17.6565 27.5257C17.6453 29.3949 18.9031 30.9235 20.4661 30.9406C21.202 30.9485 21.8742 30.6197 22.3807 30.0742C22.8559 29.5623 23.5347 29.5697 24.0038 30.0918C24.5035 30.6485 25.1718 30.9918 25.9079 30.9999C27.4707 31.0167 28.7467 29.5159 28.7577 27.6467C28.7668 26.1146 27.9231 24.8119 26.7576 24.3826Z" fill="#FF9F47"/>
</svg>
