<!--?xml version="1.0" encoding="utf-8"?-->
<!-- Generator: Adobe Illustrator 24.1.1, SVG Export Plug-In . SVG Version: 6.00 Build 0)  -->
<svg version="1.1" id="_x31_0" xmlns="http://www.w3.org/2000/svg" xmlns:xlink="http://www.w3.org/1999/xlink" x="0px" y="0px" viewBox="0 0 512 512" style="width: 48px; height: 48px; opacity: 1;" xml:space="preserve">
<style type="text/css">
	.st0{fill:#ff9f47;}
</style>
<g>
	<path class="st0" d="M476.242,67H35.84C16.082,67,0,83.078,0,102.758v306.481C0,429,16.082,445,35.84,445h440.402
		C496,445,512,429,512,409.238V102.758C512,83.078,496,67,476.242,67z M464.398,413.078H47.68c-8.641,0-15.758-7.039-15.758-15.68
		V114.68c0-8.641,7.118-15.762,15.758-15.762h416.718c8.641,0,15.762,7.122,15.762,15.762v282.718
		C480.16,406.039,473.039,413.078,464.398,413.078z" style="fill: #ff9f47;"></path>
	<path class="st0" d="M101.68,291.477c0,0,0.16,0,0.32,0.082c0.16,0,0.242,0.082,0.398,0.082c0.32,0.078,0.722,0.156,1.043,0.238
		c0.078,0.082,0.238,0.082,0.32,0.082c0,0.078,0.078,0.078,0.16,0.078c0.238,0.078,0.398,0.078,0.641,0.16
		c0.238,0.078,0.398,0.078,0.637,0.16c0.242,0.078,0.481,0.16,0.722,0.16c0.078,0.078,0.238,0.078,0.398,0.161
		c0.161,0,0.321,0.078,0.481,0.078c0.078,0,0.238,0.082,0.32,0.082c0.161,0,0.321,0.078,0.481,0.16
		c-0.082-0.082-0.242-0.082-0.32-0.16c33.839,7.679,70.718,7.519,104.398,0.558c3.038-0.641,8-0.879,10.402-3.121
		c2.636-2.559,1.437-6.317,0.636-9.438c-1.679-6.082-4.398-13.363-9.359-17.52c-10.641-8.801-25.598-11.441-35.918-20.801v-9.679
		c5.187-1.918,6.312-11.321,7.434-15.73c0.004-0.008,0.004-0.02,0.008-0.031c4.718,1.441,6.957-4.719,7.996-8.161
		c1.203-4.238,1.683-7.519-2.078-10.558c4.801-10.718,2.879-21.442-6.641-28.641c-1.679-1.281-4.558-1.922-6-3.038
		c-1.84-1.602-2.878-4.719-4.801-6.563c-3.84-3.679-9.117-5.359-14.398-5.277c-6.718,0-18.082,5.758-23.84,13.679
		c-3.839,5.199-6.801,12.801-6.801,20c0,3.52,0.719,6.879,2.321,9.84c-3.68,3.039-2.879,6.481-1.68,10.801
		c1.282,4.481,2.719,7.918,7.68,7.918c0.398,4.242,2.801,14,7.519,15.762v9.679c-9.121,8.398-22.078,12.321-32.641,18.719
		c-5.038,3.039-7.918,7.442-10.238,12.878C99.359,278.438,94.562,289.32,101.68,291.477z" style="fill: #ff9f47;"></path>
	<polygon class="st0" points="419.039,165.477 276.641,165.477 276.641,180.438 419.039,180.438 419.039,165.683 419.039,165.637 
		419.039,165.637 	" style="fill: #ff9f47;"></polygon>
	<polygon class="st0" points="419.039,342.359 419.039,342.199 93.039,342.199 93.039,357.16 419.039,357.16 419.039,342.406 
		419.039,342.359 	" style="fill: #ff9f47;"></polygon>
	<polygon class="st0" points="419.039,214.117 276.641,214.117 276.641,229.16 419.039,229.16 419.039,214.324 419.039,214.278 
		419.039,214.278 	" style="fill: #ff9f47;"></polygon>
	<rect x="276.641" y="262.84" class="st0" width="114.718" height="14.957" style="fill: #ff9f47;"></rect>
</g>
</svg>
